%TF.GenerationSoftware,KiCad,Pcbnew,7.0.8-7.0.8~ubuntu20.04.1*%
%TF.CreationDate,2023-10-09T21:02:50+02:00*%
%TF.ProjectId,X-over for bookshelf-1,582d6f76-6572-4206-966f-7220626f6f6b,rev?*%
%TF.SameCoordinates,Original*%
%TF.FileFunction,Copper,L1,Top*%
%TF.FilePolarity,Positive*%
%FSLAX46Y46*%
G04 Gerber Fmt 4.6, Leading zero omitted, Abs format (unit mm)*
G04 Created by KiCad (PCBNEW 7.0.8-7.0.8~ubuntu20.04.1) date 2023-10-09 21:02:50*
%MOMM*%
%LPD*%
G01*
G04 APERTURE LIST*
G04 Aperture macros list*
%AMRoundRect*
0 Rectangle with rounded corners*
0 $1 Rounding radius*
0 $2 $3 $4 $5 $6 $7 $8 $9 X,Y pos of 4 corners*
0 Add a 4 corners polygon primitive as box body*
4,1,4,$2,$3,$4,$5,$6,$7,$8,$9,$2,$3,0*
0 Add four circle primitives for the rounded corners*
1,1,$1+$1,$2,$3*
1,1,$1+$1,$4,$5*
1,1,$1+$1,$6,$7*
1,1,$1+$1,$8,$9*
0 Add four rect primitives between the rounded corners*
20,1,$1+$1,$2,$3,$4,$5,0*
20,1,$1+$1,$4,$5,$6,$7,0*
20,1,$1+$1,$6,$7,$8,$9,0*
20,1,$1+$1,$8,$9,$2,$3,0*%
G04 Aperture macros list end*
%TA.AperFunction,ComponentPad*%
%ADD10C,2.400000*%
%TD*%
%TA.AperFunction,ComponentPad*%
%ADD11O,2.400000X2.400000*%
%TD*%
%TA.AperFunction,ComponentPad*%
%ADD12R,2.400000X2.400000*%
%TD*%
%TA.AperFunction,ComponentPad*%
%ADD13C,7.500000*%
%TD*%
%TA.AperFunction,ComponentPad*%
%ADD14R,2.800000X2.800000*%
%TD*%
%TA.AperFunction,ComponentPad*%
%ADD15O,2.800000X2.800000*%
%TD*%
%TA.AperFunction,ComponentPad*%
%ADD16C,5.200000*%
%TD*%
%TA.AperFunction,ComponentPad*%
%ADD17C,3.200000*%
%TD*%
%TA.AperFunction,ComponentPad*%
%ADD18RoundRect,0.250001X0.799999X0.799999X-0.799999X0.799999X-0.799999X-0.799999X0.799999X-0.799999X0*%
%TD*%
%TA.AperFunction,ComponentPad*%
%ADD19C,2.100000*%
%TD*%
%TA.AperFunction,ComponentPad*%
%ADD20C,2.600000*%
%TD*%
%TA.AperFunction,Conductor*%
%ADD21C,4.000000*%
%TD*%
%TA.AperFunction,Conductor*%
%ADD22C,2.000000*%
%TD*%
G04 APERTURE END LIST*
D10*
%TO.P,R1,1*%
%TO.N,Net-(L3-Pad2)*%
X66060000Y-57640000D03*
D11*
%TO.P,R1,2*%
%TO.N,Net-(J2-Pin_2)*%
X66060000Y-118600000D03*
%TD*%
D12*
%TO.P,C2,1*%
%TO.N,Net-(J2-Pin_1)*%
X91440000Y-121440000D03*
D11*
%TO.P,C2,2*%
%TO.N,Net-(C2-Pad2)*%
X91440000Y-61440000D03*
%TD*%
D13*
%TO.P,H4,1*%
%TO.N,N/C*%
X48200000Y-174940000D03*
%TD*%
%TO.P,H3,1*%
%TO.N,N/C*%
X48200000Y-47440000D03*
%TD*%
%TO.P,H1,1*%
%TO.N,N/C*%
X160440000Y-174940000D03*
%TD*%
D14*
%TO.P,C3,1*%
%TO.N,Net-(C3-Pad1)*%
X61880000Y-133840000D03*
D15*
%TO.P,C3,2*%
%TO.N,Net-(J2-Pin_1)*%
X110880000Y-133840000D03*
%TD*%
D16*
%TO.P,L1,1,1*%
%TO.N,Net-(J1-Pin_1)*%
X46490000Y-157440000D03*
%TO.P,L1,2,2*%
%TO.N,Net-(J2-Pin_4)*%
X70390000Y-157440000D03*
%TD*%
D14*
%TO.P,C1,1*%
%TO.N,Net-(J2-Pin_2)*%
X108500000Y-159240000D03*
D15*
%TO.P,C1,2*%
%TO.N,Net-(J1-Pin_1)*%
X157500000Y-159240000D03*
%TD*%
D13*
%TO.P,H2,1*%
%TO.N,N/C*%
X160440001Y-47190000D03*
%TD*%
D17*
%TO.P,L3,1,1*%
%TO.N,Net-(C2-Pad2)*%
X137180000Y-94595000D03*
%TO.P,L3,2,2*%
%TO.N,Net-(L3-Pad2)*%
X137180000Y-61325000D03*
%TD*%
D18*
%TO.P,J1,1,Pin_1*%
%TO.N,Net-(J1-Pin_1)*%
X82740001Y-159440000D03*
D19*
%TO.P,J1,2,Pin_2*%
%TO.N,Net-(J1-Pin_2)*%
X78140001Y-159440000D03*
%TD*%
D10*
%TO.P,R2,1*%
%TO.N,Net-(J1-Pin_2)*%
X50820000Y-57640000D03*
D11*
%TO.P,R2,2*%
%TO.N,Net-(C3-Pad1)*%
X50820000Y-118600000D03*
%TD*%
D18*
%TO.P,J2,1,Pin_1*%
%TO.N,Net-(J2-Pin_1)*%
X103951000Y-159297000D03*
D19*
%TO.P,J2,2,Pin_2*%
%TO.N,Net-(J2-Pin_2)*%
X99351000Y-159297000D03*
%TO.P,J2,3,Pin_3*%
X94751000Y-159297000D03*
%TO.P,J2,4,Pin_4*%
%TO.N,Net-(J2-Pin_4)*%
X90151000Y-159297000D03*
%TD*%
D20*
%TO.P,L2,1,1*%
%TO.N,Net-(J1-Pin_2)*%
X134640000Y-113140000D03*
%TO.P,L2,2,2*%
%TO.N,Net-(J2-Pin_2)*%
X134640000Y-139300000D03*
%TD*%
D21*
%TO.N,Net-(J2-Pin_2)*%
X134640000Y-149776000D02*
X134640000Y-139299999D01*
X125176000Y-159240000D02*
X134640000Y-149776000D01*
X111160000Y-162380000D02*
X114300000Y-159240000D01*
X99351000Y-164101000D02*
X99440000Y-164190000D01*
X108500000Y-162380000D02*
X111160000Y-162380000D01*
X99351000Y-159297000D02*
X99351000Y-156471000D01*
X66060000Y-118600000D02*
X66060000Y-123180000D01*
X94751000Y-155628000D02*
X94751000Y-159297000D01*
X94751000Y-162501000D02*
X96440000Y-164190000D01*
X108500000Y-162380000D02*
X108500000Y-159240000D01*
X96440000Y-164190000D02*
X99440000Y-164190000D01*
X99440000Y-164190000D02*
X106690000Y-164190000D01*
X108500000Y-159240000D02*
X114300000Y-159240000D01*
X66060000Y-126937000D02*
X94751000Y-155628000D01*
X99351000Y-159297000D02*
X99351000Y-164101000D01*
X114300000Y-159240000D02*
X125176000Y-159240000D01*
X66060000Y-123180000D02*
X66060000Y-126937000D01*
X106690000Y-164190000D02*
X108500000Y-162380000D01*
X99351000Y-156471000D02*
X66060000Y-123180000D01*
X94751000Y-159297000D02*
X94751000Y-162501000D01*
%TO.N,Net-(J1-Pin_1)*%
X82740001Y-164389999D02*
X78440000Y-168690000D01*
X82740001Y-161440000D02*
X82740001Y-165990001D01*
X148050000Y-168690000D02*
X157500000Y-159240001D01*
X82740001Y-165990001D02*
X85440000Y-168690000D01*
X46490000Y-157440000D02*
X46490000Y-157490000D01*
X85440000Y-168690000D02*
X148050000Y-168690000D01*
X82740001Y-159440000D02*
X82740001Y-161440000D01*
X46490000Y-157490000D02*
X57690000Y-168690000D01*
D22*
X157500000Y-159240000D02*
X157500000Y-159240001D01*
D21*
X82740001Y-161440000D02*
X82740001Y-164389999D01*
X78440000Y-168690000D02*
X85440000Y-168690000D01*
X57690000Y-168690000D02*
X78440000Y-168690000D01*
%TO.N,Net-(C3-Pad1)*%
X50820000Y-123433000D02*
X61227000Y-133839999D01*
X50820000Y-123433000D02*
X50820000Y-118600000D01*
X61227000Y-133839999D02*
X61880000Y-133840000D01*
%TO.N,Net-(J1-Pin_2)*%
X46058000Y-110440000D02*
X46058000Y-125895510D01*
X78140002Y-157977511D02*
X78140002Y-159440000D01*
X51606000Y-105988000D02*
X46058000Y-100440000D01*
X62575000Y-105988000D02*
X50510000Y-105988000D01*
X50510000Y-105988000D02*
X46058000Y-110440000D01*
X50820000Y-57640000D02*
X46058000Y-62402000D01*
X46058000Y-62402000D02*
X46058000Y-100440000D01*
X46058000Y-110440000D02*
X48440000Y-108058000D01*
X127488000Y-105988000D02*
X134640000Y-113140000D01*
X46058000Y-125895510D02*
X78140002Y-157977511D01*
X62575000Y-105988000D02*
X127488000Y-105988000D01*
X62575000Y-105988000D02*
X51606000Y-105988000D01*
X46058000Y-100440000D02*
X46058000Y-110440000D01*
X48440000Y-108058000D02*
X48440000Y-105440000D01*
%TO.N,Net-(L3-Pad2)*%
X68383000Y-55317001D02*
X131172000Y-55317000D01*
X131172000Y-55317000D02*
X137180000Y-61325000D01*
X66060000Y-57640000D02*
X68383000Y-55317001D01*
%TD*%
M02*
