<?xml version="1.0" encoding="UTF-8"?>
<svg version="1.1" xmlns:inkscape="http://www.inkscape.org/namespaces/inkscape" height="226.772pt" xmlns="http://www.w3.org/2000/svg" xmlns:xlink="http://www.w3.org/1999/xlink" viewBox="0 0 538.583 226.772" width="538.583pt">
 <defs>
  <path id="GlRobotoSlab-Light27" d="M0.371094 10 L0.371094 9.57516 L1.16703 9.51172 L1.16703 3.38375 L0.371094 3.32031 L0.371094 2.89063 L1.16703 2.89063 L3.21781 2.89063 C3.95677 2.89063 4.53292 3.04609 4.94625 3.35703 C5.35969 3.66786 5.56641 4.13578 5.56641 4.76078 C5.56641 5.13182 5.46141 5.45328 5.25141 5.72516 C5.04151 5.99693 4.75266 6.18 4.38484 6.27438 C4.67776 6.32323 4.93568 6.43068 5.15859 6.59672 C5.38161 6.76266 5.55578 6.96854 5.68109 7.21438 C5.80651 7.4601 5.86922 7.72781 5.86922 8.0175 C5.86922 8.65552 5.66328 9.14547 5.25141 9.48734 C4.83964 9.82911 4.29036 10 3.60359 10 L0.371094 10 L0.371094 10 Z M1.75297 9.51172 L3.60359 9.51172 C4.12766 9.51172 4.53859 9.38151 4.83641 9.12109 C5.13432 8.86068 5.28328 8.49609 5.28328 8.02734 C5.28328 7.74411 5.22302 7.49266 5.1025 7.27297 C4.98208 7.05318 4.80307 6.88146 4.56547 6.75781 C4.32786 6.63406 4.03812 6.57219 3.69625 6.57219 L1.75297 6.57219 L1.75297 9.51172 L1.75297 9.51172 Z M1.75297 6.07906 L3.38875 6.07906 C3.89656 6.07906 4.28797 5.96516 4.56297 5.73734 C4.83807 5.50943 4.97562 5.1774 4.97562 4.74125 C4.97562 4.28875 4.82667 3.94937 4.52875 3.72312 C4.23094 3.49688 3.79396 3.38375 3.21781 3.38375 L1.75297 3.38375 L1.75297 6.07906 Z"/>
  <path id="GlRobotoSlab-Light290" d="M2.79297 10.1025 C2.31776 10.1025 1.90516 9.98938 1.55516 9.76313 C1.20526 9.53688 0.933438 9.22276 0.739688 8.82078 C0.546042 8.4188 0.449219 7.95901 0.449219 7.44141 L0.449219 7.28031 C0.449219 6.76271 0.546042 6.3037 0.739688 5.90328 C0.933438 5.50286 1.20526 5.18875 1.55516 4.96094 C1.90516 4.73302 2.31453 4.61906 2.78328 4.61906 C3.25526 4.61906 3.6662 4.73302 4.01609 4.96094 C4.36609 5.18875 4.63792 5.50208 4.83156 5.90094 C5.02521 6.29969 5.12203 6.75948 5.12203 7.28031 L5.12203 7.44141 C5.12203 7.96224 5.02521 8.42286 4.83156 8.82328 C4.63792 9.22359 4.36609 9.53688 4.01609 9.76313 C3.6662 9.98938 3.25849 10.1025 2.79297 10.1025 L2.79297 10.1025 Z M2.79297 9.61422 C3.15432 9.61422 3.46521 9.51823 3.72562 9.32625 C3.98604 9.13417 4.1862 8.87375 4.32609 8.545 C4.46609 8.21615 4.53609 7.84828 4.53609 7.44141 L4.53609 7.28031 C4.53609 6.87667 4.46609 6.51047 4.32609 6.18172 C4.1862 5.85286 3.98521 5.59245 3.72313 5.40047 C3.46115 5.20839 3.14786 5.11234 2.78328 5.11234 C2.4187 5.11234 2.10536 5.20839 1.84328 5.40047 C1.5812 5.59245 1.38099 5.85286 1.24266 6.18172 C1.10432 6.51047 1.03516 6.87667 1.03516 7.28031 L1.03516 7.44141 C1.03516 7.85151 1.10432 8.22016 1.24266 8.54734 C1.38099 8.87453 1.5812 9.13417 1.84328 9.32625 C2.10536 9.51823 2.42193 9.61422 2.79297 9.61422 Z"/>
  <path id="GlRobotoSlab-Light272" d="M0.307656 10 L0.307656 9.57516 L1.10359 9.51172 L1.10359 2.87594 L0.307656 2.8125 L0.307656 2.38281 L1.68953 2.38281 L1.68953 9.51172 L2.48531 9.57516 L2.48531 10 L0.307656 10 L0.307656 10 Z M3.71094 10 L3.71094 9.57516 L4.29203 9.54594 L4.28719 9.52141 L2.53422 7.15328 L2.86625 6.70891 L4.99516 9.52141 L5.65437 9.57516 L5.65437 10 L3.71094 10 L3.71094 10 Z M1.63094 8.38375 L1.42094 7.89547 L4.02344 5.205 L4.02828 5.17578 L3.45219 5.14641 L3.45219 4.71672 L5.34672 4.71672 L5.34672 5.14641 L4.71188 5.205 L1.63094 8.38375 Z"/>
  <path id="GlRobotoSlab-Light322" d="M2.43656 10.1025 C2.06542 10.1025 1.72115 10.0529 1.40375 9.95359 C1.08646 9.85432 0.787813 9.71026 0.507813 9.52141 L0.502969 8.4375 L0.981406 8.4375 L1.06453 9.21391 C1.25328 9.36036 1.46323 9.46615 1.69437 9.53125 C1.92552 9.59635 2.17292 9.62891 2.43656 9.62891 C2.87927 9.62891 3.21615 9.53286 3.44719 9.34078 C3.67833 9.1487 3.79391 8.92083 3.79391 8.65719 C3.79391 8.40979 3.69057 8.19089 3.48391 8.00047 C3.27724 7.81005 2.91021 7.65625 2.38281 7.53906 C1.75135 7.40229 1.29479 7.22 1.01313 6.99219 C0.731563 6.76427 0.590781 6.44688 0.590781 6.04 C0.590781 5.77313 0.665625 5.53229 0.815312 5.3175 C0.965104 5.1026 1.17755 4.9325 1.45266 4.80719 C1.72776 4.68177 2.05083 4.61906 2.42188 4.61906 C2.80927 4.61906 3.1462 4.67526 3.43266 4.78766 C3.71911 4.89995 3.9649 5.05047 4.17 5.23922 L4.19437 6.32328 L3.71578 6.32328 L3.6475 5.54203 C3.50104 5.40203 3.33016 5.2938 3.13484 5.21734 C2.93953 5.14078 2.70188 5.1025 2.42188 5.1025 C2.02479 5.1025 1.7188 5.19448 1.50391 5.37844 C1.28911 5.56229 1.18172 5.7763 1.18172 6.02047 C1.18172 6.17995 1.21505 6.31911 1.28172 6.43797 C1.34849 6.55682 1.47708 6.66344 1.6675 6.75781 C1.85792 6.85219 2.13542 6.94172 2.5 7.02641 C3.16083 7.17609 3.63932 7.3787 3.93547 7.63422 C4.23172 7.88974 4.37984 8.22099 4.37984 8.62797 C4.37984 9.05766 4.21302 9.41083 3.87938 9.6875 C3.54573 9.96417 3.06479 10.1025 2.43656 10.1025 Z"/>
  <path id="GlRobotoSlab-Light252" d="M0.273438 10 L0.273438 9.57516 L1.06937 9.51172 L1.06937 2.87594 L0.273438 2.8125 L0.273438 2.38281 L1.65531 2.38281 L1.65531 5.63969 C1.82781 5.3174 2.05974 5.06672 2.35109 4.88766 C2.64245 4.70859 2.98505 4.61906 3.37891 4.61906 C3.93557 4.61906 4.36281 4.79078 4.66063 5.13422 C4.95854 5.47766 5.1075 6.01396 5.1075 6.74313 L5.1075 9.51172 L5.90328 9.57516 L5.90328 10 L3.72562 10 L3.72562 9.57516 L4.52156 9.51172 L4.52156 6.73344 C4.52156 6.15719 4.40922 5.74458 4.18453 5.49562 C3.95995 5.24656 3.64745 5.12203 3.24703 5.12203 C2.81734 5.12203 2.47146 5.2425 2.20938 5.48344 C1.9474 5.72427 1.76271 6.03677 1.65531 6.42094 L1.65531 9.51172 L2.45125 9.57516 L2.45125 10 L0.273438 10 Z"/>
  <path id="GlRobotoSlab-Light227" d="M2.75875 10.1025 C2.30635 10.1025 1.9076 9.99266 1.5625 9.77297 C1.2175 9.55318 0.947344 9.2488 0.752031 8.85984 C0.556719 8.47089 0.459062 8.0225 0.459062 7.51469 L0.459062 7.24609 C0.459062 6.74151 0.556719 6.29146 0.752031 5.89594 C0.947344 5.50042 1.21182 5.18875 1.54547 4.96094 C1.87911 4.73302 2.25099 4.61906 2.66109 4.61906 C3.09411 4.61906 3.46443 4.71188 3.77203 4.8975 C4.07964 5.08302 4.31562 5.34427 4.48 5.68125 C4.64438 6.01812 4.72656 6.41443 4.72656 6.87016 L4.72656 7.36813 L1.06453 7.36813 L1.05469 7.58297 C1.05792 7.97359 1.13031 8.32193 1.27188 8.62797 C1.41354 8.93391 1.61214 9.17479 1.86766 9.35063 C2.12318 9.52635 2.42021 9.61422 2.75875 9.61422 C3.09083 9.61422 3.38302 9.56135 3.63531 9.45562 C3.8876 9.34979 4.10974 9.20573 4.30172 9.02344 L4.55078 9.42375 C4.34568 9.61906 4.09745 9.78104 3.80609 9.90969 C3.51484 10.0382 3.16573 10.1025 2.75875 10.1025 L2.75875 10.1025 Z M1.10359 6.87984 L4.14063 6.87984 L4.14063 6.73344 C4.14063 6.42417 4.0812 6.14667 3.96234 5.90094 C3.84359 5.6551 3.67432 5.46224 3.45453 5.32234 C3.23484 5.18234 2.97036 5.11234 2.66109 5.11234 C2.3812 5.11234 2.12891 5.18802 1.90422 5.33937 C1.67964 5.49073 1.49656 5.69745 1.355 5.95953 C1.21344 6.22151 1.12635 6.51854 1.09375 6.85062 L1.10359 6.87984 Z"/>
  <path id="GlRobotoSlab-Light275" d="M0.361406 10 L0.361406 9.57516 L1.15719 9.51172 L1.15719 2.87594 L0.361406 2.8125 L0.361406 2.38281 L1.74313 2.38281 L1.74313 9.51172 L2.53906 9.57516 L2.53906 10 L0.361406 10 Z"/>
  <path id="GlRobotoSlab-Light246" d="M0.459062 10 L0.459062 9.57516 L1.25484 9.51172 L1.25484 5.19047 L0.375938 5.19047 L0.375938 4.71672 L1.25484 4.71672 L1.25484 3.94047 C1.25484 3.41307 1.3875 3.00453 1.65281 2.71484 C1.91813 2.42516 2.29005 2.28031 2.76859 2.28031 C2.87922 2.28031 2.99229 2.28766 3.10781 2.30234 C3.22344 2.31693 3.33984 2.34047 3.45703 2.37297 L3.37891 2.84672 C3.29755 2.82714 3.21208 2.81167 3.1225 2.80031 C3.03302 2.78885 2.93458 2.78313 2.82719 2.78313 C2.50813 2.78313 2.26396 2.88406 2.09469 3.08594 C1.92542 3.28771 1.84078 3.57255 1.84078 3.94047 L1.84078 4.71672 L3.125 4.71672 L3.125 5.19047 L1.84078 5.19047 L1.84078 9.51172 L2.68562 9.57516 L2.68562 10 L0.459062 10 Z"/>
  <path id="GlRobotoSlab-Light1008" d=""/>
  <path id="GlRobotoSlab-Light907" d="M0.556719 10 L0.556719 9.57516 L1.83594 9.51172 L1.83594 3.49609 L0.429688 3.70609 L0.429688 3.29594 L2.42188 2.87109 L2.42188 9.51172 L3.69625 9.57516 L3.69625 10 L0.556719 10 Z"/>
  <path id="GlSeravek-ExtraLightItalic66" d="M0.44 8.49 C0.44 8.08333 0.498333 7.68 0.615 7.28 C0.731667 6.88 0.905 6.52333 1.135 6.21 C1.365 5.89667 1.645 5.64333 1.975 5.45 C2.305 5.25667 2.68667 5.16 3.12 5.16 C3.35333 5.16 3.58167 5.18 3.805 5.22 C4.02833 5.26 4.24667 5.31667 4.46 5.39 L3.65 10 L3.25 10 L3.58 8.1 C3.49333 8.29333 3.385 8.50667 3.255 8.74 C3.125 8.97333 2.975 9.19 2.805 9.39 C2.635 9.59 2.44833 9.75833 2.245 9.895 C2.04167 10.0317 1.82667 10.1 1.6 10.1 C1.42 10.1 1.25833 10.0567 1.115 9.97 C0.971667 9.88333 0.85 9.76667 0.75 9.62 C0.65 9.47333 0.573333 9.30333 0.52 9.11 C0.466667 8.91667 0.44 8.71 0.44 8.49 L0.44 8.49 Z M3.09 5.52 C2.73 5.52 2.41167 5.60667 2.135 5.78 C1.85833 5.95333 1.625 6.18 1.435 6.46 C1.245 6.74 1.1 7.055 1 7.405 C0.9 7.755 0.85 8.10667 0.85 8.46 C0.85 8.84 0.915 9.14833 1.045 9.385 C1.175 9.62167 1.37 9.74 1.63 9.74 C1.84333 9.74 2.05 9.655 2.25 9.485 C2.45 9.315 2.64 9.09667 2.82 8.83 C3 8.56333 3.16667 8.27167 3.32 7.955 C3.47333 7.63833 3.61667 7.33333 3.75 7.04 L3.99 5.68 C3.71 5.57333 3.41 5.52 3.09 5.52 Z"/>
  <path id="GlSeravek-ExtraLightItalic1" d=""/>
  <path id="GlRoboto-Black48" d="M2.25094 8.68156 L5.23438 8.68156 L5.23438 10 L0.537188 10 L0.537188 2.89063 L2.25094 2.89063 L2.25094 8.68156 Z"/>
  <path id="GlRoboto-Black93" d="M2.57328 7.69531 L3.45219 4.71672 L5.21484 4.71672 L3.06156 10.8837 L2.96875 11.1084 C2.66281 11.792 2.12245 12.1337 1.34766 12.1337 C1.13286 12.1337 0.906615 12.1012 0.668906 12.0361 L0.668906 10.8594 L0.88375 10.8594 C1.1149 10.8594 1.29151 10.826 1.41359 10.7592 C1.53568 10.6926 1.62599 10.573 1.68453 10.4005 L1.81641 10.0489 L-0.0195313 4.71672 L1.73828 4.71672 L2.57328 7.69531 Z"/>
  <path id="GlRoboto-Black72" d="M0.253906 7.31937 C0.253906 6.48271 0.434583 5.82349 0.795937 5.34172 C1.15729 4.85995 1.66182 4.61906 2.30953 4.61906 C2.78161 4.61906 3.17875 4.80464 3.50094 5.17578 L3.50094 2.5 L5.15141 2.5 L5.15141 10 L3.67188 10 L3.58891 9.43359 C3.25036 9.8763 2.82068 10.0977 2.29984 10.0977 C1.67161 10.0977 1.17354 9.85677 0.805625 9.375 C0.437812 8.89323 0.253906 8.20802 0.253906 7.31937 L0.253906 7.31937 Z M1.89938 7.42188 C1.89938 8.35938 2.17281 8.82813 2.71969 8.82813 C3.08427 8.82813 3.34469 8.6751 3.50094 8.36906 L3.50094 6.35734 C3.35125 6.04484 3.09411 5.88859 2.72953 5.88859 C2.22172 5.88859 1.94667 6.29875 1.90437 7.11906 L1.89938 7.42188 Z"/>
  <path id="GlRoboto-Black4" d=""/>
  <path id="GlRoboto-Black70" d="M5.36625 7.40234 C5.36625 8.26818 5.18719 8.93385 4.82906 9.39937 C4.47104 9.8649 3.96651 10.0977 3.31547 10.0977 C2.77839 10.0977 2.34542 9.88443 2.01656 9.45797 L1.94828 10 L0.473594 10 L0.473594 2.5 L2.11922 2.5 L2.11922 5.14156 C2.42516 4.79323 2.82063 4.61906 3.30563 4.61906 C3.96323 4.61906 4.47104 4.8551 4.82906 5.32719 C5.18719 5.79917 5.36625 6.46323 5.36625 7.31937 L5.36625 7.40234 L5.36625 7.40234 Z M3.71578 7.29984 C3.71578 6.79203 3.64823 6.4299 3.51313 6.21344 C3.37813 5.99688 3.17063 5.88859 2.89063 5.88859 C2.51958 5.88859 2.26245 6.03021 2.11922 6.31344 L2.11922 8.41313 C2.25911 8.69302 2.51953 8.83297 2.90047 8.83297 C3.28776 8.83297 3.53349 8.64417 3.63766 8.26656 C3.68974 8.08104 3.71578 7.7588 3.71578 7.29984 Z"/>
  <path id="GlRoboto-Black40" d="M0.537188 10 L0.537188 2.89063 L2.82719 2.89063 C3.45542 2.89063 4.02016 3.03307 4.52141 3.31797 C5.02276 3.60276 5.41422 4.00474 5.69578 4.52391 C5.97734 5.04307 6.11979 5.62495 6.12312 6.26953 L6.12312 6.59672 C6.12312 7.24776 5.98557 7.83125 5.71047 8.34719 C5.43536 8.86313 5.04797 9.26677 4.54828 9.55813 C4.0487 9.84948 3.49125 9.99677 2.87594 10 L0.537188 10 L0.537188 10 Z M2.25094 4.21391 L2.25094 8.68156 L2.84672 8.68156 C3.33828 8.68156 3.71589 8.50661 3.97953 8.15672 C4.24318 7.80682 4.375 7.28682 4.375 6.59672 L4.375 6.28906 C4.375 5.60219 4.24318 5.08464 3.97953 4.73641 C3.71589 4.38807 3.33177 4.21391 2.82719 4.21391 L2.25094 4.21391 Z"/>
  <path id="GlRoboto-Black77" d="M2.19734 10 L0.546875 10 L0.546875 4.71672 L2.19734 4.71672 L2.19734 10 L2.19734 10 Z M0.449219 3.35453 C0.449219 3.12016 0.533854 2.92812 0.703125 2.77844 C0.872396 2.62865 1.09214 2.55375 1.36234 2.55375 C1.63255 2.55375 1.85229 2.62865 2.02156 2.77844 C2.19083 2.92812 2.27547 3.12016 2.27547 3.35453 C2.27547 3.58891 2.19083 3.78099 2.02156 3.93078 C1.85229 4.08047 1.63255 4.15531 1.36234 4.15531 C1.09214 4.15531 0.872396 4.08047 0.703125 3.93078 C0.533854 3.78099 0.449219 3.58891 0.449219 3.35453 Z"/>
  <path id="GlRoboto-Black87" d="M3.2275 8.51563 C3.2275 8.37562 3.15427 8.26333 3.00781 8.17875 C2.86135 8.09406 2.58302 8.00615 2.17281 7.915 C1.76271 7.82385 1.42417 7.70422 1.15719 7.55609 C0.890313 7.40797 0.686875 7.22813 0.546875 7.01656 C0.406875 6.805 0.336875 6.5625 0.336875 6.28906 C0.336875 5.80406 0.537083 5.40448 0.9375 5.09031 C1.33792 4.77615 1.86203 4.61906 2.50984 4.61906 C3.20641 4.61906 3.76625 4.77698 4.18938 5.09281 C4.6126 5.40854 4.82422 5.82354 4.82422 6.33781 L3.17391 6.33781 C3.17391 5.91469 2.95089 5.70313 2.50484 5.70313 C2.33234 5.70313 2.1875 5.75115 2.07031 5.84719 C1.95313 5.94323 1.89453 6.06286 1.89453 6.20609 C1.89453 6.35255 1.96615 6.47135 2.10938 6.5625 C2.2526 6.65365 2.48125 6.72854 2.79531 6.78719 C3.10948 6.84573 3.38542 6.91568 3.62312 6.99703 C4.4174 7.27047 4.81453 7.76036 4.81453 8.46672 C4.81453 8.94849 4.60047 9.34078 4.17234 9.64359 C3.74432 9.9463 3.19016 10.0977 2.50984 10.0977 C2.05734 10.0977 1.65365 10.0163 1.29875 9.85359 C0.943958 9.69078 0.667292 9.46943 0.46875 9.18953 C0.270208 8.90953 0.170937 8.6149 0.170937 8.30562 L1.70906 8.30562 C1.71552 8.54979 1.79688 8.72802 1.95313 8.84031 C2.10938 8.9526 2.30958 9.00875 2.55375 9.00875 C2.77833 9.00875 2.94677 8.96318 3.05906 8.87203 C3.17135 8.78089 3.2275 8.66208 3.2275 8.51563 Z"/>
  <path id="GlRoboto-Black82" d="M1.97266 4.71672 L2.02641 5.33688 C2.39099 4.85833 2.89391 4.61906 3.53516 4.61906 C4.08526 4.61906 4.4962 4.78349 4.76797 5.11234 C5.03984 5.44109 5.18068 5.93589 5.19047 6.59672 L5.19047 10 L3.54 10 L3.54 6.665 C3.54 6.39813 3.4863 6.20203 3.37891 6.07672 C3.27151 5.9513 3.0762 5.88859 2.79297 5.88859 C2.47068 5.88859 2.23141 6.01557 2.07516 6.26953 L2.07516 10 L0.429688 10 L0.429688 4.71672 L1.97266 4.71672 Z"/>
  <path id="GlRoboto-Black75" d="M0.268594 7.31937 C0.268594 6.78552 0.356458 6.31354 0.532188 5.90344 C0.708021 5.49323 0.960313 5.17661 1.28906 4.95359 C1.61781 4.73057 2.00031 4.61906 2.43656 4.61906 C2.98667 4.61906 3.41635 4.80464 3.72562 5.17578 L3.78422 4.71672 L5.27828 4.71672 L5.27828 9.79984 C5.27828 10.2654 5.17005 10.6698 4.95359 11.0131 C4.73714 11.3566 4.4238 11.6203 4.01359 11.8042 C3.60349 11.9882 3.12828 12.0802 2.58797 12.0802 C2.20057 12.0802 1.82536 12.0069 1.46234 11.8603 C1.09943 11.7139 0.821927 11.5234 0.629844 11.2891 L1.31844 10.3223 C1.62438 10.6836 2.02802 10.8642 2.52937 10.8642 C3.25854 10.8642 3.62312 10.4899 3.62312 9.74125 L3.62312 9.57516 C3.30729 9.92349 2.90849 10.0977 2.42672 10.0977 C1.78224 10.0977 1.26141 9.85109 0.864219 9.35797 C0.467135 8.86474 0.268594 8.20474 0.268594 7.37797 L0.268594 7.31937 L0.268594 7.31937 Z M1.91891 7.42188 C1.91891 7.85479 2.00026 8.1974 2.16297 8.44969 C2.32578 8.70198 2.5537 8.82813 2.84672 8.82813 C3.20151 8.82813 3.46031 8.70932 3.62312 8.47172 L3.62312 6.25 C3.46354 6.00906 3.20797 5.88859 2.85641 5.88859 C2.56349 5.88859 2.33401 6.01964 2.16797 6.28172 C2.00193 6.5438 1.91891 6.92385 1.91891 7.42188 Z"/>
  <path id="GlSeravek-ExtraLightItalic81" d="M4.56 6.78 C4.56 7.14667 4.50333 7.52667 4.39 7.92 C4.27667 8.31333 4.10833 8.67167 3.885 8.995 C3.66167 9.31833 3.38167 9.58333 3.045 9.79 C2.70833 9.99667 2.31667 10.1 1.87 10.1 C1.65667 10.1 1.46667 10.0833 1.3 10.05 C1.13333 10.0167 0.976667 9.97333 0.83 9.92 L0.46 12.06 L0.04 12.06 L1.23 5.26 L1.63 5.26 L1.34 6.93 C1.42667 6.74333 1.54 6.54667 1.68 6.34 C1.82 6.13333 1.97667 5.94333 2.15 5.77 C2.32333 5.59667 2.515 5.45167 2.725 5.335 C2.935 5.21833 3.15667 5.16 3.39 5.16 C3.75 5.16 4.035 5.30667 4.245 5.6 C4.455 5.89333 4.56 6.28667 4.56 6.78 L4.56 6.78 Z M1.85 9.74 C2.22333 9.74 2.55167 9.65333 2.835 9.48 C3.11833 9.30667 3.35667 9.08 3.55 8.8 C3.74333 8.52 3.89 8.205 3.99 7.855 C4.09 7.505 4.14 7.15667 4.14 6.81 C4.14 6.42333 4.07167 6.11167 3.935 5.875 C3.79833 5.63833 3.59667 5.52 3.33 5.52 C3.11667 5.52 2.90667 5.59167 2.7 5.735 C2.49333 5.87833 2.29833 6.06167 2.115 6.285 C1.93167 6.50833 1.76167 6.76 1.605 7.04 C1.44833 7.32 1.31 7.59667 1.19 7.87 L0.89 9.57 C1.19667 9.68333 1.51667 9.74 1.85 9.74 Z"/>
  <path id="GlSeravek-ExtraLightItalic83" d="M3.27 5.6 L3.19 5.6 C2.95 5.6 2.73167 5.655 2.535 5.765 C2.33833 5.875 2.15833 6.03 1.995 6.23 C1.83167 6.43 1.685 6.66667 1.555 6.94 C1.425 7.21333 1.30667 7.51333 1.2 7.84 L0.82 10 L0.4 10 L1.23 5.26 L1.65 5.26 L1.35 6.99 C1.42333 6.73667 1.515 6.50333 1.625 6.29 C1.735 6.07667 1.86333 5.89167 2.01 5.735 C2.15667 5.57833 2.32 5.45667 2.5 5.37 C2.68 5.28333 2.87333 5.24 3.08 5.24 C3.16 5.24 3.23333 5.24667 3.3 5.26 L3.27 5.6 Z"/>
  <path id="GlSeravek-ExtraLightItalic80" d="M4.59 7.07 C4.59 7.41 4.53667 7.75833 4.43 8.115 C4.32333 8.47167 4.16667 8.79833 3.96 9.095 C3.75333 9.39167 3.49667 9.63333 3.19 9.82 C2.88333 10.0067 2.53 10.1 2.13 10.1 C1.87 10.1 1.63333 10.05 1.42 9.95 C1.20667 9.85 1.02667 9.71333 0.88 9.54 C0.733333 9.36667 0.62 9.165 0.54 8.935 C0.46 8.705 0.42 8.46 0.42 8.2 C0.42 7.84 0.471667 7.48 0.575 7.12 C0.678333 6.76 0.831667 6.435 1.035 6.145 C1.23833 5.855 1.49333 5.61833 1.8 5.435 C2.10667 5.25167 2.46667 5.16 2.88 5.16 C3.16 5.16 3.405 5.21333 3.615 5.32 C3.825 5.42667 4.00333 5.56833 4.15 5.745 C4.29667 5.92167 4.40667 6.125 4.48 6.355 C4.55333 6.585 4.59 6.82333 4.59 7.07 L4.59 7.07 Z M2.18 9.74 C2.49333 9.74 2.77333 9.65667 3.02 9.49 C3.26667 9.32333 3.475 9.11167 3.645 8.855 C3.815 8.59833 3.945 8.315 4.035 8.005 C4.125 7.695 4.17 7.39333 4.17 7.1 C4.17 6.88667 4.14 6.685 4.08 6.495 C4.02 6.305 3.93333 6.13667 3.82 5.99 C3.70667 5.84333 3.56667 5.72833 3.4 5.645 C3.23333 5.56167 3.04333 5.52 2.83 5.52 C2.51667 5.52 2.23667 5.59667 1.99 5.75 C1.74333 5.90333 1.535 6.105 1.365 6.355 C1.195 6.605 1.065 6.89 0.975 7.21 C0.885 7.53 0.84 7.85333 0.84 8.18 C0.84 8.39333 0.865 8.595 0.915 8.785 C0.965 8.975 1.04333 9.14 1.15 9.28 C1.25667 9.42 1.395 9.53167 1.565 9.615 C1.735 9.69833 1.94 9.74 2.18 9.74 Z"/>
  <path id="GlSeravek-ExtraLightItalic75" d="M1.09 8.81 C1.03 9.16333 0.948333 9.49833 0.845 9.815 C0.741667 10.1317 0.6 10.4317 0.42 10.715 C0.24 10.9983 0.0133333 11.26 -0.26 11.5 C-0.533333 11.74 -0.87 11.96 -1.27 12.16 L-1.47 11.84 C-1.13 11.6733 -0.838333 11.4867 -0.595 11.28 C-0.351667 11.0733 -0.146667 10.845 0.02 10.595 C0.186667 10.345 0.321667 10.0717 0.425 9.775 C0.528333 9.47833 0.61 9.15667 0.67 8.81 L1.3 5.26 L1.72 5.26 L1.09 8.81 L1.09 8.81 Z M1.42 3.74 C1.42 3.63333 1.455 3.54167 1.525 3.465 C1.595 3.38833 1.69 3.35 1.81 3.35 C1.91 3.35 1.98833 3.38 2.045 3.44 C2.10167 3.5 2.13 3.57 2.13 3.65 C2.13 3.77667 2.09 3.87333 2.01 3.94 C1.93 4.00667 1.83667 4.04 1.73 4.04 C1.63667 4.04 1.56167 4.01167 1.505 3.955 C1.44833 3.89833 1.42 3.82667 1.42 3.74 Z"/>
  <path id="GlSeravek-ExtraLightItalic70" d="M3.49 9.73 C3.29 9.84333 3.07333 9.93333 2.84 10 C2.60667 10.0667 2.36333 10.1 2.11 10.1 C1.81667 10.1 1.56333 10.0467 1.35 9.94 C1.13667 9.83333 0.961667 9.69333 0.825 9.52 C0.688333 9.34667 0.588333 9.145 0.525 8.915 C0.461667 8.685 0.43 8.45 0.43 8.21 C0.43 7.85 0.486667 7.49 0.6 7.13 C0.713333 6.77 0.876667 6.44333 1.09 6.15 C1.30333 5.85667 1.565 5.61833 1.875 5.435 C2.185 5.25167 2.53667 5.16 2.93 5.16 C3.25 5.16 3.52667 5.24833 3.76 5.425 C3.99333 5.60167 4.11 5.85 4.11 6.17 C4.11 6.39667 4.05667 6.59333 3.95 6.76 C3.84333 6.92667 3.7 7.07 3.52 7.19 C3.34 7.31 3.13667 7.40833 2.91 7.485 C2.68333 7.56167 2.45 7.62333 2.21 7.67 C1.97 7.71667 1.735 7.75 1.505 7.77 C1.275 7.79 1.06667 7.80333 0.88 7.81 C0.866667 7.87 0.856667 7.94333 0.85 8.03 C0.843333 8.11667 0.84 8.19333 0.84 8.26 C0.84 8.45333 0.863333 8.64 0.91 8.82 C0.956667 9 1.03167 9.15833 1.135 9.295 C1.23833 9.43167 1.37167 9.54 1.535 9.62 C1.69833 9.7 1.89667 9.74 2.13 9.74 C2.37 9.74 2.59 9.70833 2.79 9.645 C2.99 9.58167 3.19333 9.49333 3.4 9.38 L3.49 9.73 L3.49 9.73 Z M0.94 7.47 C1.16667 7.46333 1.43833 7.44333 1.755 7.41 C2.07167 7.37667 2.37333 7.31333 2.66 7.22 C2.94667 7.12667 3.19167 6.99667 3.395 6.83 C3.59833 6.66333 3.7 6.44333 3.7 6.17 C3.7 5.96333 3.62167 5.8 3.465 5.68 C3.30833 5.56 3.11333 5.5 2.88 5.5 C2.63333 5.5 2.40167 5.55667 2.185 5.67 C1.96833 5.78333 1.775 5.93333 1.605 6.12 C1.435 6.30667 1.29167 6.51833 1.175 6.755 C1.05833 6.99167 0.98 7.23 0.94 7.47 Z"/>
  <path id="GlSeravek-ExtraLightItalic68" d="M3.96 5.81 C3.76667 5.71667 3.58 5.645 3.4 5.595 C3.22 5.545 3.03333 5.52 2.84 5.52 C2.53333 5.52 2.25667 5.58833 2.01 5.725 C1.76333 5.86167 1.55167 6.04833 1.375 6.285 C1.19833 6.52167 1.06167 6.79833 0.965 7.115 C0.868333 7.43167 0.82 7.77333 0.82 8.14 C0.82 8.37333 0.846667 8.58667 0.9 8.78 C0.953333 8.97333 1.035 9.14167 1.145 9.285 C1.255 9.42833 1.39667 9.54 1.57 9.62 C1.74333 9.7 1.95 9.74 2.19 9.74 C2.41 9.74 2.61333 9.715 2.8 9.665 C2.98667 9.615 3.17667 9.54 3.37 9.44 L3.47 9.78 C3.05667 9.99333 2.61333 10.1 2.14 10.1 C1.86 10.1 1.61167 10.05 1.395 9.95 C1.17833 9.85 0.996667 9.71167 0.85 9.535 C0.703333 9.35833 0.591667 9.15 0.515 8.91 C0.438333 8.67 0.4 8.41333 0.4 8.14 C0.4 7.76 0.453333 7.39 0.56 7.03 C0.666667 6.67 0.825 6.35167 1.035 6.075 C1.245 5.79833 1.50167 5.57667 1.805 5.41 C2.10833 5.24333 2.45667 5.16 2.85 5.16 C3.05667 5.16 3.26833 5.185 3.485 5.235 C3.70167 5.285 3.89667 5.36333 4.07 5.47 L3.96 5.81 Z"/>
  <path id="GlSeravek-ExtraLightItalic85" d="M3.03 9.86 C2.90333 9.92667 2.74333 9.98333 2.55 10.03 C2.35667 10.0767 2.17333 10.1 2 10.1 C1.62667 10.1 1.34667 9.99667 1.16 9.79 C0.973333 9.58333 0.88 9.31 0.88 8.97 C0.88 8.90333 0.883333 8.83667 0.89 8.77 C0.896667 8.70333 0.906667 8.64 0.92 8.58 L1.44 5.61 L0.53 5.61 L0.59 5.26 L1.5 5.26 L1.72 4.05 L2.14 4.05 L1.92 5.26 L3.53 5.26 L3.47 5.61 L1.86 5.61 L1.34 8.58 C1.32667 8.64 1.31667 8.70333 1.31 8.77 C1.30333 8.83667 1.3 8.90333 1.3 8.97 C1.3 9.20333 1.355 9.39 1.465 9.53 C1.575 9.67 1.76333 9.74 2.03 9.74 C2.21 9.74 2.38 9.71833 2.54 9.675 C2.7 9.63167 2.84667 9.58 2.98 9.52 L3.03 9.86 Z"/>
 </defs>
 <g id="Baggrund" inkscape:groupmode="layer" inkscape:label="Baggrund">
  <g transform="translate(13.999, 19.9503)">
   <use style="fill:#5d5d5a;stroke:none;" transform="matrix(9.7 0 0 9.7 0.125 4.6416)" xlink:href="#GlRobotoSlab-Light27"/>
   <use style="fill:#5d5d5a;stroke:none;" transform="matrix(9.7 0 0 9.7 60.825 4.6416)" xlink:href="#GlRobotoSlab-Light290"/>
   <use style="fill:#5d5d5a;stroke:none;" transform="matrix(9.7 0 0 9.7 115.625 4.6416)" xlink:href="#GlRobotoSlab-Light290"/>
   <use style="fill:#5d5d5a;stroke:none;" transform="matrix(9.7 0 0 9.7 168.725 4.6416)" xlink:href="#GlRobotoSlab-Light272"/>
   <use style="fill:#5d5d5a;stroke:none;" transform="matrix(9.7 0 0 9.7 226.225 4.6416)" xlink:href="#GlRobotoSlab-Light322"/>
   <use style="fill:#5d5d5a;stroke:none;" transform="matrix(9.7 0 0 9.7 274.325 4.6416)" xlink:href="#GlRobotoSlab-Light252"/>
   <use style="fill:#5d5d5a;stroke:none;" transform="matrix(9.7 0 0 9.7 335.025 4.6416)" xlink:href="#GlRobotoSlab-Light227"/>
   <use style="fill:#5d5d5a;stroke:none;" transform="matrix(9.7 0 0 9.7 385.825 4.6416)" xlink:href="#GlRobotoSlab-Light275"/>
   <use style="fill:#5d5d5a;stroke:none;" transform="matrix(9.7 0 0 9.7 414.925 4.6416)" xlink:href="#GlRobotoSlab-Light246"/>
   <use style="fill:#5d5d5a;stroke:none;" transform="matrix(9.7 0 0 9.7 449.125 4.6416)" xlink:href="#GlRobotoSlab-Light1008"/>
   <use style="fill:#5d5d5a;stroke:none;" transform="matrix(9.7 0 0 9.7 472.725 4.6416)" xlink:href="#GlRobotoSlab-Light907"/>
   <path style="fill:none; stroke:none;" d="M0 0 L513 0 L513 139.049 L0 139.049 L0 0 Z"/>
  </g>
  <g transform="translate(12.999, 145.999)">
   <use style="fill:#5d5d5a;stroke:none;" transform="matrix(4.8 0 0 4.8 15.375 -3.6)" xlink:href="#GlSeravek-ExtraLightItalic66"/>
   <use style="fill:#5d5d5a;stroke:none;" transform="matrix(4.8 0 0 4.8 39.075 -3.6)" xlink:href="#GlSeravek-ExtraLightItalic1"/>
   <use style="fill:#5d5d5a;stroke:none;" transform="matrix(4.8 0 0 4.8 49.175 -3.6)" xlink:href="#GlRoboto-Black48"/>
   <use style="fill:#5d5d5a;stroke:none;" transform="matrix(4.8 0 0 4.8 72.275 -3.6)" xlink:href="#GlRoboto-Black93"/>
   <use style="fill:#5d5d5a;stroke:none;" transform="matrix(4.8 0 0 4.8 96.875 -3.6)" xlink:href="#GlRoboto-Black72"/>
   <use style="fill:#5d5d5a;stroke:none;" transform="matrix(4.8 0 0 4.8 123.875 -3.6)" xlink:href="#GlRoboto-Black4"/>
   <use style="fill:#5d5d5a;stroke:none;" transform="matrix(4.8 0 0 4.8 135.875 -3.6)" xlink:href="#GlRoboto-Black70"/>
   <use style="fill:#5d5d5a;stroke:none;" transform="matrix(4.8 0 0 4.8 162.575 -3.6)" xlink:href="#GlRoboto-Black93"/>
   <use style="fill:#5d5d5a;stroke:none;" transform="matrix(4.8 0 0 4.8 187.475 -3.6)" xlink:href="#GlRoboto-Black4"/>
   <use style="fill:#5d5d5a;stroke:none;" transform="matrix(4.8 0 0 4.8 199.475 -3.6)" xlink:href="#GlRoboto-Black40"/>
   <use style="fill:#5d5d5a;stroke:none;" transform="matrix(4.8 0 0 4.8 230.475 -3.6)" xlink:href="#GlRoboto-Black77"/>
   <use style="fill:#5d5d5a;stroke:none;" transform="matrix(4.8 0 0 4.8 243.675 -3.6)" xlink:href="#GlRoboto-Black87"/>
   <use style="fill:#5d5d5a;stroke:none;" transform="matrix(4.8 0 0 4.8 268.275 -3.6)" xlink:href="#GlRoboto-Black87"/>
   <use style="fill:#5d5d5a;stroke:none;" transform="matrix(4.8 0 0 4.8 292.875 -3.6)" xlink:href="#GlRoboto-Black77"/>
   <use style="fill:#5d5d5a;stroke:none;" transform="matrix(4.8 0 0 4.8 306.075 -3.6)" xlink:href="#GlRoboto-Black82"/>
   <use style="fill:#5d5d5a;stroke:none;" transform="matrix(4.8 0 0 4.8 333.175 -3.6)" xlink:href="#GlRoboto-Black75"/>
   <use style="fill:#5d5d5a;stroke:none;" transform="matrix(4.8 0 0 4.8 360.775 -3.6)" xlink:href="#GlSeravek-ExtraLightItalic1"/>
   <use style="fill:#5d5d5a;stroke:none;" transform="matrix(4.8 0 0 4.8 370.875 -3.6)" xlink:href="#GlSeravek-ExtraLightItalic81"/>
   <use style="fill:#5d5d5a;stroke:none;" transform="matrix(4.8 0 0 4.8 394.775 -3.6)" xlink:href="#GlSeravek-ExtraLightItalic83"/>
   <use style="fill:#5d5d5a;stroke:none;" transform="matrix(4.8 0 0 4.8 409.275 -3.6)" xlink:href="#GlSeravek-ExtraLightItalic80"/>
   <use style="fill:#5d5d5a;stroke:none;" transform="matrix(4.8 0 0 4.8 433.275 -3.6)" xlink:href="#GlSeravek-ExtraLightItalic75"/>
   <use style="fill:#5d5d5a;stroke:none;" transform="matrix(4.8 0 0 4.8 443.875 -3.6)" xlink:href="#GlSeravek-ExtraLightItalic70"/>
   <use style="fill:#5d5d5a;stroke:none;" transform="matrix(4.8 0 0 4.8 464.775 -3.6)" xlink:href="#GlSeravek-ExtraLightItalic68"/>
   <use style="fill:#5d5d5a;stroke:none;" transform="matrix(4.8 0 0 4.8 484.575 -3.6)" xlink:href="#GlSeravek-ExtraLightItalic85"/>
   <path style="fill:none; stroke:none;" d="M0 0 L518 0 L518 72 L0 72 L0 0 Z"/>
  </g>
 </g>
</svg>
