<?xml version="1.0" standalone="no"?>
 <!DOCTYPE svg PUBLIC "-//W3C//DTD SVG 1.1//EN" 
 "http://www.w3.org/Graphics/SVG/1.1/DTD/svg11.dtd"> 
<svg
  xmlns:svg="http://www.w3.org/2000/svg"
  xmlns="http://www.w3.org/2000/svg"
  xmlns:xlink="http://www.w3.org/1999/xlink"
  version="1.1"
  width="121.9962mm" height="121.9962mm" viewBox="0.0000 0.0000 121.9962 121.9962">
<title>SVG Image created as X-over for bookshelf-1-F_Silkscreen.svg date 2023/09/23 14:04:03 </title>
  <desc>Image generated by PCBNEW </desc>
<g style="fill:#000000; fill-opacity:1.0000;stroke:#000000; stroke-opacity:1.0000;
stroke-linecap:round; stroke-linejoin:round;"
 transform="translate(0 0) scale(1 1)">
</g>
<g style="fill:#000000; fill-opacity:0.0; 
stroke:#000000; stroke-width:0.0000; stroke-opacity:1; 
stroke-linecap:round; stroke-linejoin:round;">
</g>
<g style="fill:#000000; fill-opacity:1.0000; 
stroke:#000000; stroke-width:0.0212; stroke-opacity:1; 
stroke-linecap:round; stroke-linejoin:round;">
<rect x="-5.000000" y="-5.000000" width="132.020000" height="132.020000" rx="0.000000" />
</g>
<g style="fill:#FFFFFF; fill-opacity:1.0000; 
stroke:#FFFFFF; stroke-width:0.0212; stroke-opacity:1; 
stroke-linecap:round; stroke-linejoin:round;">
</g>
<g style="fill:#0D115E; fill-opacity:1.0000; 
stroke:#0D115E; stroke-width:0.0212; stroke-opacity:1; 
stroke-linecap:round; stroke-linejoin:round;">
</g>
<g style="fill:#0D115E; fill-opacity:1.0000; 
stroke:#0D115E; stroke-width:0.1500; stroke-opacity:1; 
stroke-linecap:round; stroke-linejoin:round;">
</g>
<g style="fill:#0D115E; fill-opacity:0.0; 
stroke:#0D115E; stroke-width:0.1500; stroke-opacity:1; 
stroke-linecap:round; stroke-linejoin:round;">
<text x="25.4500" y="97.0700"
textLength="2.2024" font-size="1.3333" lengthAdjust="spacingAndGlyphs"
text-anchor="middle" opacity="0">R1</text>
<g class="stroked-text"><desc>R1</desc>
<path d="M25.2833 97.0248
L24.9500 96.5486
" />
<path d="M24.7119 97.0248
L24.7119 96.0248
" />
<path d="M24.7119 96.0248
L25.0929 96.0248
" />
<path d="M25.0929 96.0248
L25.1881 96.0724
" />
<path d="M25.1881 96.0724
L25.2357 96.1201
" />
<path d="M25.2357 96.1201
L25.2833 96.2153
" />
<path d="M25.2833 96.2153
L25.2833 96.3582
" />
<path d="M25.2833 96.3582
L25.2357 96.4534
" />
<path d="M25.2357 96.4534
L25.1881 96.5010
" />
<path d="M25.1881 96.5010
L25.0929 96.5486
" />
<path d="M25.0929 96.5486
L24.7119 96.5486
" />
<path d="M26.2357 97.0248
L25.6643 97.0248
" />
<path d="M25.9500 97.0248
L25.9500 96.0248
" />
<path d="M25.9500 96.0248
L25.8548 96.1677
" />
<path d="M25.8548 96.1677
L25.7595 96.2629
" />
<path d="M25.7595 96.2629
L25.6643 96.3105
" />
</g><text x="58.4700" y="89.4500"
textLength="2.2024" font-size="1.3333" lengthAdjust="spacingAndGlyphs"
text-anchor="middle" opacity="0">C2</text>
<g class="stroked-text"><desc>C2</desc>
<path d="M58.3033 89.3096
L58.2557 89.3572
" />
<path d="M58.2557 89.3572
L58.1129 89.4048
" />
<path d="M58.1129 89.4048
L58.0176 89.4048
" />
<path d="M58.0176 89.4048
L57.8748 89.3572
" />
<path d="M57.8748 89.3572
L57.7795 89.2620
" />
<path d="M57.7795 89.2620
L57.7319 89.1667
" />
<path d="M57.7319 89.1667
L57.6843 88.9762
" />
<path d="M57.6843 88.9762
L57.6843 88.8334
" />
<path d="M57.6843 88.8334
L57.7319 88.6429
" />
<path d="M57.7319 88.6429
L57.7795 88.5477
" />
<path d="M57.7795 88.5477
L57.8748 88.4524
" />
<path d="M57.8748 88.4524
L58.0176 88.4048
" />
<path d="M58.0176 88.4048
L58.1129 88.4048
" />
<path d="M58.1129 88.4048
L58.2557 88.4524
" />
<path d="M58.2557 88.4524
L58.3033 88.5001
" />
<path d="M58.6843 88.5001
L58.7319 88.4524
" />
<path d="M58.7319 88.4524
L58.8271 88.4048
" />
<path d="M58.8271 88.4048
L59.0652 88.4048
" />
<path d="M59.0652 88.4048
L59.1605 88.4524
" />
<path d="M59.1605 88.4524
L59.2081 88.5001
" />
<path d="M59.2081 88.5001
L59.2557 88.5953
" />
<path d="M59.2557 88.5953
L59.2557 88.6905
" />
<path d="M59.2557 88.6905
L59.2081 88.8334
" />
<path d="M59.2081 88.8334
L58.6367 89.4048
" />
<path d="M58.6367 89.4048
L59.2557 89.4048
" />
</g><g transform="rotate(-90.000000 72.7500 78.7900)">
<text x="72.7500" y="79.2900"
textLength="2.2024" font-size="1.3333" lengthAdjust="spacingAndGlyphs"
text-anchor="middle" opacity="0">C3</text>
</g>
<g class="stroked-text"><desc>C3</desc>
<path d="M73.1096 78.9567
L73.1572 79.0043
" />
<path d="M73.1572 79.0043
L73.2048 79.1471
" />
<path d="M73.2048 79.1471
L73.2048 79.2424
" />
<path d="M73.2048 79.2424
L73.1572 79.3852
" />
<path d="M73.1572 79.3852
L73.0620 79.4805
" />
<path d="M73.0620 79.4805
L72.9667 79.5281
" />
<path d="M72.9667 79.5281
L72.7762 79.5757
" />
<path d="M72.7762 79.5757
L72.6334 79.5757
" />
<path d="M72.6334 79.5757
L72.4429 79.5281
" />
<path d="M72.4429 79.5281
L72.3477 79.4805
" />
<path d="M72.3477 79.4805
L72.2524 79.3852
" />
<path d="M72.2524 79.3852
L72.2048 79.2424
" />
<path d="M72.2048 79.2424
L72.2048 79.1471
" />
<path d="M72.2048 79.1471
L72.2524 79.0043
" />
<path d="M72.2524 79.0043
L72.3001 78.9567
" />
<path d="M72.2048 78.6233
L72.2048 78.0043
" />
<path d="M72.2048 78.0043
L72.5858 78.3376
" />
<path d="M72.5858 78.3376
L72.5858 78.1948
" />
<path d="M72.5858 78.1948
L72.6334 78.0995
" />
<path d="M72.6334 78.0995
L72.6810 78.0519
" />
<path d="M72.6810 78.0519
L72.7762 78.0043
" />
<path d="M72.7762 78.0043
L73.0143 78.0043
" />
<path d="M73.0143 78.0043
L73.1096 78.0519
" />
<path d="M73.1096 78.0519
L73.1572 78.0995
" />
<path d="M73.1572 78.0995
L73.2048 78.1948
" />
<path d="M73.2048 78.1948
L73.2048 78.4805
" />
<path d="M73.2048 78.4805
L73.1572 78.5757
" />
<path d="M73.1572 78.5757
L73.1096 78.6233
" />
</g><g transform="rotate(-90.000000 96.5700 86.4100)">
<text x="96.5700" y="86.9100"
textLength="2.0119" font-size="1.3333" lengthAdjust="spacingAndGlyphs"
text-anchor="middle" opacity="0">L1</text>
</g>
<g class="stroked-text"><desc>L1</desc>
<path d="M97.0248 86.5767
L97.0248 87.0529
" />
<path d="M97.0248 87.0529
L96.0248 87.0529
" />
<path d="M97.0248 85.7195
L97.0248 86.2910
" />
<path d="M97.0248 86.0052
L96.0248 86.0052
" />
<path d="M96.0248 86.0052
L96.1677 86.1005
" />
<path d="M96.1677 86.1005
L96.2629 86.1957
" />
<path d="M96.2629 86.1957
L96.3105 86.2910
" />
</g><g transform="rotate(-90.000000 104.1900 34.7100)">
<text x="104.1900" y="35.2100"
textLength="2.2024" font-size="1.3333" lengthAdjust="spacingAndGlyphs"
text-anchor="middle" opacity="0">C1</text>
</g>
<g class="stroked-text"><desc>C1</desc>
<path d="M104.5496 34.8767
L104.5972 34.9243
" />
<path d="M104.5972 34.9243
L104.6448 35.0671
" />
<path d="M104.6448 35.0671
L104.6448 35.1624
" />
<path d="M104.6448 35.1624
L104.5972 35.3052
" />
<path d="M104.5972 35.3052
L104.5020 35.4005
" />
<path d="M104.5020 35.4005
L104.4067 35.4481
" />
<path d="M104.4067 35.4481
L104.2162 35.4957
" />
<path d="M104.2162 35.4957
L104.0734 35.4957
" />
<path d="M104.0734 35.4957
L103.8829 35.4481
" />
<path d="M103.8829 35.4481
L103.7877 35.4005
" />
<path d="M103.7877 35.4005
L103.6924 35.3052
" />
<path d="M103.6924 35.3052
L103.6448 35.1624
" />
<path d="M103.6448 35.1624
L103.6448 35.0671
" />
<path d="M103.6448 35.0671
L103.6924 34.9243
" />
<path d="M103.6924 34.9243
L103.7401 34.8767
" />
<path d="M104.6448 33.9243
L104.6448 34.4957
" />
<path d="M104.6448 34.2100
L103.6448 34.2100
" />
<path d="M103.6448 34.2100
L103.7877 34.3052
" />
<path d="M103.7877 34.3052
L103.8829 34.4005
" />
<path d="M103.8829 34.4005
L103.9305 34.4957
" />
</g><text x="27.9900" y="55.1400"
textLength="2.0119" font-size="1.3333" lengthAdjust="spacingAndGlyphs"
text-anchor="middle" opacity="0">L3</text>
<g class="stroked-text"><desc>L3</desc>
<path d="M27.8233 55.0948
L27.3471 55.0948
" />
<path d="M27.3471 55.0948
L27.3471 54.0948
" />
<path d="M28.0614 54.0948
L28.6805 54.0948
" />
<path d="M28.6805 54.0948
L28.3471 54.4758
" />
<path d="M28.3471 54.4758
L28.4900 54.4758
" />
<path d="M28.4900 54.4758
L28.5852 54.5234
" />
<path d="M28.5852 54.5234
L28.6329 54.5710
" />
<path d="M28.6329 54.5710
L28.6805 54.6662
" />
<path d="M28.6805 54.6662
L28.6805 54.9043
" />
<path d="M28.6805 54.9043
L28.6329 54.9996
" />
<path d="M28.6329 54.9996
L28.5852 55.0472
" />
<path d="M28.5852 55.0472
L28.4900 55.0948
" />
<path d="M28.4900 55.0948
L28.2043 55.0948
" />
<path d="M28.2043 55.0948
L28.1090 55.0472
" />
<path d="M28.1090 55.0472
L28.0614 54.9996
" />
</g><text x="83.8700" y="112.3100"
textLength="1.9643" font-size="1.3333" lengthAdjust="spacingAndGlyphs"
text-anchor="middle" opacity="0">J1</text>
<g class="stroked-text"><desc>J1</desc>
<path d="M83.5367 111.2648
L83.5367 111.9791
" />
<path d="M83.5367 111.9791
L83.4890 112.1220
" />
<path d="M83.4890 112.1220
L83.3938 112.2172
" />
<path d="M83.3938 112.2172
L83.2510 112.2648
" />
<path d="M83.2510 112.2648
L83.1557 112.2648
" />
<path d="M84.5367 112.2648
L83.9652 112.2648
" />
<path d="M84.2510 112.2648
L84.2510 111.2648
" />
<path d="M84.2510 111.2648
L84.1557 111.4077
" />
<path d="M84.1557 111.4077
L84.0605 111.5029
" />
<path d="M84.0605 111.5029
L83.9652 111.5505
" />
</g><text x="38.1500" y="107.4800"
textLength="2.2024" font-size="1.3333" lengthAdjust="spacingAndGlyphs"
text-anchor="middle" opacity="0">R2</text>
<g class="stroked-text"><desc>R2</desc>
<path d="M37.9833 107.4348
L37.6500 106.9586
" />
<path d="M37.4119 107.4348
L37.4119 106.4348
" />
<path d="M37.4119 106.4348
L37.7929 106.4348
" />
<path d="M37.7929 106.4348
L37.8881 106.4824
" />
<path d="M37.8881 106.4824
L37.9357 106.5301
" />
<path d="M37.9357 106.5301
L37.9833 106.6253
" />
<path d="M37.9833 106.6253
L37.9833 106.7682
" />
<path d="M37.9833 106.7682
L37.9357 106.8634
" />
<path d="M37.9357 106.8634
L37.8881 106.9110
" />
<path d="M37.8881 106.9110
L37.7929 106.9586
" />
<path d="M37.7929 106.9586
L37.4119 106.9586
" />
<path d="M38.3643 106.5301
L38.4119 106.4824
" />
<path d="M38.4119 106.4824
L38.5071 106.4348
" />
<path d="M38.5071 106.4348
L38.7452 106.4348
" />
<path d="M38.7452 106.4348
L38.8405 106.4824
" />
<path d="M38.8405 106.4824
L38.8881 106.5301
" />
<path d="M38.8881 106.5301
L38.9357 106.6253
" />
<path d="M38.9357 106.6253
L38.9357 106.7205
" />
<path d="M38.9357 106.7205
L38.8881 106.8634
" />
<path d="M38.8881 106.8634
L38.3167 107.4348
" />
<path d="M38.3167 107.4348
L38.9357 107.4348
" />
</g><g transform="rotate(-90.000000 103.9000 68.3900)">
<text x="103.9000" y="68.8900"
textLength="1.9643" font-size="1.3333" lengthAdjust="spacingAndGlyphs"
text-anchor="middle" opacity="0">J2</text>
</g>
<g class="stroked-text"><desc>J2</desc>
<path d="M103.3548 68.7233
L104.0691 68.7233
" />
<path d="M104.0691 68.7233
L104.2120 68.7710
" />
<path d="M104.2120 68.7710
L104.3072 68.8662
" />
<path d="M104.3072 68.8662
L104.3548 69.0090
" />
<path d="M104.3548 69.0090
L104.3548 69.1043
" />
<path d="M103.4501 68.2948
L103.4024 68.2471
" />
<path d="M103.4024 68.2471
L103.3548 68.1519
" />
<path d="M103.3548 68.1519
L103.3548 67.9138
" />
<path d="M103.3548 67.9138
L103.4024 67.8186
" />
<path d="M103.4024 67.8186
L103.4501 67.7710
" />
<path d="M103.4501 67.7710
L103.5453 67.7233
" />
<path d="M103.5453 67.7233
L103.6405 67.7233
" />
<path d="M103.6405 67.7233
L103.7834 67.7710
" />
<path d="M103.7834 67.7710
L104.3548 68.3424
" />
<path d="M104.3548 68.3424
L104.3548 67.7233
" />
</g><text x="76.2500" y="8.1700"
textLength="2.0119" font-size="1.3333" lengthAdjust="spacingAndGlyphs"
text-anchor="middle" opacity="0">L2</text>
<g class="stroked-text"><desc>L2</desc>
<path d="M76.0833 8.1248
L75.6071 8.1248
" />
<path d="M75.6071 8.1248
L75.6071 7.1248
" />
<path d="M76.3690 7.2201
L76.4167 7.1724
" />
<path d="M76.4167 7.1724
L76.5119 7.1248
" />
<path d="M76.5119 7.1248
L76.7500 7.1248
" />
<path d="M76.7500 7.1248
L76.8452 7.1724
" />
<path d="M76.8452 7.1724
L76.8929 7.2201
" />
<path d="M76.8929 7.2201
L76.9405 7.3153
" />
<path d="M76.9405 7.3153
L76.9405 7.4105
" />
<path d="M76.9405 7.4105
L76.8929 7.5534
" />
<path d="M76.8929 7.5534
L76.3214 8.1248
" />
<path d="M76.3214 8.1248
L76.9405 8.1248
" />
</g></g>
<g style="fill:#0D115E; fill-opacity:0.0; 
stroke:#0D115E; stroke-width:0.1200; stroke-opacity:1; 
stroke-linecap:round; stroke-linejoin:round;">
<path d="M9.1100 99.1100
L14.0300 99.1100
" />
<path d="M14.0300 92.7400
L14.0300 105.4800
" />
<path d="M14.0300 105.4800
L62.2700 105.4800
" />
<path d="M62.2700 92.7400
L14.0300 92.7400
" />
<path d="M62.2700 105.4800
L62.2700 92.7400
" />
<path d="M67.1900 99.1100
L62.2700 99.1100
" />
<path d="M70.8900 76.3100
L69.0900 76.3100
" />
<path d="M69.9900 77.2100
L69.9900 75.4100
" />
<path d="M69.7300 73.7100
L68.7900 73.7100
" />
<path d="M68.7900 91.3300
L68.7900 56.0900
" />
<path d="M68.7900 91.3300
L66.9900 91.3300
" />
<path d="M68.7900 56.0900
L66.9900 56.0900
" />
<path d="M66.9900 91.3300
L66.0900 90.4300
" />
<path d="M66.9900 56.0900
L66.0900 56.9900
" />
<path d="M66.0900 90.4300
L65.1900 91.3300
" />
<path d="M66.0900 56.9900
L65.1900 56.0900
" />
<path d="M65.1900 91.3300
L13.5500 91.3300
" />
<path d="M65.1900 56.0900
L13.5500 56.0900
" />
<path d="M13.5500 91.3300
L13.5500 56.0900
" />
<path d="M12.6100 73.7100
L13.5500 73.7100
" />
<path d="M80.8700 102.6100
L80.8700 100.5100
" />
<path d="M83.8700 101.6500
L83.8700 100.1600
" />
<path d="M79.8200 101.5600
L81.9200 101.5600
" />
<path d="M73.7500 100.1600
L93.9900 100.1600
" />
<path d="M73.7500 100.1600
L73.7500 98.0600
" />
<path d="M93.9900 100.1600
L93.9900 98.0600
" />
<path d="M73.7500 98.0600
L74.8000 97.0100
" />
<path d="M93.9900 98.0600
L92.9400 97.0100
" />
<path d="M74.8000 97.0100
L73.7500 95.9600
" />
<path d="M92.9400 97.0100
L93.9900 95.9600
" />
<path d="M73.7500 95.9600
L73.7500 57.4200
" />
<path d="M93.9900 95.9600
L93.9900 57.4200
" />
<path d="M73.7500 57.4200
L93.9900 57.4200
" />
<path d="M83.8700 55.9300
L83.8700 57.4200
" />
<path d="M103.8700 85.3366 A12.3200 12.3200 0.0 0 0 103.8700 109.3034" />
<path d="M109.5900 109.3034 A12.3200 12.3200 0.0 0 0 109.5900 85.3366" />
<circle cx="106.7300" cy="97.3200" r="2.6300" /> 
<path d="M106.2700 55.9900
L106.2700 53.8900
" />
<path d="M109.2700 55.0300
L109.2700 53.5400
" />
<path d="M105.2200 54.9400
L107.3200 54.9400
" />
<path d="M99.1500 53.5400
L119.3900 53.5400
" />
<path d="M99.1500 53.5400
L99.1500 51.4400
" />
<path d="M119.3900 53.5400
L119.3900 51.4400
" />
<path d="M99.1500 51.4400
L100.2000 50.3900
" />
<path d="M119.3900 51.4400
L118.3400 50.3900
" />
<path d="M100.2000 50.3900
L99.1500 49.3400
" />
<path d="M118.3400 50.3900
L119.3900 49.3400
" />
<path d="M99.1500 49.3400
L99.1500 10.8000
" />
<path d="M119.3900 49.3400
L119.3900 10.8000
" />
<path d="M99.1500 10.8000
L119.3900 10.8000
" />
<path d="M109.2700 9.3100
L109.2700 10.8000
" />
<circle cx="27.9900" cy="27.9900" r="2.9300" /> 
<circle cx="27.9900" cy="27.9900" r="25.5200" /> 
<path d="M9.1100 114.3500
L14.0300 114.3500
" />
<path d="M14.0300 107.9800
L14.0300 120.7200
" />
<path d="M14.0300 120.7200
L62.2700 120.7200
" />
<path d="M62.2700 107.9800
L14.0300 107.9800
" />
<path d="M62.2700 120.7200
L62.2700 107.9800
" />
<path d="M67.1900 114.3500
L62.2700 114.3500
" />
<circle cx="76.2500" cy="30.5300" r="2.1050" /> 
<circle cx="76.2500" cy="30.5300" r="20.4400" /> 
<g >
</g>
<g >
</g>
<g >
</g>
<g >
</g>
<g >
</g>
<g >
</g>
<g >
</g>
<g >
</g>
<g >
</g>
<g >
</g>
<g >
</g>
<g >
</g>
<g >
</g>
</g>
<g style="fill:#FFFFFF; fill-opacity:0.0; 
stroke:#FFFFFF; stroke-width:0.1200; stroke-opacity:1; 
stroke-linecap:round; stroke-linejoin:round;">
</g>
<g style="fill:#2F2D31; fill-opacity:0.0; 
stroke:#2F2D31; stroke-width:0.1200; stroke-opacity:1; 
stroke-linecap:round; stroke-linejoin:round;">
</g>
<g style="fill:#2F2D31; fill-opacity:0.0; 
stroke:#2F2D31; stroke-width:0.1000; stroke-opacity:1; 
stroke-linecap:round; stroke-linejoin:round;">
<path style="fill:#2F2D31; fill-opacity:0.0; 
stroke:#2F2D31; stroke-width:0.1000; stroke-opacity:1; 
stroke-linecap:round; stroke-linejoin:round;fill:none"
d="M 0.0500,0.0500
121.9700,0.0500
121.9700,121.9700
0.0500,121.9700
Z" /> 
<g >
</g>
<g >
</g>
<g >
</g>
<g >
</g>
<g >
</g>
<g >
</g>
<g >
</g>
<g >
</g>
<g >
</g>
<g >
</g>
<g >
</g>
<g >
</g>
<g >
</g>
</g> 
</svg>
