<?xml version="1.0" standalone="no"?>
 <!DOCTYPE svg PUBLIC "-//W3C//DTD SVG 1.1//EN" 
 "http://www.w3.org/Graphics/SVG/1.1/DTD/svg11.dtd"> 
<svg
  xmlns:svg="http://www.w3.org/2000/svg"
  xmlns="http://www.w3.org/2000/svg"
  xmlns:xlink="http://www.w3.org/1999/xlink"
  version="1.1"
  width="297.0022mm" height="210.0072mm" viewBox="0.0000 0.0000 297.0022 210.0072">
<title>SVG Image created as X-over for bookshelf-1-F_Cu.svg date 2024/02/22 17:54:12 </title>
  <desc>Image generated by PCBNEW </desc>
<g style="fill:#000000; fill-opacity:1.0000;stroke:#000000; stroke-opacity:1.0000;
stroke-linecap:round; stroke-linejoin:round;"
 transform="translate(0 0) scale(1 1)">
</g>
<g style="fill:#000000; fill-opacity:0.0; 
stroke:#000000; stroke-width:0.0000; stroke-opacity:1; 
stroke-linecap:round; stroke-linejoin:round;">
</g>
<g style="fill:#000000; fill-opacity:1.0000; 
stroke:#000000; stroke-width:0.0212; stroke-opacity:1; 
stroke-linecap:round; stroke-linejoin:round;">
<rect x="41.451750" y="32.871739" width="124.916821" height="137.816223" rx="0.000000" />
</g>
<g style="fill:#FFFFFF; fill-opacity:1.0000; 
stroke:#FFFFFF; stroke-width:0.0212; stroke-opacity:1; 
stroke-linecap:round; stroke-linejoin:round;">
</g>
<g style="fill:#37CBCB; fill-opacity:1.0000; 
stroke:#37CBCB; stroke-width:0.0212; stroke-opacity:1; 
stroke-linecap:round; stroke-linejoin:round;">
</g>
<g style="fill:#37CBCB; fill-opacity:1.0000; 
stroke:#37CBCB; stroke-width:0.3000; stroke-opacity:1; 
stroke-linecap:round; stroke-linejoin:round;">
</g>
<g style="fill:#37CBCB; fill-opacity:0.0; 
stroke:#37CBCB; stroke-width:0.3000; stroke-opacity:1; 
stroke-linecap:round; stroke-linejoin:round;">
<g transform="rotate(-90.000000 153.1400 99.9878)">
<text x="153.1400" y="100.7378"
textLength="16.4571" font-size="2.0000" lengthAdjust="spacingAndGlyphs"
text-anchor="middle" opacity="0">120.7600 mm</text>
</g>
<g class="stroked-text"><desc>120.7600 mm</desc>
<path d="M153.8183 106.7735
L153.8183 107.6307
" />
<path d="M153.8183 107.2021
L152.3183 107.2021
" />
<path d="M152.3183 107.2021
L152.5326 107.3450
" />
<path d="M152.5326 107.3450
L152.6755 107.4878
" />
<path d="M152.6755 107.4878
L152.7469 107.6307
" />
<path d="M152.4612 106.2021
L152.3898 106.1307
" />
<path d="M152.3898 106.1307
L152.3183 105.9878
" />
<path d="M152.3183 105.9878
L152.3183 105.6307
" />
<path d="M152.3183 105.6307
L152.3898 105.4878
" />
<path d="M152.3898 105.4878
L152.4612 105.4164
" />
<path d="M152.4612 105.4164
L152.6040 105.3450
" />
<path d="M152.6040 105.3450
L152.7469 105.3450
" />
<path d="M152.7469 105.3450
L152.9612 105.4164
" />
<path d="M152.9612 105.4164
L153.8183 106.2736
" />
<path d="M153.8183 106.2736
L153.8183 105.3450
" />
<path d="M152.3183 104.4164
L152.3183 104.2736
" />
<path d="M152.3183 104.2736
L152.3898 104.1307
" />
<path d="M152.3898 104.1307
L152.4612 104.0593
" />
<path d="M152.4612 104.0593
L152.6040 103.9878
" />
<path d="M152.6040 103.9878
L152.8898 103.9164
" />
<path d="M152.8898 103.9164
L153.2469 103.9164
" />
<path d="M153.2469 103.9164
L153.5326 103.9878
" />
<path d="M153.5326 103.9878
L153.6755 104.0593
" />
<path d="M153.6755 104.0593
L153.7469 104.1307
" />
<path d="M153.7469 104.1307
L153.8183 104.2736
" />
<path d="M153.8183 104.2736
L153.8183 104.4164
" />
<path d="M153.8183 104.4164
L153.7469 104.5593
" />
<path d="M153.7469 104.5593
L153.6755 104.6307
" />
<path d="M153.6755 104.6307
L153.5326 104.7021
" />
<path d="M153.5326 104.7021
L153.2469 104.7736
" />
<path d="M153.2469 104.7736
L152.8898 104.7736
" />
<path d="M152.8898 104.7736
L152.6040 104.7021
" />
<path d="M152.6040 104.7021
L152.4612 104.6307
" />
<path d="M152.4612 104.6307
L152.3898 104.5593
" />
<path d="M152.3898 104.5593
L152.3183 104.4164
" />
<path d="M153.6755 103.2736
L153.7469 103.2021
" />
<path d="M153.7469 103.2021
L153.8183 103.2736
" />
<path d="M153.8183 103.2736
L153.7469 103.3450
" />
<path d="M153.7469 103.3450
L153.6755 103.2736
" />
<path d="M153.6755 103.2736
L153.8183 103.2736
" />
<path d="M152.3183 102.7021
L152.3183 101.7021
" />
<path d="M152.3183 101.7021
L153.8183 102.3450
" />
<path d="M152.3183 100.4878
L152.3183 100.7736
" />
<path d="M152.3183 100.7736
L152.3898 100.9164
" />
<path d="M152.3898 100.9164
L152.4612 100.9878
" />
<path d="M152.4612 100.9878
L152.6755 101.1307
" />
<path d="M152.6755 101.1307
L152.9612 101.2021
" />
<path d="M152.9612 101.2021
L153.5326 101.2021
" />
<path d="M153.5326 101.2021
L153.6755 101.1307
" />
<path d="M153.6755 101.1307
L153.7469 101.0593
" />
<path d="M153.7469 101.0593
L153.8183 100.9164
" />
<path d="M153.8183 100.9164
L153.8183 100.6307
" />
<path d="M153.8183 100.6307
L153.7469 100.4878
" />
<path d="M153.7469 100.4878
L153.6755 100.4164
" />
<path d="M153.6755 100.4164
L153.5326 100.3450
" />
<path d="M153.5326 100.3450
L153.1755 100.3450
" />
<path d="M153.1755 100.3450
L153.0326 100.4164
" />
<path d="M153.0326 100.4164
L152.9612 100.4878
" />
<path d="M152.9612 100.4878
L152.8898 100.6307
" />
<path d="M152.8898 100.6307
L152.8898 100.9164
" />
<path d="M152.8898 100.9164
L152.9612 101.0593
" />
<path d="M152.9612 101.0593
L153.0326 101.1307
" />
<path d="M153.0326 101.1307
L153.1755 101.2021
" />
<path d="M152.3183 99.4164
L152.3183 99.2736
" />
<path d="M152.3183 99.2736
L152.3898 99.1307
" />
<path d="M152.3898 99.1307
L152.4612 99.0593
" />
<path d="M152.4612 99.0593
L152.6040 98.9878
" />
<path d="M152.6040 98.9878
L152.8898 98.9164
" />
<path d="M152.8898 98.9164
L153.2469 98.9164
" />
<path d="M153.2469 98.9164
L153.5326 98.9878
" />
<path d="M153.5326 98.9878
L153.6755 99.0593
" />
<path d="M153.6755 99.0593
L153.7469 99.1307
" />
<path d="M153.7469 99.1307
L153.8183 99.2736
" />
<path d="M153.8183 99.2736
L153.8183 99.4164
" />
<path d="M153.8183 99.4164
L153.7469 99.5593
" />
<path d="M153.7469 99.5593
L153.6755 99.6307
" />
<path d="M153.6755 99.6307
L153.5326 99.7021
" />
<path d="M153.5326 99.7021
L153.2469 99.7736
" />
<path d="M153.2469 99.7736
L152.8898 99.7736
" />
<path d="M152.8898 99.7736
L152.6040 99.7021
" />
<path d="M152.6040 99.7021
L152.4612 99.6307
" />
<path d="M152.4612 99.6307
L152.3898 99.5593
" />
<path d="M152.3898 99.5593
L152.3183 99.4164
" />
<path d="M152.3183 97.9878
L152.3183 97.8450
" />
<path d="M152.3183 97.8450
L152.3898 97.7021
" />
<path d="M152.3898 97.7021
L152.4612 97.6307
" />
<path d="M152.4612 97.6307
L152.6040 97.5593
" />
<path d="M152.6040 97.5593
L152.8898 97.4878
" />
<path d="M152.8898 97.4878
L153.2469 97.4878
" />
<path d="M153.2469 97.4878
L153.5326 97.5593
" />
<path d="M153.5326 97.5593
L153.6755 97.6307
" />
<path d="M153.6755 97.6307
L153.7469 97.7021
" />
<path d="M153.7469 97.7021
L153.8183 97.8450
" />
<path d="M153.8183 97.8450
L153.8183 97.9878
" />
<path d="M153.8183 97.9878
L153.7469 98.1307
" />
<path d="M153.7469 98.1307
L153.6755 98.2021
" />
<path d="M153.6755 98.2021
L153.5326 98.2736
" />
<path d="M153.5326 98.2736
L153.2469 98.3450
" />
<path d="M153.2469 98.3450
L152.8898 98.3450
" />
<path d="M152.8898 98.3450
L152.6040 98.2736
" />
<path d="M152.6040 98.2736
L152.4612 98.2021
" />
<path d="M152.4612 98.2021
L152.3898 98.1307
" />
<path d="M152.3898 98.1307
L152.3183 97.9878
" />
<path d="M153.8183 95.7021
L152.8183 95.7021
" />
<path d="M152.9612 95.7021
L152.8898 95.6307
" />
<path d="M152.8898 95.6307
L152.8183 95.4878
" />
<path d="M152.8183 95.4878
L152.8183 95.2736
" />
<path d="M152.8183 95.2736
L152.8898 95.1307
" />
<path d="M152.8898 95.1307
L153.0326 95.0593
" />
<path d="M153.0326 95.0593
L153.8183 95.0593
" />
<path d="M153.0326 95.0593
L152.8898 94.9878
" />
<path d="M152.8898 94.9878
L152.8183 94.8450
" />
<path d="M152.8183 94.8450
L152.8183 94.6307
" />
<path d="M152.8183 94.6307
L152.8898 94.4878
" />
<path d="M152.8898 94.4878
L153.0326 94.4164
" />
<path d="M153.0326 94.4164
L153.8183 94.4164
" />
<path d="M153.8183 93.7021
L152.8183 93.7021
" />
<path d="M152.9612 93.7021
L152.8898 93.6307
" />
<path d="M152.8898 93.6307
L152.8183 93.4878
" />
<path d="M152.8183 93.4878
L152.8183 93.2736
" />
<path d="M152.8183 93.2736
L152.8898 93.1307
" />
<path d="M152.8898 93.1307
L153.0326 93.0593
" />
<path d="M153.0326 93.0593
L153.8183 93.0593
" />
<path d="M153.0326 93.0593
L152.8898 92.9878
" />
<path d="M152.8898 92.9878
L152.8183 92.8450
" />
<path d="M152.8183 92.8450
L152.8183 92.6307
" />
<path d="M152.8183 92.6307
L152.8898 92.4878
" />
<path d="M152.8898 92.4878
L153.0326 92.4164
" />
<path d="M153.0326 92.4164
L153.8183 92.4164
" />
</g></g>
<g style="fill:#37CBCB; fill-opacity:0.0; 
stroke:#37CBCB; stroke-width:0.2000; stroke-opacity:1; 
stroke-linecap:round; stroke-linejoin:round;">
<path d="M144.7149 160.3679
L155.5264 160.3679
" />
<path d="M144.7149 39.6078
L155.5264 39.6078
" />
<path d="M154.9400 160.3679
L154.9400 39.6078
" />
<path d="M154.9400 160.3679
L154.9400 39.6078
" />
<path d="M154.9400 160.3679
L154.3536 159.2414
" />
<path d="M154.9400 160.3679
L155.5264 159.2414
" />
<path d="M154.9400 39.6078
L155.5264 40.7343
" />
<path d="M154.9400 39.6078
L154.3536 40.7343
" />
</g>
<g style="fill:#37CBCB; fill-opacity:0.0; 
stroke:#37CBCB; stroke-width:0.3000; stroke-opacity:1; 
stroke-linecap:round; stroke-linejoin:round;">
<g transform="rotate(-0.055694 98.3130 163.1525)">
<text x="98.3130" y="163.9025"
textLength="16.4571" font-size="2.0000" lengthAdjust="spacingAndGlyphs"
text-anchor="middle" opacity="0">100.8181 mm</text>
</g>
<g class="stroked-text"><desc>100.8181 mm</desc>
<path d="M91.5279 163.8375
L90.6708 163.8383
" />
<path d="M91.0994 163.8379
L91.0979 162.3379
" />
<path d="M91.0979 162.3379
L90.9552 162.5523
" />
<path d="M90.9552 162.5523
L90.8125 162.6953
" />
<path d="M90.8125 162.6953
L90.6697 162.7669
" />
<path d="M92.4550 162.3366
L92.5979 162.3364
" />
<path d="M92.5979 162.3364
L92.7408 162.4077
" />
<path d="M92.7408 162.4077
L92.8123 162.4791
" />
<path d="M92.8123 162.4791
L92.8839 162.6219
" />
<path d="M92.8839 162.6219
L92.9556 162.9075
" />
<path d="M92.9556 162.9075
L92.9559 163.2646
" />
<path d="M92.9559 163.2646
L92.8848 163.5504
" />
<path d="M92.8848 163.5504
L92.8135 163.6934
" />
<path d="M92.8135 163.6934
L92.7421 163.7649
" />
<path d="M92.7421 163.7649
L92.5993 163.8364
" />
<path d="M92.5993 163.8364
L92.4565 163.8366
" />
<path d="M92.4565 163.8366
L92.3136 163.7653
" />
<path d="M92.3136 163.7653
L92.2421 163.6939
" />
<path d="M92.2421 163.6939
L92.1705 163.5511
" />
<path d="M92.1705 163.5511
L92.0988 163.2655
" />
<path d="M92.0988 163.2655
L92.0984 162.9083
" />
<path d="M92.0984 162.9083
L92.1696 162.6226
" />
<path d="M92.1696 162.6226
L92.2409 162.4796
" />
<path d="M92.2409 162.4796
L92.3122 162.4081
" />
<path d="M92.3122 162.4081
L92.4550 162.3366
" />
<path d="M93.8836 162.3352
L94.0265 162.3350
" />
<path d="M94.0265 162.3350
L94.1694 162.4063
" />
<path d="M94.1694 162.4063
L94.2409 162.4777
" />
<path d="M94.2409 162.4777
L94.3125 162.6205
" />
<path d="M94.3125 162.6205
L94.3842 162.9061
" />
<path d="M94.3842 162.9061
L94.3845 163.2633
" />
<path d="M94.3845 163.2633
L94.3134 163.5490
" />
<path d="M94.3134 163.5490
L94.2421 163.6920
" />
<path d="M94.2421 163.6920
L94.1707 163.7635
" />
<path d="M94.1707 163.7635
L94.0279 163.8350
" />
<path d="M94.0279 163.8350
L93.8851 163.8352
" />
<path d="M93.8851 163.8352
L93.7421 163.7639
" />
<path d="M93.7421 163.7639
L93.6706 163.6925
" />
<path d="M93.6706 163.6925
L93.5991 163.5497
" />
<path d="M93.5991 163.5497
L93.5274 163.2641
" />
<path d="M93.5274 163.2641
L93.5270 162.9070
" />
<path d="M93.5270 162.9070
L93.5982 162.6212
" />
<path d="M93.5982 162.6212
L93.6695 162.4782
" />
<path d="M93.6695 162.4782
L93.7408 162.4067
" />
<path d="M93.7408 162.4067
L93.8836 162.3352
" />
<path d="M95.0278 163.6912
L95.0993 163.7626
" />
<path d="M95.0993 163.7626
L95.0279 163.8341
" />
<path d="M95.0279 163.8341
L94.9564 163.7627
" />
<path d="M94.9564 163.7627
L95.0278 163.6912
" />
<path d="M95.0278 163.6912
L95.0279 163.8341
" />
<path d="M95.9557 162.9760
L95.8127 162.9047
" />
<path d="M95.8127 162.9047
L95.7412 162.8334
" />
<path d="M95.7412 162.8334
L95.6697 162.6906
" />
<path d="M95.6697 162.6906
L95.6696 162.6192
" />
<path d="M95.6696 162.6192
L95.7409 162.4762
" />
<path d="M95.7409 162.4762
L95.8122 162.4047
" />
<path d="M95.8122 162.4047
L95.9550 162.3332
" />
<path d="M95.9550 162.3332
L96.2407 162.3329
" />
<path d="M96.2407 162.3329
L96.3837 162.4042
" />
<path d="M96.3837 162.4042
L96.4552 162.4755
" />
<path d="M96.4552 162.4755
L96.5267 162.6183
" />
<path d="M96.5267 162.6183
L96.5268 162.6897
" />
<path d="M96.5268 162.6897
L96.4555 162.8327
" />
<path d="M96.4555 162.8327
L96.3842 162.9042
" />
<path d="M96.3842 162.9042
L96.2414 162.9757
" />
<path d="M96.2414 162.9757
L95.9557 162.9760
" />
<path d="M95.9557 162.9760
L95.8129 163.0476
" />
<path d="M95.8129 163.0476
L95.7415 163.1191
" />
<path d="M95.7415 163.1191
L95.6702 163.2620
" />
<path d="M95.6702 163.2620
L95.6705 163.5477
" />
<path d="M95.6705 163.5477
L95.7421 163.6905
" />
<path d="M95.7421 163.6905
L95.8136 163.7619
" />
<path d="M95.8136 163.7619
L95.9565 163.8332
" />
<path d="M95.9565 163.8332
L96.2422 163.8329
" />
<path d="M96.2422 163.8329
L96.3850 163.7613
" />
<path d="M96.3850 163.7613
L96.4564 163.6898
" />
<path d="M96.4564 163.6898
L96.5276 163.5469
" />
<path d="M96.5276 163.5469
L96.5274 163.2612
" />
<path d="M96.5274 163.2612
L96.4558 163.1184
" />
<path d="M96.4558 163.1184
L96.3843 163.0470
" />
<path d="M96.3843 163.0470
L96.2414 162.9757
" />
<path d="M97.9565 163.8312
L97.0993 163.8320
" />
<path d="M97.5279 163.8316
L97.5265 162.3316
" />
<path d="M97.5265 162.3316
L97.3838 162.5461
" />
<path d="M97.3838 162.5461
L97.2411 162.6891
" />
<path d="M97.2411 162.6891
L97.0983 162.7606
" />
<path d="M98.8128 162.9732
L98.6699 162.9020
" />
<path d="M98.6699 162.9020
L98.5984 162.8306
" />
<path d="M98.5984 162.8306
L98.5268 162.6878
" />
<path d="M98.5268 162.6878
L98.5267 162.6164
" />
<path d="M98.5267 162.6164
L98.5980 162.4734
" />
<path d="M98.5980 162.4734
L98.6694 162.4020
" />
<path d="M98.6694 162.4020
L98.8122 162.3304
" />
<path d="M98.8122 162.3304
L99.0979 162.3301
" />
<path d="M99.0979 162.3301
L99.2408 162.4014
" />
<path d="M99.2408 162.4014
L99.3123 162.4728
" />
<path d="M99.3123 162.4728
L99.3839 162.6155
" />
<path d="M99.3839 162.6155
L99.3839 162.6870
" />
<path d="M99.3839 162.6870
L99.3127 162.8299
" />
<path d="M99.3127 162.8299
L99.2413 162.9014
" />
<path d="M99.2413 162.9014
L99.0985 162.9730
" />
<path d="M99.0985 162.9730
L98.8128 162.9732
" />
<path d="M98.8128 162.9732
L98.6700 163.0448
" />
<path d="M98.6700 163.0448
L98.5986 163.1163
" />
<path d="M98.5986 163.1163
L98.5274 163.2592
" />
<path d="M98.5274 163.2592
L98.5276 163.5449
" />
<path d="M98.5276 163.5449
L98.5992 163.6877
" />
<path d="M98.5992 163.6877
L98.6707 163.7591
" />
<path d="M98.6707 163.7591
L98.8136 163.8304
" />
<path d="M98.8136 163.8304
L99.0993 163.8301
" />
<path d="M99.0993 163.8301
L99.2421 163.7585
" />
<path d="M99.2421 163.7585
L99.3135 163.6870
" />
<path d="M99.3135 163.6870
L99.3848 163.5441
" />
<path d="M99.3848 163.5441
L99.3845 163.2584
" />
<path d="M99.3845 163.2584
L99.3129 163.1156
" />
<path d="M99.3129 163.1156
L99.2414 163.0443
" />
<path d="M99.2414 163.0443
L99.0985 162.9730
" />
<path d="M100.8136 163.8284
L99.9565 163.8293
" />
<path d="M100.3851 163.8289
L100.3836 162.3289
" />
<path d="M100.3836 162.3289
L100.2410 162.5433
" />
<path d="M100.2410 162.5433
L100.0982 162.6863
" />
<path d="M100.0982 162.6863
L99.9554 162.7578
" />
<path d="M102.5993 163.8267
L102.5984 162.8267
" />
<path d="M102.5985 162.9696
L102.6699 162.8981
" />
<path d="M102.6699 162.8981
L102.8127 162.8265
" />
<path d="M102.8127 162.8265
L103.0269 162.8263
" />
<path d="M103.0269 162.8263
L103.1699 162.8976
" />
<path d="M103.1699 162.8976
L103.2414 163.0404
" />
<path d="M103.2414 163.0404
L103.2422 163.8261
" />
<path d="M103.2414 163.0404
L103.3127 162.8974
" />
<path d="M103.3127 162.8974
L103.4555 162.8259
" />
<path d="M103.4555 162.8259
L103.6698 162.8257
" />
<path d="M103.6698 162.8257
L103.8127 162.8970
" />
<path d="M103.8127 162.8970
L103.8843 163.0397
" />
<path d="M103.8843 163.0397
L103.8851 163.8255
" />
<path d="M104.5993 163.8248
L104.5984 162.8248
" />
<path d="M104.5985 162.9676
L104.6699 162.8961
" />
<path d="M104.6699 162.8961
L104.8127 162.8246
" />
<path d="M104.8127 162.8246
L105.0269 162.8243
" />
<path d="M105.0269 162.8243
L105.1699 162.8956
" />
<path d="M105.1699 162.8956
L105.2414 163.0384
" />
<path d="M105.2414 163.0384
L105.2422 163.8241
" />
<path d="M105.2414 163.0384
L105.3127 162.8955
" />
<path d="M105.3127 162.8955
L105.4555 162.8239
" />
<path d="M105.4555 162.8239
L105.6698 162.8237
" />
<path d="M105.6698 162.8237
L105.8127 162.8950
" />
<path d="M105.8127 162.8950
L105.8843 163.0378
" />
<path d="M105.8843 163.0378
L105.8851 163.8235
" />
</g></g>
<g style="fill:#37CBCB; fill-opacity:0.0; 
stroke:#37CBCB; stroke-width:0.2000; stroke-opacity:1; 
stroke-linecap:round; stroke-linejoin:round;">
<path d="M47.8974 156.4659
L47.9063 165.5880
" />
<path d="M148.7154 156.3679
L148.7243 165.4900
" />
<path d="M47.9057 165.0015
L148.7237 164.9035
" />
<path d="M47.9057 165.0015
L148.7237 164.9035
" />
<path d="M47.9057 165.0015
L49.0316 164.4140
" />
<path d="M47.9057 165.0015
L49.0328 165.5869
" />
<path d="M148.7237 164.9035
L147.5978 165.4911
" />
<path d="M148.7237 164.9035
L147.5967 164.3182
" />
<g >
</g>
<g style="fill:#37CBCB; fill-opacity:1.0000; 
stroke:#37CBCB; stroke-width:0.0000; stroke-opacity:1; 
stroke-linecap:round; stroke-linejoin:round;">
<circle cx="73.6600" cy="111.0499" r="3.7500" /> 
</g>
<g style="fill:#37CBCB; fill-opacity:1.0000; 
stroke:#37CBCB; stroke-width:0.0212; stroke-opacity:1; 
stroke-linecap:round; stroke-linejoin:round;">
</g>
<g >
</g>
<g style="fill:#37CBCB; fill-opacity:1.0000; 
stroke:#37CBCB; stroke-width:0.0212; stroke-opacity:1; 
stroke-linecap:round; stroke-linejoin:round;">
</g>
<g style="fill:#37CBCB; fill-opacity:1.0000; 
stroke:#37CBCB; stroke-width:0.0000; stroke-opacity:1; 
stroke-linecap:round; stroke-linejoin:round;">
<circle cx="89.3047" cy="44.1078" r="1.2000" /> 
</g>
<g style="fill:#37CBCB; fill-opacity:1.0000; 
stroke:#37CBCB; stroke-width:0.0212; stroke-opacity:1; 
stroke-linecap:round; stroke-linejoin:round;">
</g>
<g style="fill:#37CBCB; fill-opacity:1.0000; 
stroke:#37CBCB; stroke-width:0.0000; stroke-opacity:1; 
stroke-linecap:round; stroke-linejoin:round;">
<circle cx="89.3047" cy="105.0678" r="1.2000" /> 
</g>
<g >
</g>
<g style="fill:#37CBCB; fill-opacity:1.0000; 
stroke:#37CBCB; stroke-width:0.0000; stroke-opacity:1; 
stroke-linecap:round; stroke-linejoin:round;">
<path style="fill:#37CBCB; fill-opacity:1.0000; 
stroke:#37CBCB; stroke-width:0.0000; stroke-opacity:1; 
stroke-linecap:round; stroke-linejoin:round;fill-rule:evenodd;"
d="M 96.5351,51.2400
96.5351,48.4400
99.3351,48.4400
99.3351,51.2400
Z" /> 
<circle cx="130.9351" cy="49.8400" r="1.4000" /> 
</g>
<g >
</g>
<g style="fill:#37CBCB; fill-opacity:1.0000; 
stroke:#37CBCB; stroke-width:0.0000; stroke-opacity:1; 
stroke-linecap:round; stroke-linejoin:round;">
<circle cx="64.2574" cy="59.5915" r="3.7500" /> 
</g>
<g style="fill:#37CBCB; fill-opacity:1.0000; 
stroke:#37CBCB; stroke-width:0.0212; stroke-opacity:1; 
stroke-linecap:round; stroke-linejoin:round;">
</g>
<g >
</g>
<g style="fill:#37CBCB; fill-opacity:1.0000; 
stroke:#37CBCB; stroke-width:0.0212; stroke-opacity:1; 
stroke-linecap:round; stroke-linejoin:round;">
</g>
<g style="fill:#37CBCB; fill-opacity:1.0000; 
stroke:#37CBCB; stroke-width:0.0000; stroke-opacity:1; 
stroke-linecap:round; stroke-linejoin:round;">
<circle cx="141.5650" cy="115.4834" r="3.7500" /> 
</g>
<g style="fill:#37CBCB; fill-opacity:1.0000; 
stroke:#37CBCB; stroke-width:0.0212; stroke-opacity:1; 
stroke-linecap:round; stroke-linejoin:round;">
</g>
<g >
</g>
<g style="fill:#37CBCB; fill-opacity:1.0000; 
stroke:#37CBCB; stroke-width:0.0212; stroke-opacity:1; 
stroke-linecap:round; stroke-linejoin:round;">
</g>
<g style="fill:#37CBCB; fill-opacity:1.0000; 
stroke:#37CBCB; stroke-width:0.0000; stroke-opacity:1; 
stroke-linecap:round; stroke-linejoin:round;">
<path style="fill:#37CBCB; fill-opacity:1.0000; 
stroke:#37CBCB; stroke-width:0.0000; stroke-opacity:1; 
stroke-linecap:round; stroke-linejoin:round;fill-rule:evenodd;"
d="M 51.3400,151.2600
51.3400,148.4600
54.1400,148.4600
54.1400,151.2600
Z" /> 
<circle cx="101.7400" cy="149.8600" r="1.4000" /> 
</g>
<g >
</g>
<g style="fill:#37CBCB; fill-opacity:1.0000; 
stroke:#37CBCB; stroke-width:0.0000; stroke-opacity:1; 
stroke-linecap:round; stroke-linejoin:round;">
<circle cx="56.6300" cy="127.0000" r="2.6000" /> 
</g>
<g style="fill:#37CBCB; fill-opacity:1.0000; 
stroke:#37CBCB; stroke-width:0.0212; stroke-opacity:1; 
stroke-linecap:round; stroke-linejoin:round;">
</g>
<g style="fill:#37CBCB; fill-opacity:1.0000; 
stroke:#37CBCB; stroke-width:0.0000; stroke-opacity:1; 
stroke-linecap:round; stroke-linejoin:round;">
<circle cx="80.5300" cy="127.0000" r="2.6000" /> 
</g>
<g style="fill:#37CBCB; fill-opacity:1.0000; 
stroke:#37CBCB; stroke-width:0.0212; stroke-opacity:1; 
stroke-linecap:round; stroke-linejoin:round;">
</g>
<g >
</g>
<g style="fill:#37CBCB; fill-opacity:1.0000; 
stroke:#37CBCB; stroke-width:0.0212; stroke-opacity:1; 
stroke-linecap:round; stroke-linejoin:round;">
</g>
<g style="fill:#37CBCB; fill-opacity:1.0000; 
stroke:#37CBCB; stroke-width:0.0000; stroke-opacity:1; 
stroke-linecap:round; stroke-linejoin:round;">
<path style="fill:#37CBCB; fill-opacity:1.0000; 
stroke:#37CBCB; stroke-width:0.0000; stroke-opacity:1; 
stroke-linecap:round; stroke-linejoin:round;fill-rule:evenodd;"
d="M 59.8200,113.1600
57.0200,113.1600
57.0200,110.3600
59.8200,110.3600
Z" /> 
<circle cx="58.4200" cy="62.7600" r="1.4000" /> 
</g>
<g >
</g>
<g style="fill:#37CBCB; fill-opacity:1.0000; 
stroke:#37CBCB; stroke-width:0.0000; stroke-opacity:1; 
stroke-linecap:round; stroke-linejoin:round;">
<circle cx="137.1600" cy="55.8800" r="3.7500" /> 
</g>
<g style="fill:#37CBCB; fill-opacity:1.0000; 
stroke:#37CBCB; stroke-width:0.0212; stroke-opacity:1; 
stroke-linecap:round; stroke-linejoin:round;">
</g>
<g >
</g>
<g style="fill:#37CBCB; fill-opacity:1.0000; 
stroke:#37CBCB; stroke-width:0.0212; stroke-opacity:1; 
stroke-linecap:round; stroke-linejoin:round;">
</g>
<g style="fill:#37CBCB; fill-opacity:1.0000; 
stroke:#37CBCB; stroke-width:0.0000; stroke-opacity:1; 
stroke-linecap:round; stroke-linejoin:round;">
<circle cx="121.9200" cy="102.9950" r="1.6000" /> 
</g>
<g style="fill:#37CBCB; fill-opacity:1.0000; 
stroke:#37CBCB; stroke-width:0.0212; stroke-opacity:1; 
stroke-linecap:round; stroke-linejoin:round;">
</g>
<g style="fill:#37CBCB; fill-opacity:1.0000; 
stroke:#37CBCB; stroke-width:0.0000; stroke-opacity:1; 
stroke-linecap:round; stroke-linejoin:round;">
<circle cx="121.9200" cy="69.7250" r="1.6000" /> 
</g>
<g style="fill:#37CBCB; fill-opacity:1.0000; 
stroke:#37CBCB; stroke-width:0.0212; stroke-opacity:1; 
stroke-linecap:round; stroke-linejoin:round;">
</g>
<g >
</g>
<g style="fill:#37CBCB; fill-opacity:1.0000; 
stroke:#37CBCB; stroke-width:0.0212; stroke-opacity:1; 
stroke-linecap:round; stroke-linejoin:round;">
</g>
<g style="fill:#37CBCB; fill-opacity:1.0000; 
stroke:#37CBCB; stroke-width:0.0000; stroke-opacity:1; 
stroke-linecap:round; stroke-linejoin:round;">
<path style="fill:#37CBCB; fill-opacity:1.0000; 
stroke:#37CBCB; stroke-width:0.0000; stroke-opacity:1; 
stroke-linecap:round; stroke-linejoin:round;fill-rule:evenodd;"
d="M 89.7194,134.6090
89.7384,134.5133
89.7926,134.4322
89.8737,134.3780
89.9694,134.3590
91.5694,134.3590
91.6650,134.3780
91.7461,134.4322
91.8003,134.5133
91.8194,134.6090
91.8194,136.2090
91.8003,136.3046
91.7461,136.3857
91.6650,136.4399
91.5694,136.4590
89.9694,136.4590
89.8737,136.4399
89.7926,136.3857
89.7384,136.3046
89.7194,136.2090
Z" /> 
<circle cx="95.3694" cy="135.4090" r="1.0500" /> 
</g>
<g style="fill:#37CBCB; fill-opacity:1.0000; 
stroke:#37CBCB; stroke-width:0.0212; stroke-opacity:1; 
stroke-linecap:round; stroke-linejoin:round;">
</g>
<g >
</g>
<g style="fill:#37CBCB; fill-opacity:1.0000; 
stroke:#37CBCB; stroke-width:0.0212; stroke-opacity:1; 
stroke-linecap:round; stroke-linejoin:round;">
</g>
<g style="fill:#37CBCB; fill-opacity:1.0000; 
stroke:#37CBCB; stroke-width:0.0000; stroke-opacity:1; 
stroke-linecap:round; stroke-linejoin:round;">
<circle cx="75.5347" cy="104.7161" r="1.2000" /> 
</g>
<g style="fill:#37CBCB; fill-opacity:1.0000; 
stroke:#37CBCB; stroke-width:0.0212; stroke-opacity:1; 
stroke-linecap:round; stroke-linejoin:round;">
</g>
<g style="fill:#37CBCB; fill-opacity:1.0000; 
stroke:#37CBCB; stroke-width:0.0000; stroke-opacity:1; 
stroke-linecap:round; stroke-linejoin:round;">
<circle cx="75.5347" cy="43.7561" r="1.2000" /> 
</g>
<g >
</g>
<g style="fill:#37CBCB; fill-opacity:1.0000; 
stroke:#37CBCB; stroke-width:0.0000; stroke-opacity:1; 
stroke-linecap:round; stroke-linejoin:round;">
<path style="fill:#37CBCB; fill-opacity:1.0000; 
stroke:#37CBCB; stroke-width:0.0000; stroke-opacity:1; 
stroke-linecap:round; stroke-linejoin:round;fill-rule:evenodd;"
d="M 102.4000,113.9700
102.4957,113.9890
102.5768,114.0432
102.6310,114.1243
102.6500,114.2200
102.6500,115.8200
102.6310,115.9157
102.5768,115.9968
102.4957,116.0510
102.4000,116.0700
100.8000,116.0700
100.7043,116.0510
100.6232,115.9968
100.5690,115.9157
100.5500,115.8200
100.5500,114.2200
100.5690,114.1243
100.6232,114.0432
100.7043,113.9890
100.8000,113.9700
Z" /> 
<circle cx="101.6000" cy="119.6200" r="1.0500" /> 
</g>
<g style="fill:#37CBCB; fill-opacity:1.0000; 
stroke:#37CBCB; stroke-width:0.0212; stroke-opacity:1; 
stroke-linecap:round; stroke-linejoin:round;">
</g>
<g style="fill:#37CBCB; fill-opacity:1.0000; 
stroke:#37CBCB; stroke-width:0.0000; stroke-opacity:1; 
stroke-linecap:round; stroke-linejoin:round;">
<circle cx="101.6000" cy="124.2200" r="1.0500" /> 
</g>
<g style="fill:#37CBCB; fill-opacity:1.0000; 
stroke:#37CBCB; stroke-width:0.0212; stroke-opacity:1; 
stroke-linecap:round; stroke-linejoin:round;">
</g>
<g style="fill:#37CBCB; fill-opacity:1.0000; 
stroke:#37CBCB; stroke-width:0.0000; stroke-opacity:1; 
stroke-linecap:round; stroke-linejoin:round;">
<circle cx="101.6000" cy="128.8200" r="1.0500" /> 
</g>
<g style="fill:#37CBCB; fill-opacity:1.0000; 
stroke:#37CBCB; stroke-width:0.0212; stroke-opacity:1; 
stroke-linecap:round; stroke-linejoin:round;">
</g>
<g >
</g>
<g style="fill:#37CBCB; fill-opacity:1.0000; 
stroke:#37CBCB; stroke-width:0.0212; stroke-opacity:1; 
stroke-linecap:round; stroke-linejoin:round;">
</g>
<g style="fill:#37CBCB; fill-opacity:1.0000; 
stroke:#37CBCB; stroke-width:0.0000; stroke-opacity:1; 
stroke-linecap:round; stroke-linejoin:round;">
<circle cx="139.6579" cy="139.7891" r="1.3000" /> 
</g>
<g style="fill:#37CBCB; fill-opacity:1.0000; 
stroke:#37CBCB; stroke-width:0.0212; stroke-opacity:1; 
stroke-linecap:round; stroke-linejoin:round;">
</g>
<g style="fill:#37CBCB; fill-opacity:1.0000; 
stroke:#37CBCB; stroke-width:0.0000; stroke-opacity:1; 
stroke-linecap:round; stroke-linejoin:round;">
<circle cx="113.4979" cy="139.7891" r="1.3000" /> 
</g>
<g style="fill:#37CBCB; fill-opacity:1.0000; 
stroke:#37CBCB; stroke-width:0.0212; stroke-opacity:1; 
stroke-linecap:round; stroke-linejoin:round;">
</g>
<g >
</g>
<g >
</g>
<g style="fill:#37CBCB; fill-opacity:1.0000; 
stroke:#37CBCB; stroke-width:0.0212; stroke-opacity:1; 
stroke-linecap:round; stroke-linejoin:round;">
</g>
<g style="fill:#37CBCB; fill-opacity:1.0000; 
stroke:#37CBCB; stroke-width:2.0000; stroke-opacity:1; 
stroke-linecap:round; stroke-linejoin:round;">
</g>
<g style="fill:#37CBCB; fill-opacity:0.0; 
stroke:#37CBCB; stroke-width:2.0000; stroke-opacity:1; 
stroke-linecap:round; stroke-linejoin:round;">
<path d="M63.5000 111.7600
L73.6600 101.6000
" />
<path d="M73.6600 101.6000
L85.8369 101.6000
" />
<path d="M85.8369 101.6000
L89.3047 105.0678
" />
<path d="M105.1855 123.2055
L101.6000 119.6200
" />
<path d="M109.3091 139.7891
L101.6000 132.0800
" />
<path d="M99.0500 109.2300
L99.0500 117.0700
" />
<path d="M105.1855 125.2345
L105.1855 123.2055
" />
<path d="M99.0600 109.2200
L99.0500 109.2300
" />
<path d="M113.4979 139.7891
L109.3091 139.7891
" />
<path d="M99.0500 117.0700
L101.6000 119.6200
" />
<path d="M89.3047 105.0678
L94.9078 105.0678
" />
<path d="M101.6000 128.8200
L105.1855 125.2345
" />
<path d="M101.6000 132.0800
L101.6000 128.8200
" />
<path d="M94.9078 105.0678
L99.0600 109.2200
" />
<path d="M58.4200 111.7600
L63.5000 111.7600
" />
<path d="M54.0300 68.2302
L54.0300 124.4000
" />
<path d="M88.9000 139.7000
L90.7694 137.8306
" />
<path d="M54.0300 124.4000
L56.6300 127.0000
" />
<path d="M90.7694 137.8306
L90.7694 135.4090
" />
<path d="M56.6300 132.8300
L63.5000 139.7000
" />
<path d="M56.6300 127.0000
L56.6300 132.8300
" />
<path d="M58.6716 63.5886
L54.0300 68.2302
" />
<path d="M63.5000 139.7000
L88.9000 139.7000
" />
<path d="M101.6000 115.0200
L101.6000 106.6800
" />
<path d="M116.8400 134.6200
L109.2200 127.0000
" />
<path d="M93.9800 53.3400
L97.4800 49.8400
" />
<path d="M97.4800 49.8400
L97.9351 49.8400
" />
<path d="M101.7400 149.8600
L107.3867 149.8600
" />
<path d="M93.9800 99.0600
L93.9800 53.3400
" />
<path d="M109.2200 127.0000
L109.2200 122.6400
" />
<path d="M107.3867 149.8600
L116.8400 140.4067
" />
<path d="M116.8400 140.4067
L116.8400 134.6200
" />
<path d="M101.6000 106.6800
L93.9800 99.0600
" />
<path d="M109.2200 122.6400
L101.6000 115.0200
" />
<path d="M144.7800 81.2800
L144.7800 53.3400
" />
<path d="M121.9200 104.1400
L144.7800 81.2800
" />
<path d="M130.9351 49.8400
L141.2800 49.8400
" />
<path d="M121.9200 102.9950
L121.9200 104.1400
" />
<path d="M141.2800 49.8400
L144.7800 53.3400
" />
<path d="M75.5347 43.7561
L72.6682 43.7561
" />
<path d="M50.8000 147.9200
L52.7400 149.8600
" />
<path d="M72.6682 43.7561
L50.8000 65.6243
" />
<path d="M50.8000 65.6243
L50.8000 147.9200
" />
<path d="M99.0500 126.7700
L99.0500 129.5400
" />
<path d="M80.5300 127.0000
L81.2800 127.0000
" />
<path d="M101.6000 124.2200
L99.0500 126.7700
" />
<path d="M83.8200 129.5400
L99.0500 129.5400
" />
<path d="M81.2800 127.0000
L83.8200 129.5400
" />
<path d="M99.0600 157.4800
L95.3694 153.7894
" />
<path d="M92.8194 132.8590
L80.5907 132.8590
" />
<path d="M139.6579 139.7891
L139.6579 149.9021
" />
<path d="M132.0800 157.4800
L99.0600 157.4800
" />
<path d="M95.3694 135.4090
L92.8194 132.8590
" />
<path d="M78.9100 108.0913
L75.5347 104.7161
" />
<path d="M139.6579 149.9021
L132.0800 157.4800
" />
<path d="M78.9100 121.7500
L78.9100 108.0913
" />
<path d="M95.3694 153.7894
L95.3694 135.4090
" />
<path d="M76.4300 128.6983
L76.4300 124.2300
" />
<path d="M80.5907 132.8590
L76.4300 128.6983
" />
<path d="M76.4300 124.2300
L78.9100 121.7500
" />
<path d="M98.5656 44.1078
L89.3047 44.1078
" />
<path d="M121.9200 67.4623
L98.5656 44.1078
" />
<path d="M121.9200 69.7250
L121.9200 67.4623
" />
</g>
<g >
</g>
</g>
<g style="fill:#FFFFFF; fill-opacity:0.0; 
stroke:#FFFFFF; stroke-width:2.0000; stroke-opacity:1; 
stroke-linecap:round; stroke-linejoin:round;">
</g>
<g style="fill:#2F2D31; fill-opacity:0.0; 
stroke:#2F2D31; stroke-width:2.0000; stroke-opacity:1; 
stroke-linecap:round; stroke-linejoin:round;">
</g>
<g style="fill:#2F2D31; fill-opacity:0.0; 
stroke:#2F2D31; stroke-width:0.1000; stroke-opacity:1; 
stroke-linecap:round; stroke-linejoin:round;">
<path d="M52.3969 39.6078 A4.5000 4.5000 0.0 0 0 47.8969 44.1078" />
<path d="M144.2149 160.3679
L52.3969 160.4659
" />
<path d="M144.2149 160.3679 A4.5001 4.5001 0.0 0 0 148.7149 155.8679" />
<path d="M47.8969 155.9659
L47.8969 44.1078
" />
<path d="M47.8969 155.9659 A4.5000 4.5000 0.0 0 0 52.3969 160.4659" />
<path d="M148.7149 44.1078
L148.7149 155.8679
" />
<path d="M52.3969 39.6078
L144.2149 39.6078
" />
<path d="M148.7149 44.1078 A4.5000 4.5000 0.0 0 0 144.2149 39.6078" />
<g >
</g>
<g >
</g>
<g >
</g>
<g >
</g>
<g >
</g>
<g >
</g>
<g >
</g>
<g >
</g>
<g >
</g>
<g >
</g>
<g >
</g>
<g >
</g>
<g >
</g>
<g >
</g>
<g >
</g>
<g >
</g>
<g >
</g>
</g> 
</svg>
