<?xml version="1.0" standalone="no"?>
 <!DOCTYPE svg PUBLIC "-//W3C//DTD SVG 1.1//EN" 
 "http://www.w3.org/Graphics/SVG/1.1/DTD/svg11.dtd"> 
<svg
  xmlns:svg="http://www.w3.org/2000/svg"
  xmlns="http://www.w3.org/2000/svg"
  xmlns:xlink="http://www.w3.org/1999/xlink"
  version="1.1"
  width="297.0022mm" height="210.0072mm" viewBox="0.0000 0.0000 297.0022 210.0072">
<title>SVG Image created as X-over for bookshelf-1-F_Silkscreen.svg date 2024/02/22 17:54:12 </title>
  <desc>Image generated by PCBNEW </desc>
<g style="fill:#000000; fill-opacity:1.0000;stroke:#000000; stroke-opacity:1.0000;
stroke-linecap:round; stroke-linejoin:round;"
 transform="translate(0 0) scale(1 1)">
</g>
<g style="fill:#000000; fill-opacity:0.0; 
stroke:#000000; stroke-width:0.0000; stroke-opacity:1; 
stroke-linecap:round; stroke-linejoin:round;">
</g>
<g style="fill:#000000; fill-opacity:1.0000; 
stroke:#000000; stroke-width:0.0212; stroke-opacity:1; 
stroke-linecap:round; stroke-linejoin:round;">
<rect x="41.451750" y="32.871739" width="124.916821" height="137.816223" rx="0.000000" />
</g>
<g style="fill:#FFFFFF; fill-opacity:1.0000; 
stroke:#FFFFFF; stroke-width:0.0212; stroke-opacity:1; 
stroke-linecap:round; stroke-linejoin:round;">
</g>
<g style="fill:#0D115E; fill-opacity:1.0000; 
stroke:#0D115E; stroke-width:0.0212; stroke-opacity:1; 
stroke-linecap:round; stroke-linejoin:round;">
</g>
<g style="fill:#0D115E; fill-opacity:1.0000; 
stroke:#0D115E; stroke-width:0.3750; stroke-opacity:1; 
stroke-linecap:round; stroke-linejoin:round;">
</g>
<g style="fill:#0D115E; fill-opacity:0.0; 
stroke:#0D115E; stroke-width:0.3750; stroke-opacity:1; 
stroke-linecap:round; stroke-linejoin:round;">
<text x="98.1405" y="134.4367"
textLength="7.3250" font-size="2.0000" lengthAdjust="spacingAndGlyphs"
text-anchor="start" opacity="0">INPUT</text>
<g class="stroked-text"><desc>INPUT</desc>
<path d="M98.7444 134.2337
L98.7444 132.7337
" />
<path d="M99.4587 134.2337
L99.4587 132.7337
" />
<path d="M99.4587 132.7337
L100.3158 134.2337
" />
<path d="M100.3158 134.2337
L100.3158 132.7337
" />
<path d="M101.0301 134.2337
L101.0301 132.7337
" />
<path d="M101.0301 132.7337
L101.6015 132.7337
" />
<path d="M101.6015 132.7337
L101.7444 132.8051
" />
<path d="M101.7444 132.8051
L101.8158 132.8765
" />
<path d="M101.8158 132.8765
L101.8872 133.0194
" />
<path d="M101.8872 133.0194
L101.8872 133.2337
" />
<path d="M101.8872 133.2337
L101.8158 133.3765
" />
<path d="M101.8158 133.3765
L101.7444 133.4479
" />
<path d="M101.7444 133.4479
L101.6015 133.5194
" />
<path d="M101.6015 133.5194
L101.0301 133.5194
" />
<path d="M102.5301 132.7337
L102.5301 133.9479
" />
<path d="M102.5301 133.9479
L102.6015 134.0908
" />
<path d="M102.6015 134.0908
L102.6729 134.1622
" />
<path d="M102.6729 134.1622
L102.8158 134.2337
" />
<path d="M102.8158 134.2337
L103.1015 134.2337
" />
<path d="M103.1015 134.2337
L103.2444 134.1622
" />
<path d="M103.2444 134.1622
L103.3158 134.0908
" />
<path d="M103.3158 134.0908
L103.3872 133.9479
" />
<path d="M103.3872 133.9479
L103.3872 132.7337
" />
<path d="M103.8872 132.7337
L104.7444 132.7337
" />
<path d="M104.3158 134.2337
L104.3158 132.7337
" />
</g></g>
<g style="fill:#0D115E; fill-opacity:0.0; 
stroke:#0D115E; stroke-width:0.2500; stroke-opacity:1; 
stroke-linecap:round; stroke-linejoin:round;">
<text x="86.0604" y="136.5611"
textLength="2.8262" font-size="2.6667" lengthAdjust="spacingAndGlyphs"
text-anchor="start" opacity="0">-</text>
<g class="stroked-text"><desc>-</desc>
<path d="M86.7010 135.5414
L88.2248 135.5414
" />
</g></g>
<g style="fill:#0D115E; fill-opacity:0.0; 
stroke:#0D115E; stroke-width:0.5000; stroke-opacity:1; 
stroke-linecap:round; stroke-linejoin:round;">
<text x="137.1600" y="45.7200"
textLength="7.3857" font-size="2.6667" lengthAdjust="spacingAndGlyphs"
text-anchor="start" opacity="0">v0.7</text>
<g class="stroked-text"><desc>v0.7</desc>
<path d="M137.7747 44.1159
L138.2509 45.4492
" />
<path d="M138.2509 45.4492
L138.7270 44.1159
" />
<path d="M139.8699 43.4492
L140.0604 43.4492
" />
<path d="M140.0604 43.4492
L140.2509 43.5445
" />
<path d="M140.2509 43.5445
L140.3461 43.6397
" />
<path d="M140.3461 43.6397
L140.4413 43.8302
" />
<path d="M140.4413 43.8302
L140.5366 44.2111
" />
<path d="M140.5366 44.2111
L140.5366 44.6873
" />
<path d="M140.5366 44.6873
L140.4413 45.0683
" />
<path d="M140.4413 45.0683
L140.3461 45.2588
" />
<path d="M140.3461 45.2588
L140.2509 45.3540
" />
<path d="M140.2509 45.3540
L140.0604 45.4492
" />
<path d="M140.0604 45.4492
L139.8699 45.4492
" />
<path d="M139.8699 45.4492
L139.6794 45.3540
" />
<path d="M139.6794 45.3540
L139.5842 45.2588
" />
<path d="M139.5842 45.2588
L139.4889 45.0683
" />
<path d="M139.4889 45.0683
L139.3937 44.6873
" />
<path d="M139.3937 44.6873
L139.3937 44.2111
" />
<path d="M139.3937 44.2111
L139.4889 43.8302
" />
<path d="M139.4889 43.8302
L139.5842 43.6397
" />
<path d="M139.5842 43.6397
L139.6794 43.5445
" />
<path d="M139.6794 43.5445
L139.8699 43.4492
" />
<path d="M141.3937 45.2588
L141.4889 45.3540
" />
<path d="M141.4889 45.3540
L141.3937 45.4492
" />
<path d="M141.3937 45.4492
L141.2985 45.3540
" />
<path d="M141.2985 45.3540
L141.3937 45.2588
" />
<path d="M141.3937 45.2588
L141.3937 45.4492
" />
<path d="M142.1556 43.4492
L143.4889 43.4492
" />
<path d="M143.4889 43.4492
L142.6318 45.4492
" />
</g></g>
<g style="fill:#0D115E; fill-opacity:0.0; 
stroke:#0D115E; stroke-width:0.1875; stroke-opacity:1; 
stroke-linecap:round; stroke-linejoin:round;">
<g transform="rotate(-45.000000 50.8596 59.0503)">
<text x="50.8596" y="59.0503"
textLength="23.0174" font-size="3.3333" lengthAdjust="spacingAndGlyphs"
text-anchor="start" opacity="0">Lyd By Dissing</text>
</g>
<g class="stroked-text"><desc>Lyd By Dissing</desc>
</g>
<g style="fill:#0D115E; fill-opacity:1.0000; 
stroke:#0D115E; stroke-width:0.0000; stroke-opacity:1; 
stroke-linecap:round; stroke-linejoin:round;">
<path style="fill:#0D115E; fill-opacity:1.0000; 
stroke:#0D115E; stroke-width:0.0000; stroke-opacity:1; 
stroke-linecap:round; stroke-linejoin:round;fill-rule:evenodd;"
d="M 51.5448,57.1380
51.8578,57.4510
50.6972,58.6116
48.9425,56.8569
49.3570,56.4424
50.7987,57.8841
Z" /> 
<path style="fill:#0D115E; fill-opacity:1.0000; 
stroke:#0D115E; stroke-width:0.0000; stroke-opacity:1; 
stroke-linecap:round; stroke-linejoin:round;fill-rule:evenodd;"
d="M 52.6833,56.9579
52.6943,56.9804
52.7048,57.0038
52.7151,57.0283
52.7249,57.0539
52.7344,57.0805
52.7435,57.1081
52.7522,57.1368
52.7606,57.1665
52.7678,57.1970
52.7731,57.2282
52.7763,57.2601
52.7776,57.2927
52.7772,57.3175
52.7757,57.3427
52.7732,57.3683
52.7695,57.3942
52.7646,57.4206
52.7628,57.4294
52.7560,57.4561
52.7471,57.4829
52.7362,57.5099
52.7232,57.5369
52.7081,57.5641
52.6909,57.5914
52.6716,57.6188
52.6503,57.6464
52.6268,57.6741
52.6101,57.6926
52.5924,57.7111
52.5832,57.7204
52.5059,57.7977
52.3910,57.8668
52.1009,57.5767
52.1544,57.5231
52.1720,57.5051
52.1930,57.4817
52.2114,57.4593
52.2271,57.4377
52.2402,57.4170
52.2527,57.3923
52.2611,57.3689
52.2641,57.3556
52.2671,57.3291
52.2666,57.3024
52.2626,57.2756
52.2552,57.2486
52.2443,57.2214
52.2399,57.2122
52.1881,57.0931
50.4187,56.2373
50.8548,55.8012
51.7965,56.3267
51.2792,55.3768
51.7166,54.9394
Z" /> 
<path style="fill:#0D115E; fill-opacity:1.0000; 
stroke:#0D115E; stroke-width:0.0000; stroke-opacity:1; 
stroke-linecap:round; stroke-linejoin:round;fill-rule:evenodd;"
d="M 54.2791,55.0297
53.9152,55.3937
53.7584,55.2749
53.7622,55.3112
53.7642,55.3467
53.7643,55.3814
53.7628,55.4153
53.7594,55.4484
53.7542,55.4807
53.7473,55.5122
53.7386,55.5428
53.7281,55.5727
53.7158,55.6018
53.7017,55.6300
53.6859,55.6575
53.6683,55.6842
53.6489,55.7100
53.6277,55.7351
53.6047,55.7594
53.5735,55.7891
53.5417,55.8165
53.5094,55.8415
53.4766,55.8642
53.4433,55.8844
53.4094,55.9022
53.3750,55.9177
53.3401,55.9308
53.3046,55.9414
53.2686,55.9497
53.2321,55.9556
53.1951,55.9592
53.1575,55.9603
53.1194,55.9590
53.0808,55.9554
53.0417,55.9493
53.0024,55.9412
52.9634,55.9313
52.9246,55.9197
52.8861,55.9063
52.8478,55.8911
52.8097,55.8742
52.7719,55.8555
52.7344,55.8350
52.6971,55.8128
52.6600,55.7888
52.6232,55.7631
52.5867,55.7355
52.5503,55.7062
52.5143,55.6752
52.4784,55.6424
52.4606,55.6253
52.4428,55.6078
52.4126,55.5776
52.3942,55.5590
52.3763,55.5403
52.3589,55.5216
52.3419,55.5029
52.3254,55.4841
52.3094,55.4653
52.2788,55.4277
52.2501,55.3899
52.2233,55.3520
52.1984,55.3139
52.1754,55.2758
52.1542,55.2375
52.1350,55.1991
52.1177,55.1606
52.1022,55.1220
52.0887,55.0832
52.0770,55.0443
52.0673,55.0053
52.0594,54.9662
52.0537,54.9272
52.0503,54.8887
52.0493,54.8507
52.0507,54.8133
52.0545,54.7763
52.0546,54.7755
52.5929,54.7755
52.5937,54.8011
52.5975,54.8273
52.6042,54.8540
52.6104,54.8721
52.6217,54.8997
52.6352,54.9280
52.6508,54.9568
52.6687,54.9862
52.6888,55.0162
52.7034,55.0365
52.7190,55.0571
52.7355,55.0779
52.7530,55.0990
52.7715,55.1204
52.7910,55.1420
52.8115,55.1639
52.8329,55.1860
52.8440,55.1972
52.8624,55.2153
52.8808,55.2327
52.8992,55.2494
52.9267,55.2732
52.9541,55.2953
52.9814,55.3159
53.0087,55.3349
53.0359,55.3523
53.0630,55.3682
53.0901,55.3824
53.1170,55.3951
53.1350,55.4027
53.1615,55.4119
53.1877,55.4181
53.2134,55.4212
53.2386,55.4211
53.2634,55.4180
53.2878,55.4119
53.3118,55.4026
53.3352,55.3903
53.3583,55.3748
53.3809,55.3563
53.3958,55.3423
53.4194,55.3166
53.4397,55.2904
53.4567,55.2636
53.4703,55.2361
53.4806,55.2081
53.4875,55.1794
53.4911,55.1502
53.4914,55.1204
53.4883,55.0899
53.4818,55.0589
53.4756,55.0379
52.9735,54.5357
52.9423,54.5264
52.9116,54.5204
52.8816,54.5179
52.8521,54.5188
52.8231,54.5231
52.7948,54.5308
52.7670,54.5420
52.7398,54.5565
52.7131,54.5745
52.6870,54.5960
52.6700,54.6122
52.6501,54.6338
52.6331,54.6560
52.6192,54.6788
52.6081,54.7021
52.6001,54.7260
52.5950,54.7505
52.5929,54.7755
52.0546,54.7755
52.0607,54.7398
52.0692,54.7038
52.0802,54.6683
52.0935,54.6333
52.1092,54.5988
52.1273,54.5648
52.1478,54.5313
52.1707,54.4983
52.1960,54.4658
52.2237,54.4338
52.2537,54.4023
52.2759,54.3813
52.2986,54.3617
52.3220,54.3437
52.3460,54.3271
52.3706,54.3120
52.3959,54.2985
52.4217,54.2864
52.4482,54.2758
52.4754,54.2667
52.5031,54.2592
52.5315,54.2531
52.5606,54.2485
52.5902,54.2454
52.6205,54.2438
52.6514,54.2438
52.6829,54.2452
52.0219,53.5841
52.4277,53.1783
Z" /> 
<path style="fill:#0D115E; fill-opacity:1.0000; 
stroke:#0D115E; stroke-width:0.0000; stroke-opacity:1; 
stroke-linecap:round; stroke-linejoin:round;fill-rule:evenodd;"
d="M 54.8625,51.3700
54.8977,51.3748
54.9323,51.3820
54.9665,51.3916
55.0002,51.4037
55.0335,51.4182
55.0662,51.4350
55.0985,51.4543
55.1303,51.4761
55.1617,51.5002
55.1926,51.5267
55.2230,51.5557
55.2444,51.5781
55.2645,51.6011
55.2833,51.6247
55.3009,51.6491
55.3172,51.6741
55.3323,51.6997
55.3461,51.7260
55.3586,51.7530
55.3698,51.7806
55.3798,51.8089
55.3858,51.8281
55.3931,51.8573
55.3982,51.8870
55.4011,51.9173
55.4017,51.9481
55.4001,51.9794
55.3962,52.0113
55.3900,52.0437
55.3816,52.0766
55.3710,52.1101
55.3581,52.1441
55.3482,52.1671
55.3717,52.1541
55.3951,52.1424
55.4183,52.1319
55.4413,52.1226
55.4756,52.1110
55.5096,52.1021
55.5432,52.0959
55.5765,52.0925
55.6094,52.0918
55.6420,52.0939
55.6742,52.0987
55.7061,52.1062
55.7374,52.1156
55.7679,52.1263
55.7975,52.1383
55.8263,52.1516
55.8542,52.1662
55.8812,52.1822
55.9074,52.1994
55.9328,52.2179
55.9573,52.2378
55.9810,52.2589
55.9963,52.2737
56.0276,52.3063
56.0566,52.3391
56.0833,52.3722
56.1078,52.4055
56.1300,52.4391
56.1499,52.4729
56.1675,52.5070
56.1829,52.5413
56.1960,52.5759
56.2068,52.6107
56.2153,52.6458
56.2216,52.6812
56.2255,52.7168
56.2272,52.7526
56.2267,52.7887
56.2238,52.8251
56.2187,52.8616
56.2114,52.8984
56.2018,52.9354
56.1899,52.9727
56.1758,53.0102
56.1594,53.0479
56.1407,53.0859
56.1198,53.1241
56.0965,53.1625
56.0711,53.2012
56.0433,53.2401
56.0286,53.2596
56.0133,53.2793
55.9975,53.2989
55.9810,53.3186
55.9641,53.3384
55.9465,53.3582
55.9284,53.3781
55.9097,53.3981
55.8904,53.4181
55.8706,53.4382
55.1617,54.1472
54.0011,52.9866
54.8301,52.9866
55.2631,53.4196
55.5494,53.1334
55.5732,53.1085
55.5946,53.0839
55.6136,53.0596
55.6301,53.0355
55.6443,53.0117
55.6560,52.9882
55.6654,52.9650
55.6741,52.9344
55.6784,52.9043
55.6789,52.8821
55.6766,52.8531
55.6718,52.8251
55.6643,52.7980
55.6542,52.7719
55.6415,52.7467
55.6262,52.7225
55.6083,52.6993
55.5878,52.6770
55.5598,52.6507
55.5319,52.6278
55.5041,52.6084
55.4764,52.5924
55.4487,52.5798
55.4211,52.5706
55.3936,52.5649
55.3661,52.5626
55.3387,52.5637
55.3114,52.5682
55.2842,52.5762
55.2570,52.5876
55.2300,52.6024
55.2029,52.6207
55.1760,52.6424
55.1491,52.6675
54.8301,52.9866
54.0011,52.9866
53.4208,52.4063
53.5223,52.3048
54.1483,52.3048
54.5537,52.7102
54.7679,52.4961
54.7865,52.4771
54.8041,52.4584
54.8205,52.4400
54.8432,52.4129
54.8634,52.3865
54.8811,52.3608
54.8965,52.3358
54.9094,52.3115
54.9199,52.2878
54.9300,52.2573
54.9359,52.2280
54.9379,52.1994
54.9363,52.1714
54.9312,52.1439
54.9226,52.1169
54.9104,52.0904
54.8946,52.0645
54.8754,52.0391
54.8586,52.0204
54.8525,52.0142
54.8264,51.9902
54.7999,51.9700
54.7728,51.9534
54.7453,51.9405
54.7172,51.9314
54.6887,51.9260
54.6597,51.9243
54.6303,51.9263
54.6003,51.9320
54.5699,51.9414
54.5390,51.9546
54.5076,51.9714
54.4757,51.9920
54.4433,52.0163
54.4105,52.0443
54.3772,52.0760
54.1483,52.3048
53.5223,52.3048
54.0529,51.7742
54.0732,51.7541
54.0934,51.7345
54.1137,51.7155
54.1338,51.6969
54.1539,51.6789
54.1740,51.6613
54.1940,51.6443
54.2140,51.6278
54.2339,51.6117
54.2538,51.5962
54.2737,51.5812
54.2935,51.5666
54.3329,51.5391
54.3722,51.5136
54.4113,51.4901
54.4502,51.4686
54.4889,51.4492
54.5275,51.4317
54.5658,51.4163
54.6040,51.4029
54.6420,51.3915
54.6798,51.3821
54.7173,51.3749
54.7543,51.3700
54.7909,51.3676
54.8269,51.3676
Z" /> 
<path style="fill:#0D115E; fill-opacity:1.0000; 
stroke:#0D115E; stroke-width:0.0000; stroke-opacity:1; 
stroke-linecap:round; stroke-linejoin:round;fill-rule:evenodd;"
d="M 57.5536,52.0876
57.5646,52.1101
57.5752,52.1335
57.5854,52.1580
57.5952,52.1836
57.6047,52.2102
57.6138,52.2378
57.6225,52.2665
57.6309,52.2962
57.6381,52.3267
57.6434,52.3579
57.6466,52.3898
57.6479,52.4224
57.6475,52.4472
57.6460,52.4724
57.6435,52.4980
57.6398,52.5239
57.6349,52.5503
57.6331,52.5591
57.6263,52.5858
57.6174,52.6126
57.6065,52.6396
57.5935,52.6666
57.5784,52.6938
57.5612,52.7211
57.5419,52.7485
57.5206,52.7761
57.4971,52.8038
57.4804,52.8223
57.4627,52.8408
57.4535,52.8501
57.3762,52.9274
57.2613,52.9965
56.9712,52.7064
57.0247,52.6528
57.0423,52.6348
57.0633,52.6114
57.0817,52.5890
57.0974,52.5674
57.1105,52.5467
57.1230,52.5220
57.1314,52.4986
57.1344,52.4853
57.1374,52.4588
57.1369,52.4321
57.1329,52.4053
57.1255,52.3783
57.1146,52.3511
57.1102,52.3419
57.0584,52.2228
55.2890,51.3670
55.7251,50.9309
56.6668,51.4564
56.1495,50.5065
56.5869,50.0691
Z" /> 
<path style="fill:#0D115E; fill-opacity:1.0000; 
stroke:#0D115E; stroke-width:0.0000; stroke-opacity:1; 
stroke-linecap:round; stroke-linejoin:round;fill-rule:evenodd;"
d="M 58.3361,47.9930
58.3726,47.9953
58.4091,47.9988
58.4456,48.0036
58.4822,48.0097
58.5188,48.0170
58.5554,48.0256
58.5920,48.0355
58.6284,48.0466
58.6645,48.0590
58.7002,48.0727
58.7355,48.0876
58.7705,48.1038
58.8051,48.1212
58.8393,48.1400
58.8732,48.1600
58.9067,48.1813
58.9399,48.2038
58.9727,48.2276
59.0052,48.2527
59.0372,48.2791
59.0690,48.3067
59.1003,48.3356
59.1313,48.3658
59.2043,48.4388
59.2269,48.4618
59.2488,48.4851
59.2700,48.5085
59.2905,48.5321
59.3103,48.5559
59.3294,48.5798
59.3477,48.6039
59.3654,48.6283
59.3824,48.6527
59.3986,48.6774
59.4142,48.7023
59.4290,48.7273
59.4432,48.7525
59.4566,48.7779
59.4693,48.8035
59.4814,48.8292
59.4927,48.8551
59.5033,48.8813
59.5132,48.9075
59.5224,48.9340
59.5309,48.9607
59.5387,48.9875
59.5458,49.0145
59.5521,49.0417
59.5578,49.0690
59.5628,49.0966
59.5670,49.1243
59.5706,49.1522
59.5734,49.1803
59.5756,49.2086
59.5770,49.2370
59.5778,49.2656
59.5778,49.2942
59.5771,49.3226
59.5757,49.3508
59.5736,49.3788
59.5708,49.4066
59.5673,49.4342
59.5631,49.4616
59.5582,49.4888
59.5526,49.5157
59.5463,49.5425
59.5393,49.5691
59.5316,49.5954
59.5232,49.6216
59.5140,49.6475
59.5042,49.6733
59.4937,49.6988
59.4824,49.7241
59.4705,49.7492
59.4578,49.7742
59.4445,49.7989
59.4304,49.8234
59.4157,49.8477
59.4002,49.8718
59.3840,49.8957
59.3672,49.9194
59.3496,49.9429
59.3313,49.9662
59.3123,49.9892
59.2926,50.0121
59.2722,50.0348
59.2511,50.0572
59.2293,50.0795
58.6555,50.6533
56.9146,48.9124
56.9975,48.8295
57.6607,48.8295
58.7570,49.9258
58.9111,49.7717
58.9335,49.7484
58.9542,49.7249
58.9734,49.7013
58.9909,49.6776
59.0068,49.6536
59.0210,49.6295
59.0337,49.6052
59.0447,49.5808
59.0542,49.5561
59.0620,49.5313
59.0681,49.5064
59.0727,49.4812
59.0756,49.4559
59.0770,49.4304
59.0767,49.4048
59.0747,49.3790
59.0712,49.3530
59.0661,49.3268
59.0593,49.3005
59.0509,49.2740
59.0409,49.2473
59.0293,49.2205
59.0160,49.1934
59.0011,49.1663
58.9846,49.1389
58.9665,49.1114
58.9468,49.0837
58.9255,49.0558
58.9025,49.0278
58.8779,48.9996
58.8517,48.9712
58.8239,48.9427
58.6892,48.8080
58.6579,48.7773
58.6268,48.7484
58.5960,48.7212
58.5654,48.6957
58.5352,48.6719
58.5052,48.6498
58.4754,48.6294
58.4459,48.6107
58.4167,48.5937
58.3878,48.5784
58.3591,48.5648
58.3307,48.5529
58.3025,48.5427
58.2746,48.5342
58.2470,48.5274
58.2196,48.5223
58.1925,48.5190
58.1657,48.5173
58.1391,48.5173
58.1128,48.5190
58.0868,48.5224
58.0610,48.5276
58.0355,48.5344
58.0103,48.5429
57.9853,48.5531
57.9606,48.5651
57.9361,48.5787
57.9120,48.5940
57.8880,48.6111
57.8644,48.6298
57.8410,48.6502
57.8179,48.6724
57.6607,48.8295
56.9975,48.8295
57.4802,48.3468
57.5102,48.3177
57.5406,48.2897
57.5714,48.2631
57.6026,48.2376
57.6343,48.2135
57.6663,48.1905
57.6987,48.1689
57.7315,48.1484
57.7648,48.1292
57.7984,48.1113
57.8324,48.0946
57.8669,48.0792
57.9017,48.0650
57.9370,48.0521
57.9727,48.0404
58.0087,48.0299
58.0450,48.0207
58.0813,48.0128
58.1176,48.0062
58.1540,48.0008
58.1904,47.9967
58.2268,47.9939
58.2632,47.9923
58.2996,47.9920
Z" /> 
<path style="fill:#0D115E; fill-opacity:1.0000; 
stroke:#0D115E; stroke-width:0.0000; stroke-opacity:1; 
stroke-linecap:round; stroke-linejoin:round;fill-rule:evenodd;"
d="M 58.5709,47.4220
58.5512,47.4003
58.5343,47.3777
58.5203,47.3541
58.5091,47.3296
58.5009,47.3041
58.4954,47.2776
58.4929,47.2501
58.4932,47.2216
58.4964,47.1929
58.5025,47.1647
58.5114,47.1371
58.5232,47.1100
58.5378,47.0836
58.5552,47.0576
58.5754,47.0323
58.5925,47.0136
58.5985,47.0075
58.6170,46.9899
58.6359,46.9739
58.6615,46.9551
58.6877,46.9392
58.7144,46.9261
58.7416,46.9158
58.7695,46.9084
58.7978,46.9038
58.8122,46.9026
58.8408,46.9022
58.8683,46.9047
58.8949,46.9100
58.9205,46.9182
58.9451,46.9293
58.9687,46.9433
58.9914,46.9601
59.0130,46.9799
59.0327,47.0015
59.0496,47.0241
59.0635,47.0478
59.0746,47.0724
59.0829,47.0980
59.0882,47.1245
59.0907,47.1521
59.0903,47.1806
59.0871,47.2093
59.0811,47.2374
59.0723,47.2649
59.0606,47.2919
59.0461,47.3184
59.0287,47.3442
59.0085,47.3696
58.9914,47.3882
58.9854,47.3944
58.9668,47.4119
58.9480,47.4279
58.9223,47.4468
58.8961,47.4628
58.8694,47.4759
58.8420,47.4863
58.8141,47.4938
58.7857,47.4984
58.7712,47.4997
58.7428,47.5000
58.7153,47.4974
58.6888,47.4920
58.6633,47.4837
58.6387,47.4726
58.6151,47.4586
58.5925,47.4417
Z" /> 
<path style="fill:#0D115E; fill-opacity:1.0000; 
stroke:#0D115E; stroke-width:0.0000; stroke-opacity:1; 
stroke-linecap:round; stroke-linejoin:round;fill-rule:evenodd;"
d="M 59.3360,47.3201
60.6347,48.6188
60.2289,49.0247
58.9301,47.7260
Z" /> 
<path style="fill:#0D115E; fill-opacity:1.0000; 
stroke:#0D115E; stroke-width:0.0000; stroke-opacity:1; 
stroke-linecap:round; stroke-linejoin:round;fill-rule:evenodd;"
d="M 61.2301,47.3387
61.2096,47.3223
61.1864,47.3113
61.1605,47.3057
61.1318,47.3055
61.1059,47.3094
61.0894,47.3136
61.0656,47.3214
61.0390,47.3320
61.0096,47.3453
60.9856,47.3572
60.9601,47.3707
60.9330,47.3857
60.9043,47.4023
60.8740,47.4205
60.8529,47.4335
60.8311,47.4473
60.8199,47.4544
60.7908,47.4727
60.7617,47.4901
60.7326,47.5066
60.7036,47.5223
60.6747,47.5371
60.6458,47.5510
60.6170,47.5641
60.5882,47.5762
60.5595,47.5875
60.5308,47.5980
60.5022,47.6075
60.4737,47.6162
60.4452,47.6240
60.4168,47.6309
60.3884,47.6370
60.3601,47.6422
60.3321,47.6461
60.3045,47.6483
60.2774,47.6490
60.2507,47.6480
60.2245,47.6455
60.1987,47.6413
60.1734,47.6355
60.1484,47.6280
60.1240,47.6190
60.0999,47.6084
60.0764,47.5961
60.0532,47.5822
60.0305,47.5667
60.0082,47.5496
59.9864,47.5308
59.9650,47.5105
59.9453,47.4896
59.9269,47.4679
59.9100,47.4454
59.8945,47.4221
59.8805,47.3981
59.8679,47.3732
59.8567,47.3476
59.8470,47.3212
59.8387,47.2940
59.8318,47.2659
59.8264,47.2371
59.8224,47.2076
59.8199,47.1772
59.8187,47.1460
59.8191,47.1141
59.8208,47.0813
59.8242,47.0482
59.8295,47.0150
59.8366,46.9819
59.8456,46.9489
59.8566,46.9158
59.8694,46.8828
59.8840,46.8499
59.9006,46.8170
59.9191,46.7841
59.9394,46.7513
59.9616,46.7185
59.9857,46.6857
60.0117,46.6530
60.0396,46.6203
60.0694,46.5876
60.1011,46.5550
60.1344,46.5226
60.1679,46.4919
60.2014,46.4630
60.2350,46.4360
60.2687,46.4108
60.3024,46.3873
60.3362,46.3657
60.3700,46.3458
60.4040,46.3278
60.4380,46.3115
60.4720,46.2971
60.5062,46.2845
60.5404,46.2736
60.5746,46.2646
60.6090,46.2573
60.6433,46.2519
60.6775,46.2483
60.7109,46.2464
60.7437,46.2463
60.7758,46.2480
60.8073,46.2514
60.8380,46.2566
60.8682,46.2636
60.8977,46.2724
60.9265,46.2830
60.9546,46.2953
60.9821,46.3094
61.0089,46.3253
61.0351,46.3429
61.0606,46.3623
61.0855,46.3835
61.1097,46.4065
60.7038,46.8123
60.6845,46.7944
60.6651,46.7790
60.6356,46.7607
60.6059,46.7481
60.5758,46.7413
60.5453,46.7402
60.5146,46.7449
60.4835,46.7553
60.4520,46.7714
60.4309,46.7853
60.4096,46.8018
60.3882,46.8209
60.3774,46.8313
60.3582,46.8522
60.3415,46.8738
60.3274,46.8961
60.3159,46.9191
60.3070,46.9428
60.3006,46.9673
60.2988,46.9773
60.2963,47.0017
60.2979,47.0294
60.3043,47.0556
60.3157,47.0800
60.3320,47.1029
60.3420,47.1137
60.3622,47.1300
60.3852,47.1414
60.4111,47.1479
60.4399,47.1494
60.4715,47.1460
60.5059,47.1377
60.5304,47.1295
60.5562,47.1190
60.5833,47.1063
60.6116,47.0915
60.6412,47.0745
60.6721,47.0552
60.7042,47.0338
60.7368,47.0117
60.7692,46.9906
60.8014,46.9703
60.8333,46.9510
60.8651,46.9327
60.8966,46.9152
60.9279,46.8987
60.9590,46.8831
60.9898,46.8685
61.0205,46.8548
61.0509,46.8420
61.0812,46.8301
61.1112,46.8192
61.1410,46.8092
61.1705,46.8002
61.1999,46.7920
61.2290,46.7854
61.2578,46.7807
61.2863,46.7781
61.3146,46.7776
61.3426,46.7790
61.3704,46.7826
61.3979,46.7882
61.4252,46.7958
61.4522,46.8055
61.4789,46.8172
61.5054,46.8310
61.5316,46.8469
61.5575,46.8647
61.5832,46.8847
61.6086,46.9066
61.6338,46.9306
61.6544,46.9524
61.6733,46.9749
61.6905,46.9982
61.7061,47.0223
61.7201,47.0471
61.7324,47.0727
61.7430,47.0990
61.7520,47.1261
61.7594,47.1540
61.7651,47.1826
61.7691,47.2121
61.7715,47.2422
61.7723,47.2732
61.7714,47.3049
61.7688,47.3374
61.7646,47.3706
61.7588,47.4042
61.7512,47.4377
61.7419,47.4712
61.7308,47.5046
61.7179,47.5380
61.7033,47.5714
61.6870,47.6047
61.6689,47.6380
61.6491,47.6712
61.6275,47.7045
61.6041,47.7376
61.5790,47.7708
61.5522,47.8039
61.5236,47.8369
61.4932,47.8700
61.4611,47.9030
61.4434,47.9204
61.4257,47.9372
61.3903,47.9693
61.3547,47.9993
61.3191,48.0270
61.2835,48.0526
61.2477,48.0760
61.2119,48.0973
61.1760,48.1164
61.1401,48.1333
61.1041,48.1480
61.0680,48.1606
61.0318,48.1710
60.9956,48.1793
60.9593,48.1853
60.9229,48.1892
60.8864,48.1910
60.8505,48.1909
60.8155,48.1895
60.7816,48.1868
60.7488,48.1829
60.7170,48.1777
60.6862,48.1712
60.6564,48.1634
60.6277,48.1544
60.6000,48.1440
60.5734,48.1324
60.5478,48.1196
60.5232,48.1054
60.4996,48.0899
60.4771,48.0732
60.4557,48.0552
60.4352,48.0360
60.8221,47.6491
60.8443,47.6696
60.8668,47.6869
60.8896,47.7010
60.9126,47.7119
60.9358,47.7196
60.9651,47.7247
60.9949,47.7247
61.0069,47.7234
61.0366,47.7170
61.0601,47.7094
61.0833,47.6995
61.1063,47.6873
61.1290,47.6729
61.1514,47.6561
61.1735,47.6372
61.1900,47.6215
61.2090,47.6014
61.2259,47.5817
61.2471,47.5527
61.2633,47.5245
61.2745,47.4969
61.2807,47.4700
61.2820,47.4439
61.2783,47.4184
61.2697,47.3937
61.2560,47.3696
61.2374,47.3463
Z" /> 
<path style="fill:#0D115E; fill-opacity:1.0000; 
stroke:#0D115E; stroke-width:0.0000; stroke-opacity:1; 
stroke-linecap:round; stroke-linejoin:round;fill-rule:evenodd;"
d="M 62.4978,46.0710
62.4773,46.0546
62.4541,46.0436
62.4282,46.0380
62.3995,46.0378
62.3735,46.0418
62.3570,46.0460
62.3333,46.0537
62.3067,46.0643
62.2772,46.0777
62.2533,46.0896
62.2278,46.1030
62.2007,46.1181
62.1720,46.1347
62.1417,46.1529
62.1206,46.1659
62.0988,46.1796
62.0876,46.1867
62.0584,46.2050
62.0293,46.2224
62.0003,46.2390
61.9713,46.2546
61.9423,46.2694
61.9134,46.2834
61.8846,46.2964
61.8559,46.3086
61.8271,46.3199
61.7985,46.3303
61.7699,46.3399
61.7414,46.3485
61.7129,46.3563
61.6844,46.3633
61.6561,46.3693
61.6278,46.3745
61.5998,46.3784
61.5722,46.3807
61.5451,46.3813
61.5184,46.3804
61.4922,46.3778
61.4664,46.3736
61.4410,46.3678
61.4161,46.3604
61.3916,46.3513
61.3676,46.3407
61.3440,46.3284
61.3209,46.3145
61.2982,46.2990
61.2759,46.2819
61.2541,46.2632
61.2327,46.2428
61.2129,46.2219
61.1946,46.2002
61.1776,46.1778
61.1622,46.1545
61.1481,46.1304
61.1355,46.1056
61.1244,46.0799
61.1146,46.0535
61.1063,46.0263
61.0995,45.9983
61.0940,45.9695
61.0901,45.9399
61.0875,45.9095
61.0864,45.8784
61.0867,45.8464
61.0885,45.8137
61.0919,45.7805
61.0971,45.7474
61.1043,45.7143
61.1133,45.6812
61.1242,45.6482
61.1370,45.6152
61.1517,45.5822
61.1683,45.5493
61.1867,45.5164
61.2071,45.4836
61.2293,45.4508
61.2534,45.4180
61.2794,45.3853
61.3073,45.3526
61.3371,45.3200
61.3687,45.2873
61.4021,45.2549
61.4356,45.2242
61.4691,45.1954
61.5027,45.1683
61.5363,45.1431
61.5701,45.1196
61.6038,45.0980
61.6377,45.0782
61.6716,45.0601
61.7056,45.0439
61.7397,45.0294
61.7738,45.0168
61.8080,45.0060
61.8423,44.9969
61.8766,44.9897
61.9110,44.9842
61.9451,44.9806
61.9786,44.9787
62.0113,44.9786
62.0435,44.9803
62.0749,44.9838
62.1057,44.9890
62.1358,44.9960
62.1653,45.0048
62.1941,45.0153
62.2223,45.0276
62.2498,45.0417
62.2766,45.0576
62.3028,45.0752
62.3283,45.0947
62.3531,45.1158
62.3773,45.1388
61.9715,45.5447
61.9522,45.5267
61.9327,45.5114
61.9033,45.4930
61.8735,45.4805
61.8434,45.4737
61.8130,45.4726
61.7822,45.4772
61.7511,45.4876
61.7197,45.5037
61.6985,45.5177
61.6773,45.5342
61.6558,45.5532
61.6450,45.5637
61.6258,45.5845
61.6092,45.6061
61.5951,45.6284
61.5836,45.6514
61.5746,45.6752
61.5683,45.6996
61.5665,45.7096
61.5640,45.7340
61.5655,45.7618
61.5720,45.7879
61.5834,45.8124
61.5996,45.8352
61.6096,45.8460
61.6298,45.8624
61.6529,45.8738
61.6788,45.8802
61.7075,45.8818
61.7391,45.8784
61.7736,45.8701
61.7981,45.8618
61.8239,45.8513
61.8510,45.8387
61.8793,45.8238
61.9089,45.8068
61.9398,45.7876
61.9719,45.7662
62.0045,45.7441
62.0369,45.7229
62.0690,45.7027
62.1010,45.6834
62.1327,45.6650
62.1642,45.6476
62.1955,45.6311
62.2266,45.6155
62.2575,45.6008
62.2882,45.5871
62.3186,45.5743
62.3488,45.5625
62.3788,45.5516
62.4086,45.5416
62.4382,45.5325
62.4676,45.5244
62.4966,45.5177
62.5254,45.5130
62.5540,45.5104
62.5823,45.5099
62.6103,45.5114
62.6381,45.5149
62.6656,45.5205
62.6928,45.5282
62.7198,45.5378
62.7465,45.5496
62.7730,45.5634
62.7992,45.5792
62.8252,45.5971
62.8509,45.6170
62.8763,45.6390
62.9015,45.6630
62.9220,45.6847
62.9409,45.7073
62.9582,45.7305
62.9738,45.7546
62.9877,45.7794
63.0000,45.8050
63.0107,45.8313
63.0197,45.8585
63.0270,45.8863
63.0327,45.9150
63.0368,45.9444
63.0392,45.9746
63.0399,46.0055
63.0390,46.0372
63.0365,46.0697
63.0323,46.1029
63.0265,46.1365
63.0189,46.1700
63.0095,46.2035
62.9984,46.2369
62.9856,46.2703
62.9710,46.3037
62.9547,46.3370
62.9366,46.3703
62.9167,46.4036
62.8951,46.4368
62.8718,46.4700
62.8467,46.5031
62.8198,46.5362
62.7912,46.5693
62.7609,46.6023
62.7288,46.6353
62.7111,46.6527
62.6934,46.6696
62.6579,46.7017
62.6224,46.7316
62.5868,46.7594
62.5511,46.7850
62.5154,46.8084
62.4796,46.8296
62.4437,46.8487
62.4077,46.8656
62.3717,46.8804
62.3356,46.8930
62.2995,46.9034
62.2632,46.9116
62.2269,46.9177
62.1905,46.9216
62.1541,46.9233
62.1181,46.9232
62.0832,46.9218
62.0493,46.9192
62.0164,46.9152
61.9846,46.9100
61.9538,46.9035
61.9241,46.8958
61.8954,46.8867
61.8677,46.8764
61.8410,46.8648
61.8154,46.8519
61.7908,46.8377
61.7673,46.8223
61.7448,46.8056
61.7233,46.7876
61.7029,46.7683
62.0898,46.3814
62.1120,46.4020
62.1345,46.4193
62.1572,46.4334
62.1802,46.4443
62.2034,46.4519
62.2328,46.4570
62.2625,46.4571
62.2746,46.4557
62.3043,46.4493
62.3278,46.4417
62.3510,46.4318
62.3740,46.4196
62.3966,46.4052
62.4191,46.3885
62.4412,46.3695
62.4576,46.3538
62.4767,46.3338
62.4936,46.3141
62.5147,46.2851
62.5309,46.2568
62.5422,46.2292
62.5484,46.2024
62.5497,46.1762
62.5460,46.1507
62.5373,46.1260
62.5237,46.1020
62.5051,46.0786
Z" /> 
<path style="fill:#0D115E; fill-opacity:1.0000; 
stroke:#0D115E; stroke-width:0.0000; stroke-opacity:1; 
stroke-linecap:round; stroke-linejoin:round;fill-rule:evenodd;"
d="M 61.7867,44.2062
61.7669,44.1846
61.7501,44.1620
61.7361,44.1384
61.7249,44.1138
61.7166,44.0883
61.7112,44.0618
61.7086,44.0343
61.7089,44.0059
61.7122,43.9771
61.7183,43.9489
61.7272,43.9213
61.7390,43.8943
61.7535,43.8678
61.7710,43.8419
61.7912,43.8165
61.8083,43.7979
61.8143,43.7917
61.8328,43.7741
61.8517,43.7582
61.8773,43.7394
61.9034,43.7234
61.9302,43.7103
61.9574,43.7000
61.9852,43.6926
62.0136,43.6880
62.0280,43.6868
62.0566,43.6864
62.0841,43.6889
62.1107,43.6942
62.1363,43.7024
62.1609,43.7135
62.1845,43.7275
62.2071,43.7444
62.2288,43.7641
62.2485,43.7857
62.2654,43.8084
62.2793,43.8320
62.2904,43.8566
62.2986,43.8822
62.3040,43.9087
62.3065,43.9363
62.3061,43.9649
62.3029,43.9935
62.2969,44.0216
62.2881,44.0491
62.2764,44.0761
62.2619,44.1026
62.2445,44.1285
62.2242,44.1538
62.2072,44.1724
62.2012,44.1786
62.1826,44.1962
62.1638,44.2121
62.1381,44.2310
62.1119,44.2470
62.0852,44.2601
62.0578,44.2705
62.0299,44.2780
62.0014,44.2827
61.9870,44.2839
61.9586,44.2842
61.9311,44.2817
61.9046,44.2762
61.8791,44.2679
61.8545,44.2568
61.8309,44.2428
61.8083,44.2259
Z" /> 
<path style="fill:#0D115E; fill-opacity:1.0000; 
stroke:#0D115E; stroke-width:0.0000; stroke-opacity:1; 
stroke-linecap:round; stroke-linejoin:round;fill-rule:evenodd;"
d="M 62.5517,44.1043
63.8505,45.4031
63.4446,45.8089
62.1459,44.5102
Z" /> 
<path style="fill:#0D115E; fill-opacity:1.0000; 
stroke:#0D115E; stroke-width:0.0000; stroke-opacity:1; 
stroke-linecap:round; stroke-linejoin:round;fill-rule:evenodd;"
d="M 63.6972,43.5849
63.6758,43.6080
63.6571,43.6316
63.6411,43.6557
63.6279,43.6803
63.6175,43.7054
63.6098,43.7310
63.6049,43.7572
63.6027,43.7838
63.6033,43.8110
63.6067,43.8386
63.6104,43.8573
64.5310,44.7779
64.1251,45.1837
62.8263,43.8850
63.2067,43.5046
63.3699,43.6410
63.3661,43.6019
63.3643,43.5635
63.3647,43.5256
63.3673,43.4884
63.3721,43.4518
63.3789,43.4157
63.3880,43.3804
63.3992,43.3456
63.4125,43.3114
63.4281,43.2779
63.4457,43.2450
63.4656,43.2127
63.4875,43.1810
63.5117,43.1499
63.5379,43.1195
63.5664,43.0897
63.5893,43.0676
63.6126,43.0469
63.6363,43.0276
63.6602,43.0097
63.6845,42.9932
63.7092,42.9781
63.7342,42.9644
63.7595,42.9520
63.7852,42.9411
63.8112,42.9316
63.8375,42.9234
63.8642,42.9167
63.8913,42.9113
63.9186,42.9073
63.9464,42.9048
63.9744,42.9036
64.0028,42.9041
64.0316,42.9069
64.0608,42.9119
64.0904,42.9191
64.1205,42.9285
64.1510,42.9402
64.1819,42.9540
64.2132,42.9701
64.2449,42.9883
64.2771,43.0088
64.3096,43.0315
64.3426,43.0564
64.3760,43.0835
64.4098,43.1129
64.4441,43.1444
64.4787,43.1782
65.3047,44.0041
64.8988,44.4100
64.0780,43.5892
64.0561,43.5682
64.0348,43.5494
64.0140,43.5330
63.9938,43.5188
63.9677,43.5035
63.9426,43.4923
63.9186,43.4851
63.8899,43.4819
63.8734,43.4830
63.8463,43.4887
63.8191,43.4981
63.7917,43.5114
63.7696,43.5248
63.7475,43.5405
63.7252,43.5587
63.7028,43.5794
Z" /> 
<path style="fill:#0D115E; fill-opacity:1.0000; 
stroke:#0D115E; stroke-width:0.0000; stroke-opacity:1; 
stroke-linecap:round; stroke-linejoin:round;fill-rule:evenodd;"
d="M 66.6362,42.5448
66.6687,42.5787
66.6988,42.6131
66.7265,42.6479
66.7518,42.6832
66.7747,42.7189
66.7953,42.7552
66.8134,42.7918
66.8291,42.8290
66.8425,42.8666
66.8534,42.9047
66.8620,42.9432
66.8682,42.9822
66.8720,43.0216
66.8734,43.0616
66.8724,43.1019
66.8690,43.1428
66.8634,43.1837
66.8557,43.2244
66.8460,43.2649
66.8343,43.3051
66.8206,43.3451
66.8048,43.3848
66.7869,43.4243
66.7671,43.4636
66.7452,43.5026
66.7212,43.5413
66.6952,43.5799
66.6672,43.6181
66.6372,43.6562
66.6214,43.6751
66.6051,43.6940
66.5883,43.7128
66.5709,43.7315
66.5531,43.7502
66.5348,43.7688
66.5097,43.7930
66.4836,43.8164
66.4565,43.8389
66.4284,43.8607
66.3993,43.8815
66.3692,43.9016
66.3381,43.9208
66.3169,43.9332
66.2952,43.9452
66.2730,43.9568
66.2504,43.9681
66.2274,43.9790
66.2157,43.9843
66.1923,43.9945
66.1689,44.0038
66.1456,44.0123
66.1224,44.0201
66.0876,44.0301
66.0529,44.0383
66.0183,44.0447
65.9838,44.0492
65.9495,44.0520
65.9152,44.0528
65.8810,44.0518
65.8470,44.0490
65.7835,43.6462
65.8135,43.6462
65.8431,43.6447
65.8722,43.6418
65.9008,43.6373
65.9291,43.6313
65.9568,43.6239
65.9842,43.6150
66.0110,43.6045
66.0375,43.5926
66.0635,43.5792
66.0890,43.5643
66.1141,43.5479
66.1388,43.5300
66.1630,43.5107
66.1868,43.4898
66.2101,43.4675
66.2416,43.4340
66.2692,43.4006
66.2926,43.3675
66.3121,43.3345
66.3275,43.3016
66.3389,43.2690
66.3462,43.2364
66.3495,43.2041
66.3488,43.1719
66.3441,43.1399
66.3353,43.1080
66.3225,43.0763
66.3056,43.0447
66.2847,43.0133
66.2598,42.9821
66.2308,42.9511
66.1734,42.8936
66.1745,42.9240
66.1741,42.9539
66.1721,42.9832
66.1686,43.0121
66.1636,43.0405
66.1570,43.0684
66.1488,43.0959
66.1392,43.1228
66.1280,43.1492
66.1152,43.1752
66.1009,43.2007
66.0851,43.2256
66.0677,43.2501
66.0488,43.2741
66.0283,43.2976
66.0063,43.3207
65.9750,43.3504
65.9432,43.3779
65.9106,43.4032
65.8775,43.4261
65.8437,43.4468
65.8092,43.4652
65.7741,43.4813
65.7384,43.4951
65.7020,43.5066
65.6650,43.5159
65.6273,43.5229
65.5890,43.5276
65.5501,43.5300
65.5105,43.5301
65.4703,43.5280
65.4295,43.5236
65.3885,43.5170
65.3479,43.5086
65.3077,43.4984
65.2678,43.4863
65.2283,43.4723
65.1892,43.4565
65.1504,43.4388
65.1120,43.4192
65.0739,43.3978
65.0362,43.3745
64.9989,43.3494
64.9619,43.3224
64.9253,43.2936
64.8891,43.2629
64.8532,43.2303
64.8354,43.2133
64.8176,43.1959
64.7922,43.1704
64.7739,43.1519
64.7562,43.1333
64.7390,43.1147
64.7222,43.0960
64.7060,43.0772
64.6903,43.0584
64.6603,43.0206
64.6323,42.9826
64.6064,42.9443
64.5824,42.9057
64.5604,42.8670
64.5405,42.8280
64.5225,42.7887
64.5065,42.7492
64.4926,42.7095
64.4806,42.6696
64.4706,42.6294
64.4627,42.5889
64.4567,42.5482
64.4528,42.5077
64.4512,42.4677
64.4518,42.4284
64.4547,42.3897
64.4560,42.3797
64.9955,42.3797
64.9971,42.4076
65.0015,42.4363
65.0059,42.4558
65.0147,42.4855
65.0259,42.5155
65.0395,42.5458
65.0555,42.5765
65.0739,42.6075
65.0875,42.6284
65.1022,42.6495
65.1179,42.6707
65.1347,42.6920
65.1526,42.7135
65.1715,42.7352
65.1915,42.7570
65.2126,42.7790
65.2235,42.7900
65.2417,42.8078
65.2600,42.8248
65.2784,42.8410
65.3062,42.8637
65.3341,42.8847
65.3622,42.9039
65.3905,42.9212
65.4189,42.9367
65.4476,42.9505
65.4764,42.9624
65.5054,42.9725
65.5249,42.9783
65.5538,42.9847
65.5819,42.9884
65.6094,42.9893
65.6362,42.9875
65.6623,42.9828
65.6877,42.9754
65.7123,42.9652
65.7363,42.9522
65.7596,42.9364
65.7822,42.9179
65.7969,42.9040
65.8204,42.8789
65.8411,42.8536
65.8590,42.8279
65.8740,42.8020
65.8862,42.7758
65.8955,42.7493
65.9021,42.7226
65.9058,42.6955
65.9066,42.6682
65.9047,42.6406
65.9018,42.6221
65.3604,42.0806
65.3330,42.0764
65.3058,42.0750
65.2789,42.0765
65.2522,42.0809
65.2258,42.0882
65.1996,42.0983
65.1737,42.1112
65.1479,42.1271
65.1225,42.1458
65.0973,42.1674
65.0806,42.1834
65.0604,42.2053
65.0430,42.2280
65.0283,42.2514
65.0163,42.2755
65.0070,42.3005
65.0004,42.3261
64.9966,42.3525
64.9955,42.3797
64.4560,42.3797
64.4598,42.3515
64.4673,42.3140
64.4769,42.2771
64.4889,42.2408
64.5031,42.2051
64.5195,42.1700
64.5382,42.1356
64.5592,42.1017
64.5824,42.0684
64.6079,42.0358
64.6357,42.0037
64.6657,41.9723
64.6915,41.9475
64.7177,41.9244
64.7443,41.9032
64.7712,41.8837
64.7985,41.8660
64.8261,41.8501
64.8540,41.8360
64.8823,41.8236
64.9109,41.8130
64.9399,41.8042
64.9693,41.7972
64.9990,41.7920
65.0290,41.7885
65.0594,41.7868
65.0901,41.7869
65.1212,41.7888
65.0232,41.6623
65.3884,41.2970
Z" /> 
</g></g>
<g style="fill:#0D115E; fill-opacity:1.0000; 
stroke:#0D115E; stroke-width:0.2500; stroke-opacity:1; 
stroke-linecap:round; stroke-linejoin:round;">
</g>
<g style="fill:#0D115E; fill-opacity:0.0; 
stroke:#0D115E; stroke-width:0.2500; stroke-opacity:1; 
stroke-linecap:round; stroke-linejoin:round;">
<text x="93.9800" y="120.1673"
textLength="2.5500" font-size="1.3333" lengthAdjust="spacingAndGlyphs"
text-anchor="start" opacity="0">T-</text>
<g class="stroked-text"><desc>T-</desc>
<path d="M94.2397 119.0319
L94.8111 119.0319
" />
<path d="M94.5254 120.0319
L94.5254 119.0319
" />
<path d="M95.1445 119.6509
L95.9064 119.6509
" />
</g><text x="93.9207" y="115.3280"
textLength="2.5500" font-size="1.3333" lengthAdjust="spacingAndGlyphs"
text-anchor="start" opacity="0">T+</text>
<g class="stroked-text"><desc>T+</desc>
<path d="M94.1804 114.1927
L94.7518 114.1927
" />
<path d="M94.4661 115.1927
L94.4661 114.1927
" />
<path d="M95.0852 114.8117
L95.8471 114.8117
" />
<path d="M95.4661 115.1927
L95.4661 114.4307
" />
</g><text x="94.0295" y="128.1078"
textLength="2.9310" font-size="1.3333" lengthAdjust="spacingAndGlyphs"
text-anchor="start" opacity="0">W+</text>
<g class="stroked-text"><desc>W+</desc>
<path d="M94.3368 126.9724
L94.5749 127.9724
" />
<path d="M94.5749 127.9724
L94.7654 127.2582
" />
<path d="M94.7654 127.2582
L94.9558 127.9724
" />
<path d="M94.9558 127.9724
L95.1939 126.9724
" />
<path d="M95.5749 127.5915
L96.3368 127.5915
" />
<path d="M95.9558 127.9724
L95.9558 127.2105
" />
</g></g>
<g style="fill:#0D115E; fill-opacity:0.0; 
stroke:#0D115E; stroke-width:0.5000; stroke-opacity:1; 
stroke-linecap:round; stroke-linejoin:round;">
<text x="106.6142" y="117.0613"
textLength="29.3286" font-size="4.0000" lengthAdjust="spacingAndGlyphs"
text-anchor="start" opacity="0">Bookshelf-1</text>
<g class="stroked-text"><desc>Bookshelf-1</desc>
<path d="M108.6575 115.0968
L109.0860 115.2396
" />
<path d="M109.0860 115.2396
L109.2289 115.3825
" />
<path d="M109.2289 115.3825
L109.3717 115.6682
" />
<path d="M109.3717 115.6682
L109.3717 116.0968
" />
<path d="M109.3717 116.0968
L109.2289 116.3825
" />
<path d="M109.2289 116.3825
L109.0860 116.5253
" />
<path d="M109.0860 116.5253
L108.8003 116.6682
" />
<path d="M108.8003 116.6682
L107.6575 116.6682
" />
<path d="M107.6575 116.6682
L107.6575 113.6682
" />
<path d="M107.6575 113.6682
L108.6575 113.6682
" />
<path d="M108.6575 113.6682
L108.9432 113.8111
" />
<path d="M108.9432 113.8111
L109.0860 113.9539
" />
<path d="M109.0860 113.9539
L109.2289 114.2396
" />
<path d="M109.2289 114.2396
L109.2289 114.5253
" />
<path d="M109.2289 114.5253
L109.0860 114.8111
" />
<path d="M109.0860 114.8111
L108.9432 114.9539
" />
<path d="M108.9432 114.9539
L108.6575 115.0968
" />
<path d="M108.6575 115.0968
L107.6575 115.0968
" />
<path d="M111.0860 116.6682
L110.8003 116.5253
" />
<path d="M110.8003 116.5253
L110.6575 116.3825
" />
<path d="M110.6575 116.3825
L110.5146 116.0968
" />
<path d="M110.5146 116.0968
L110.5146 115.2396
" />
<path d="M110.5146 115.2396
L110.6575 114.9539
" />
<path d="M110.6575 114.9539
L110.8003 114.8111
" />
<path d="M110.8003 114.8111
L111.0860 114.6682
" />
<path d="M111.0860 114.6682
L111.5146 114.6682
" />
<path d="M111.5146 114.6682
L111.8003 114.8111
" />
<path d="M111.8003 114.8111
L111.9432 114.9539
" />
<path d="M111.9432 114.9539
L112.0860 115.2396
" />
<path d="M112.0860 115.2396
L112.0860 116.0968
" />
<path d="M112.0860 116.0968
L111.9432 116.3825
" />
<path d="M111.9432 116.3825
L111.8003 116.5253
" />
<path d="M111.8003 116.5253
L111.5146 116.6682
" />
<path d="M111.5146 116.6682
L111.0860 116.6682
" />
<path d="M113.8003 116.6682
L113.5146 116.5253
" />
<path d="M113.5146 116.5253
L113.3717 116.3825
" />
<path d="M113.3717 116.3825
L113.2289 116.0968
" />
<path d="M113.2289 116.0968
L113.2289 115.2396
" />
<path d="M113.2289 115.2396
L113.3717 114.9539
" />
<path d="M113.3717 114.9539
L113.5146 114.8111
" />
<path d="M113.5146 114.8111
L113.8003 114.6682
" />
<path d="M113.8003 114.6682
L114.2289 114.6682
" />
<path d="M114.2289 114.6682
L114.5146 114.8111
" />
<path d="M114.5146 114.8111
L114.6575 114.9539
" />
<path d="M114.6575 114.9539
L114.8003 115.2396
" />
<path d="M114.8003 115.2396
L114.8003 116.0968
" />
<path d="M114.8003 116.0968
L114.6575 116.3825
" />
<path d="M114.6575 116.3825
L114.5146 116.5253
" />
<path d="M114.5146 116.5253
L114.2289 116.6682
" />
<path d="M114.2289 116.6682
L113.8003 116.6682
" />
<path d="M116.0860 116.6682
L116.0860 113.6682
" />
<path d="M116.3717 115.5253
L117.2289 116.6682
" />
<path d="M117.2289 114.6682
L116.0860 115.8111
" />
<path d="M118.3717 116.5253
L118.6575 116.6682
" />
<path d="M118.6575 116.6682
L119.2289 116.6682
" />
<path d="M119.2289 116.6682
L119.5146 116.5253
" />
<path d="M119.5146 116.5253
L119.6575 116.2396
" />
<path d="M119.6575 116.2396
L119.6575 116.0968
" />
<path d="M119.6575 116.0968
L119.5146 115.8111
" />
<path d="M119.5146 115.8111
L119.2289 115.6682
" />
<path d="M119.2289 115.6682
L118.8003 115.6682
" />
<path d="M118.8003 115.6682
L118.5146 115.5253
" />
<path d="M118.5146 115.5253
L118.3717 115.2396
" />
<path d="M118.3717 115.2396
L118.3717 115.0968
" />
<path d="M118.3717 115.0968
L118.5146 114.8111
" />
<path d="M118.5146 114.8111
L118.8003 114.6682
" />
<path d="M118.8003 114.6682
L119.2289 114.6682
" />
<path d="M119.2289 114.6682
L119.5146 114.8111
" />
<path d="M120.9432 116.6682
L120.9432 113.6682
" />
<path d="M122.2289 116.6682
L122.2289 115.0968
" />
<path d="M122.2289 115.0968
L122.0860 114.8111
" />
<path d="M122.0860 114.8111
L121.8003 114.6682
" />
<path d="M121.8003 114.6682
L121.3717 114.6682
" />
<path d="M121.3717 114.6682
L121.0860 114.8111
" />
<path d="M121.0860 114.8111
L120.9432 114.9539
" />
<path d="M124.8003 116.5253
L124.5146 116.6682
" />
<path d="M124.5146 116.6682
L123.9432 116.6682
" />
<path d="M123.9432 116.6682
L123.6575 116.5253
" />
<path d="M123.6575 116.5253
L123.5146 116.2396
" />
<path d="M123.5146 116.2396
L123.5146 115.0968
" />
<path d="M123.5146 115.0968
L123.6575 114.8111
" />
<path d="M123.6575 114.8111
L123.9432 114.6682
" />
<path d="M123.9432 114.6682
L124.5146 114.6682
" />
<path d="M124.5146 114.6682
L124.8003 114.8111
" />
<path d="M124.8003 114.8111
L124.9432 115.0968
" />
<path d="M124.9432 115.0968
L124.9432 115.3825
" />
<path d="M124.9432 115.3825
L123.5146 115.6682
" />
<path d="M126.6575 116.6682
L126.3717 116.5253
" />
<path d="M126.3717 116.5253
L126.2289 116.2396
" />
<path d="M126.2289 116.2396
L126.2289 113.6682
" />
<path d="M127.3717 114.6682
L128.5146 114.6682
" />
<path d="M127.8003 116.6682
L127.8003 114.0968
" />
<path d="M127.8003 114.0968
L127.9432 113.8111
" />
<path d="M127.9432 113.8111
L128.2289 113.6682
" />
<path d="M128.2289 113.6682
L128.5146 113.6682
" />
<path d="M129.5146 115.5253
L131.8003 115.5253
" />
<path d="M134.8003 116.6682
L133.0860 116.6682
" />
<path d="M133.9432 116.6682
L133.9432 113.6682
" />
<path d="M133.9432 113.6682
L133.6575 114.0968
" />
<path d="M133.6575 114.0968
L133.3717 114.3825
" />
<path d="M133.3717 114.3825
L133.0860 114.5253
" />
</g></g>
<g style="fill:#0D115E; fill-opacity:0.0; 
stroke:#0D115E; stroke-width:0.2500; stroke-opacity:1; 
stroke-linecap:round; stroke-linejoin:round;">
<g transform="rotate(-90.000000 99.8527 136.8464)">
<text x="99.8527" y="136.8464"
textLength="2.8262" font-size="2.6667" lengthAdjust="spacingAndGlyphs"
text-anchor="start" opacity="0">+</text>
</g>
<g class="stroked-text"><desc>+</desc>
<path d="M98.8330 136.2058
L98.8330 134.6819
" />
<path d="M99.5949 135.4439
L98.0711 135.4439
" />
</g><text x="94.1068" y="124.5110"
textLength="2.9310" font-size="1.3333" lengthAdjust="spacingAndGlyphs"
text-anchor="start" opacity="0">W-</text>
<g class="stroked-text"><desc>W-</desc>
<path d="M94.4142 123.3757
L94.6522 124.3757
" />
<path d="M94.6522 124.3757
L94.8427 123.6614
" />
<path d="M94.8427 123.6614
L95.0332 124.3757
" />
<path d="M95.0332 124.3757
L95.2713 123.3757
" />
<path d="M95.6522 123.9947
L96.4142 123.9947
" />
</g></g>
<g style="fill:#0D115E; fill-opacity:0.0; 
stroke:#0D115E; stroke-width:0.1500; stroke-opacity:1; 
stroke-linecap:round; stroke-linejoin:round;">
<text x="73.6600" y="106.7999"
textLength="2.2500" font-size="1.3333" lengthAdjust="spacingAndGlyphs"
text-anchor="middle" opacity="0">H4</text>
<g class="stroked-text"><desc>H4</desc>
<path d="M72.8981 106.7548
L72.8981 105.7548
" />
<path d="M72.8981 106.2309
L73.4695 106.2309
" />
<path d="M73.4695 106.7548
L73.4695 105.7548
" />
<path d="M74.3743 106.0881
L74.3743 106.7548
" />
<path d="M74.1362 105.7071
L73.8981 106.4214
" />
<path d="M73.8981 106.4214
L74.5171 106.4214
" />
</g><text x="83.9447" y="44.0078"
textLength="2.2345" font-size="1.6000" lengthAdjust="spacingAndGlyphs"
text-anchor="middle" opacity="0">R1</text>
<g class="stroked-text"><desc>R1</desc>
</g>
<g style="fill:#0D115E; fill-opacity:1.0000; 
stroke:#0D115E; stroke-width:0.0000; stroke-opacity:1; 
stroke-linecap:round; stroke-linejoin:round;">
<path style="fill:#0D115E; fill-opacity:1.0000; 
stroke:#0D115E; stroke-width:0.0000; stroke-opacity:1; 
stroke-linecap:round; stroke-linejoin:round;fill-rule:evenodd;"
d="M 83.3822,42.6679
83.3950,42.6682
83.4077,42.6686
83.4202,42.6692
83.4324,42.6700
83.4444,42.6709
83.4563,42.6721
83.4793,42.6748
83.5015,42.6783
83.5228,42.6825
83.5433,42.6873
83.5630,42.6929
83.5819,42.6991
83.5999,42.7061
83.6170,42.7137
83.6333,42.7220
83.6488,42.7310
83.6635,42.7408
83.6773,42.7512
83.6839,42.7566
83.6965,42.7681
83.7082,42.7802
83.7192,42.7931
83.7294,42.8067
83.7387,42.8210
83.7473,42.8360
83.7550,42.8517
83.7619,42.8681
83.7680,42.8852
83.7733,42.9030
83.7777,42.9215
83.7814,42.9408
83.7842,42.9607
83.7863,42.9814
83.7875,43.0027
83.7879,43.0248
83.7877,43.0393
83.7871,43.0534
83.7860,43.0673
83.7845,43.0808
83.7826,43.0940
83.7803,43.1069
83.7776,43.1196
83.7744,43.1319
83.7708,43.1438
83.7668,43.1555
83.7624,43.1669
83.7576,43.1780
83.7523,43.1887
83.7466,43.1992
83.7405,43.2093
83.7340,43.2191
83.7234,43.2332
83.7120,43.2464
83.6997,43.2587
83.6866,43.2703
83.6774,43.2775
83.6677,43.2844
83.6577,43.2909
83.6473,43.2970
83.6366,43.3028
83.6254,43.3082
83.6138,43.3132
83.6019,43.3179
83.5896,43.3222
83.5769,43.3261
83.5902,43.3313
83.6035,43.3378
83.6167,43.3455
83.6265,43.3522
83.6363,43.3595
83.6460,43.3676
83.6557,43.3764
83.6653,43.3860
83.6749,43.3962
83.6812,43.4035
83.6907,43.4150
83.7002,43.4272
83.7098,43.4403
83.7193,43.4541
83.7288,43.4687
83.7352,43.4789
83.7415,43.4894
83.7479,43.5002
83.7543,43.5114
83.7606,43.5230
83.7670,43.5349
83.7734,43.5471
83.7797,43.5597
83.7829,43.5661
83.9517,43.9058
83.7730,43.9058
83.6156,43.5870
83.6080,43.5717
83.6004,43.5571
83.5928,43.5431
83.5853,43.5298
83.5778,43.5171
83.5703,43.5051
83.5629,43.4938
83.5555,43.4831
83.5481,43.4731
83.5407,43.4637
83.5297,43.4509
83.5188,43.4396
83.5080,43.4297
83.4972,43.4214
83.4861,43.4141
83.4743,43.4075
83.4617,43.4017
83.4484,43.3965
83.4344,43.3921
83.4196,43.3884
83.4041,43.3854
83.3879,43.3832
83.3709,43.3816
83.3591,43.3810
83.3471,43.3807
83.3409,43.3806
83.1595,43.3806
83.1595,43.9058
82.9930,43.9058
82.9930,42.7991
83.1595,42.7991
83.1595,43.2493
83.3691,43.2493
83.3839,43.2491
83.3983,43.2484
83.4122,43.2473
83.4256,43.2457
83.4386,43.2437
83.4511,43.2413
83.4631,43.2384
83.4747,43.2350
83.4859,43.2312
83.5017,43.2247
83.5165,43.2172
83.5302,43.2086
83.5429,43.1991
83.5508,43.1922
83.5618,43.1809
83.5717,43.1687
83.5805,43.1556
83.5883,43.1415
83.5950,43.1265
83.6006,43.1105
83.6051,43.0935
83.6075,43.0817
83.6094,43.0695
83.6108,43.0568
83.6118,43.0437
83.6123,43.0302
83.6123,43.0233
83.6121,43.0096
83.6114,42.9964
83.6102,42.9835
83.6085,42.9711
83.6063,42.9591
83.6037,42.9476
83.5988,42.9310
83.5929,42.9155
83.5858,42.9009
83.5777,42.8873
83.5685,42.8746
83.5582,42.8629
83.5508,42.8557
83.5388,42.8456
83.5257,42.8365
83.5117,42.8283
83.4965,42.8212
83.4804,42.8151
83.4690,42.8116
83.4572,42.8085
83.4449,42.8058
83.4322,42.8036
83.4189,42.8018
83.4053,42.8005
83.3911,42.7996
83.3765,42.7992
83.3691,42.7991
83.1595,42.7991
82.9930,42.7991
82.9930,42.6678
83.3691,42.6678
Z" /> 
<path style="fill:#0D115E; fill-opacity:1.0000; 
stroke:#0D115E; stroke-width:0.0000; stroke-opacity:1; 
stroke-linecap:round; stroke-linejoin:round;fill-rule:evenodd;"
d="M 84.2032,43.7745
84.4755,43.7745
84.4755,42.7991
84.1795,42.8554
84.1795,42.7241
84.4737,42.6678
84.6402,42.6678
84.6402,43.7745
84.9122,43.7745
84.9122,43.9058
84.2032,43.9058
Z" /> 
</g></g>
<g style="fill:#0D115E; fill-opacity:1.0000; 
stroke:#0D115E; stroke-width:0.1500; stroke-opacity:1; 
stroke-linecap:round; stroke-linejoin:round;">
</g>
<g style="fill:#0D115E; fill-opacity:0.0; 
stroke:#0D115E; stroke-width:0.1500; stroke-opacity:1; 
stroke-linecap:round; stroke-linejoin:round;">
<text x="114.4351" y="39.2200"
textLength="2.2024" font-size="1.3333" lengthAdjust="spacingAndGlyphs"
text-anchor="middle" opacity="0">C2</text>
<g class="stroked-text"><desc>C2</desc>
<path d="M114.2684 39.0796
L114.2208 39.1272
" />
<path d="M114.2208 39.1272
L114.0779 39.1748
" />
<path d="M114.0779 39.1748
L113.9827 39.1748
" />
<path d="M113.9827 39.1748
L113.8398 39.1272
" />
<path d="M113.8398 39.1272
L113.7446 39.0319
" />
<path d="M113.7446 39.0319
L113.6970 38.9367
" />
<path d="M113.6970 38.9367
L113.6494 38.7462
" />
<path d="M113.6494 38.7462
L113.6494 38.6034
" />
<path d="M113.6494 38.6034
L113.6970 38.4129
" />
<path d="M113.6970 38.4129
L113.7446 38.3177
" />
<path d="M113.7446 38.3177
L113.8398 38.2224
" />
<path d="M113.8398 38.2224
L113.9827 38.1748
" />
<path d="M113.9827 38.1748
L114.0779 38.1748
" />
<path d="M114.0779 38.1748
L114.2208 38.2224
" />
<path d="M114.2208 38.2224
L114.2684 38.2700
" />
<path d="M114.6494 38.2700
L114.6970 38.2224
" />
<path d="M114.6970 38.2224
L114.7922 38.1748
" />
<path d="M114.7922 38.1748
L115.0303 38.1748
" />
<path d="M115.0303 38.1748
L115.1255 38.2224
" />
<path d="M115.1255 38.2224
L115.1732 38.2700
" />
<path d="M115.1732 38.2700
L115.2208 38.3653
" />
<path d="M115.2208 38.3653
L115.2208 38.4605
" />
<path d="M115.2208 38.4605
L115.1732 38.6034
" />
<path d="M115.1732 38.6034
L114.6017 39.1748
" />
<path d="M114.6017 39.1748
L115.2208 39.1748
" />
</g><g transform="rotate(-90.000000 64.2574 59.5915)">
<text x="64.2574" y="60.0915"
textLength="2.2500" font-size="1.3333" lengthAdjust="spacingAndGlyphs"
text-anchor="middle" opacity="0">H3</text>
</g>
<g class="stroked-text"><desc>H3</desc>
<path d="M64.7122 60.3534
L63.7122 60.3534
" />
<path d="M64.1884 60.3534
L64.1884 59.7820
" />
<path d="M64.7122 59.7820
L63.7122 59.7820
" />
<path d="M63.7122 59.4010
L63.7122 58.7820
" />
<path d="M63.7122 58.7820
L64.0932 59.1153
" />
<path d="M64.0932 59.1153
L64.0932 58.9725
" />
<path d="M64.0932 58.9725
L64.1408 58.8772
" />
<path d="M64.1408 58.8772
L64.1884 58.8296
" />
<path d="M64.1884 58.8296
L64.2836 58.7820
" />
<path d="M64.2836 58.7820
L64.5217 58.7820
" />
<path d="M64.5217 58.7820
L64.6170 58.8296
" />
<path d="M64.6170 58.8296
L64.6646 58.8772
" />
<path d="M64.6646 58.8772
L64.7122 58.9725
" />
<path d="M64.7122 58.9725
L64.7122 59.2582
" />
<path d="M64.7122 59.2582
L64.6646 59.3534
" />
<path d="M64.6646 59.3534
L64.6170 59.4010
" />
</g><g transform="rotate(-90.000000 141.5650 115.4834)">
<text x="141.5650" y="115.9834"
textLength="2.2500" font-size="1.3333" lengthAdjust="spacingAndGlyphs"
text-anchor="middle" opacity="0">H1</text>
</g>
<g class="stroked-text"><desc>H1</desc>
<path d="M142.0199 116.2453
L141.0199 116.2453
" />
<path d="M141.4960 116.2453
L141.4960 115.6739
" />
<path d="M142.0199 115.6739
L141.0199 115.6739
" />
<path d="M142.0199 114.6739
L142.0199 115.2453
" />
<path d="M142.0199 114.9596
L141.0199 114.9596
" />
<path d="M141.0199 114.9596
L141.1627 115.0549
" />
<path d="M141.1627 115.0549
L141.2579 115.1501
" />
<path d="M141.2579 115.1501
L141.3056 115.2453
" />
</g><text x="77.2400" y="139.2400"
textLength="2.2024" font-size="1.3333" lengthAdjust="spacingAndGlyphs"
text-anchor="middle" opacity="0">C3</text>
<g class="stroked-text"><desc>C3</desc>
<path d="M77.0733 139.0996
L77.0257 139.1472
" />
<path d="M77.0257 139.1472
L76.8829 139.1948
" />
<path d="M76.8829 139.1948
L76.7876 139.1948
" />
<path d="M76.7876 139.1948
L76.6448 139.1472
" />
<path d="M76.6448 139.1472
L76.5495 139.0520
" />
<path d="M76.5495 139.0520
L76.5019 138.9567
" />
<path d="M76.5019 138.9567
L76.4543 138.7662
" />
<path d="M76.4543 138.7662
L76.4543 138.6234
" />
<path d="M76.4543 138.6234
L76.5019 138.4329
" />
<path d="M76.5019 138.4329
L76.5495 138.3377
" />
<path d="M76.5495 138.3377
L76.6448 138.2424
" />
<path d="M76.6448 138.2424
L76.7876 138.1948
" />
<path d="M76.7876 138.1948
L76.8829 138.1948
" />
<path d="M76.8829 138.1948
L77.0257 138.2424
" />
<path d="M77.0257 138.2424
L77.0733 138.2901
" />
<path d="M77.4067 138.1948
L78.0257 138.1948
" />
<path d="M78.0257 138.1948
L77.6924 138.5758
" />
<path d="M77.6924 138.5758
L77.8352 138.5758
" />
<path d="M77.8352 138.5758
L77.9305 138.6234
" />
<path d="M77.9305 138.6234
L77.9781 138.6710
" />
<path d="M77.9781 138.6710
L78.0257 138.7662
" />
<path d="M78.0257 138.7662
L78.0257 139.0043
" />
<path d="M78.0257 139.0043
L77.9781 139.0996
" />
<path d="M77.9781 139.0996
L77.9305 139.1472
" />
<path d="M77.9305 139.1472
L77.8352 139.1948
" />
<path d="M77.8352 139.1948
L77.5495 139.1948
" />
<path d="M77.5495 139.1948
L77.4543 139.1472
" />
<path d="M77.4543 139.1472
L77.4067 139.0996
" />
</g><text x="55.0900" y="116.1000"
textLength="2.0036" font-size="1.6000" lengthAdjust="spacingAndGlyphs"
text-anchor="middle" opacity="0">L1</text>
<g class="stroked-text"><desc>L1</desc>
</g>
<g style="fill:#0D115E; fill-opacity:1.0000; 
stroke:#0D115E; stroke-width:0.0000; stroke-opacity:1; 
stroke-linecap:round; stroke-linejoin:round;">
<path style="fill:#0D115E; fill-opacity:1.0000; 
stroke:#0D115E; stroke-width:0.0000; stroke-opacity:1; 
stroke-linecap:round; stroke-linejoin:round;fill-rule:evenodd;"
d="M 54.2538,114.7600
54.4203,114.7600
54.4203,115.8667
55.0197,115.8667
55.0197,115.9980
54.2538,115.9980
Z" /> 
<path style="fill:#0D115E; fill-opacity:1.0000; 
stroke:#0D115E; stroke-width:0.0000; stroke-opacity:1; 
stroke-linecap:round; stroke-linejoin:round;fill-rule:evenodd;"
d="M 55.2330,115.8667
55.5053,115.8667
55.5053,114.8913
55.2093,114.9476
55.2093,114.8163
55.5036,114.7600
55.6700,114.7600
55.6700,115.8667
55.9420,115.8667
55.9420,115.9980
55.2330,115.9980
Z" /> 
</g></g>
<g style="fill:#0D115E; fill-opacity:1.0000; 
stroke:#0D115E; stroke-width:0.1500; stroke-opacity:1; 
stroke-linecap:round; stroke-linejoin:round;">
</g>
<g style="fill:#0D115E; fill-opacity:0.0; 
stroke:#0D115E; stroke-width:0.1500; stroke-opacity:1; 
stroke-linecap:round; stroke-linejoin:round;">
<g transform="rotate(-90.000000 47.3000 87.2600)">
<text x="47.3000" y="87.7600"
textLength="2.2024" font-size="1.3333" lengthAdjust="spacingAndGlyphs"
text-anchor="middle" opacity="0">C1</text>
</g>
<g class="stroked-text"><desc>C1</desc>
<path d="M47.6596 87.4267
L47.7072 87.4743
" />
<path d="M47.7072 87.4743
L47.7548 87.6171
" />
<path d="M47.7548 87.6171
L47.7548 87.7124
" />
<path d="M47.7548 87.7124
L47.7072 87.8552
" />
<path d="M47.7072 87.8552
L47.6120 87.9505
" />
<path d="M47.6120 87.9505
L47.5167 87.9981
" />
<path d="M47.5167 87.9981
L47.3262 88.0457
" />
<path d="M47.3262 88.0457
L47.1834 88.0457
" />
<path d="M47.1834 88.0457
L46.9929 87.9981
" />
<path d="M46.9929 87.9981
L46.8977 87.9505
" />
<path d="M46.8977 87.9505
L46.8024 87.8552
" />
<path d="M46.8024 87.8552
L46.7548 87.7124
" />
<path d="M46.7548 87.7124
L46.7548 87.6171
" />
<path d="M46.7548 87.6171
L46.8024 87.4743
" />
<path d="M46.8024 87.4743
L46.8501 87.4267
" />
<path d="M47.7548 86.4743
L47.7548 87.0457
" />
<path d="M47.7548 86.7600
L46.7548 86.7600
" />
<path d="M46.7548 86.7600
L46.8977 86.8552
" />
<path d="M46.8977 86.8552
L46.9929 86.9505
" />
<path d="M46.9929 86.9505
L47.0405 87.0457
" />
</g><g transform="rotate(-90.000000 137.1600 55.8800)">
<text x="137.1600" y="56.3800"
textLength="2.2500" font-size="1.3333" lengthAdjust="spacingAndGlyphs"
text-anchor="middle" opacity="0">H2</text>
</g>
<g class="stroked-text"><desc>H2</desc>
<path d="M137.6148 56.6419
L136.6148 56.6419
" />
<path d="M137.0910 56.6419
L137.0910 56.0705
" />
<path d="M137.6148 56.0705
L136.6148 56.0705
" />
<path d="M136.7101 55.6419
L136.6624 55.5943
" />
<path d="M136.6624 55.5943
L136.6148 55.4990
" />
<path d="M136.6148 55.4990
L136.6148 55.2610
" />
<path d="M136.6148 55.2610
L136.6624 55.1657
" />
<path d="M136.6624 55.1657
L136.7101 55.1181
" />
<path d="M136.7101 55.1181
L136.8053 55.0705
" />
<path d="M136.8053 55.0705
L136.9005 55.0705
" />
<path d="M136.9005 55.0705
L137.0434 55.1181
" />
<path d="M137.0434 55.1181
L137.6148 55.6895
" />
<path d="M137.6148 55.6895
L137.6148 55.0705
" />
</g><g transform="rotate(-90.000000 95.2700 86.3600)">
<text x="95.2700" y="86.8600"
textLength="2.0119" font-size="1.3333" lengthAdjust="spacingAndGlyphs"
text-anchor="middle" opacity="0">L3</text>
</g>
<g class="stroked-text"><desc>L3</desc>
<path d="M95.7248 86.5267
L95.7248 87.0029
" />
<path d="M95.7248 87.0029
L94.7248 87.0029
" />
<path d="M94.7248 86.2886
L94.7248 85.6695
" />
<path d="M94.7248 85.6695
L95.1058 86.0029
" />
<path d="M95.1058 86.0029
L95.1058 85.8600
" />
<path d="M95.1058 85.8600
L95.1534 85.7648
" />
<path d="M95.1534 85.7648
L95.2010 85.7171
" />
<path d="M95.2010 85.7171
L95.2962 85.6695
" />
<path d="M95.2962 85.6695
L95.5343 85.6695
" />
<path d="M95.5343 85.6695
L95.6296 85.7171
" />
<path d="M95.6296 85.7171
L95.6772 85.7648
" />
<path d="M95.6772 85.7648
L95.7248 85.8600
" />
<path d="M95.7248 85.8600
L95.7248 86.1457
" />
<path d="M95.7248 86.1457
L95.6772 86.2410
" />
<path d="M95.6772 86.2410
L95.6296 86.2886
" />
</g><text x="80.9047" y="106.0161"
textLength="2.2345" font-size="1.6000" lengthAdjust="spacingAndGlyphs"
text-anchor="middle" opacity="0">R2</text>
<g class="stroked-text"><desc>R2</desc>
</g>
<g style="fill:#0D115E; fill-opacity:1.0000; 
stroke:#0D115E; stroke-width:0.0000; stroke-opacity:1; 
stroke-linecap:round; stroke-linejoin:round;">
<path style="fill:#0D115E; fill-opacity:1.0000; 
stroke:#0D115E; stroke-width:0.0000; stroke-opacity:1; 
stroke-linecap:round; stroke-linejoin:round;fill-rule:evenodd;"
d="M 80.3422,104.6761
80.3551,104.6764
80.3677,104.6768
80.3802,104.6774
80.3924,104.6782
80.4045,104.6792
80.4163,104.6803
80.4393,104.6831
80.4615,104.6865
80.4829,104.6907
80.5034,104.6956
80.5231,104.7011
80.5419,104.7074
80.5599,104.7143
80.5770,104.7219
80.5934,104.7303
80.6089,104.7393
80.6235,104.7490
80.6373,104.7594
80.6439,104.7649
80.6565,104.7763
80.6683,104.7885
80.6793,104.8013
80.6894,104.8149
80.6988,104.8292
80.7073,104.8442
80.7150,104.8599
80.7219,104.8763
80.7280,104.8934
80.7333,104.9112
80.7378,104.9298
80.7414,104.9490
80.7443,104.9690
80.7463,104.9896
80.7475,105.0110
80.7479,105.0330
80.7477,105.0475
80.7471,105.0617
80.7460,105.0755
80.7446,105.0890
80.7427,105.1023
80.7404,105.1152
80.7376,105.1278
80.7345,105.1401
80.7309,105.1521
80.7269,105.1638
80.7225,105.1751
80.7176,105.1862
80.7123,105.1969
80.7067,105.2074
80.7005,105.2175
80.6940,105.2274
80.6835,105.2414
80.6721,105.2546
80.6598,105.2670
80.6466,105.2785
80.6374,105.2858
80.6278,105.2926
80.6178,105.2991
80.6074,105.3053
80.5966,105.3110
80.5854,105.3164
80.5739,105.3215
80.5619,105.3261
80.5496,105.3304
80.5369,105.3343
80.5503,105.3395
80.5636,105.3460
80.5767,105.3537
80.5866,105.3604
80.5963,105.3678
80.6061,105.3759
80.6157,105.3847
80.6253,105.3942
80.6349,105.4045
80.6413,105.4117
80.6508,105.4232
80.6603,105.4355
80.6698,105.4485
80.6793,105.4623
80.6889,105.4769
80.6952,105.4871
80.7016,105.4976
80.7079,105.5085
80.7143,105.5197
80.7207,105.5312
80.7270,105.5431
80.7334,105.5554
80.7398,105.5679
80.7430,105.5744
80.9118,105.9141
80.7330,105.9141
80.5756,105.5952
80.5680,105.5799
80.5604,105.5653
80.5529,105.5513
80.5453,105.5380
80.5378,105.5254
80.5304,105.5134
80.5229,105.5020
80.5155,105.4914
80.5081,105.4813
80.5008,105.4720
80.4898,105.4592
80.4789,105.4478
80.4680,105.4380
80.4572,105.4296
80.4461,105.4223
80.4343,105.4157
80.4217,105.4099
80.4084,105.4048
80.3944,105.4003
80.3796,105.3966
80.3641,105.3937
80.3479,105.3914
80.3309,105.3898
80.3192,105.3892
80.3071,105.3889
80.3010,105.3888
80.1196,105.3888
80.1196,105.9141
79.9531,105.9141
79.9531,104.8074
80.1196,104.8074
80.1196,105.2575
80.3291,105.2575
80.3439,105.2573
80.3583,105.2566
80.3722,105.2555
80.3856,105.2540
80.3986,105.2520
80.4111,105.2495
80.4232,105.2466
80.4348,105.2433
80.4459,105.2395
80.4617,105.2329
80.4765,105.2254
80.4902,105.2169
80.5029,105.2073
80.5108,105.2004
80.5218,105.1891
80.5317,105.1770
80.5406,105.1638
80.5483,105.1497
80.5550,105.1347
80.5606,105.1187
80.5651,105.1018
80.5675,105.0900
80.5694,105.0777
80.5709,105.0651
80.5718,105.0520
80.5723,105.0385
80.5724,105.0316
80.5721,105.0179
80.5714,105.0046
80.5702,104.9917
80.5685,104.9793
80.5664,104.9673
80.5637,104.9558
80.5589,104.9393
80.5529,104.9237
80.5459,104.9091
80.5378,104.8955
80.5286,104.8829
80.5183,104.8712
80.5108,104.8639
80.4988,104.8538
80.4858,104.8447
80.4717,104.8366
80.4566,104.8294
80.4404,104.8233
80.4290,104.8198
80.4172,104.8167
80.4049,104.8140
80.3922,104.8118
80.3790,104.8101
80.3653,104.8087
80.3512,104.8079
80.3366,104.8074
80.3291,104.8074
80.1196,104.8074
79.9531,104.8074
79.9531,104.6760
80.3291,104.6760
Z" /> 
<path style="fill:#0D115E; fill-opacity:1.0000; 
stroke:#0D115E; stroke-width:0.0000; stroke-opacity:1; 
stroke-linecap:round; stroke-linejoin:round;fill-rule:evenodd;"
d="M 81.2779,105.7828
81.8591,105.7828
81.8591,105.9141
81.0777,105.9141
81.0777,105.7828
81.0898,105.7700
81.1024,105.7566
81.1156,105.7428
81.1293,105.7284
81.1436,105.7134
81.1584,105.6979
81.1737,105.6819
81.1896,105.6654
81.1977,105.6569
81.2060,105.6483
81.2144,105.6396
81.2229,105.6307
81.2316,105.6217
81.2404,105.6125
81.2493,105.6032
81.2584,105.5938
81.2676,105.5843
81.2770,105.5746
81.2865,105.5648
81.2961,105.5548
81.3058,105.5448
81.3157,105.5345
81.3257,105.5242
81.3359,105.5137
81.3460,105.5033
81.3559,105.4930
81.3655,105.4831
81.3749,105.4733
81.3841,105.4638
81.3930,105.4545
81.4017,105.4455
81.4102,105.4367
81.4184,105.4281
81.4342,105.4116
81.4489,105.3961
81.4628,105.3816
81.4756,105.3679
81.4876,105.3552
81.4985,105.3435
81.5086,105.3327
81.5176,105.3228
81.5258,105.3139
81.5362,105.3022
81.5419,105.2956
81.5517,105.2843
81.5611,105.2731
81.5701,105.2622
81.5788,105.2515
81.5871,105.2411
81.5950,105.2308
81.6025,105.2208
81.6096,105.2109
81.6164,105.2013
81.6259,105.1874
81.6345,105.1739
81.6422,105.1609
81.6492,105.1484
81.6533,105.1403
81.6590,105.1284
81.6642,105.1165
81.6687,105.1047
81.6728,105.0929
81.6762,105.0811
81.6791,105.0694
81.6815,105.0577
81.6833,105.0461
81.6847,105.0306
81.6852,105.0152
81.6850,105.0028
81.6842,104.9907
81.6828,104.9789
81.6798,104.9617
81.6756,104.9452
81.6701,104.9294
81.6635,104.9142
81.6556,104.8996
81.6465,104.8857
81.6362,104.8725
81.6247,104.8599
81.6164,104.8519
81.6031,104.8406
81.5891,104.8304
81.5743,104.8213
81.5589,104.8133
81.5427,104.8065
81.5314,104.8025
81.5199,104.7990
81.5080,104.7961
81.4959,104.7936
81.4834,104.7916
81.4705,104.7901
81.4574,104.7892
81.4439,104.7887
81.4370,104.7886
81.4222,104.7888
81.4073,104.7896
81.3923,104.7908
81.3771,104.7926
81.3617,104.7948
81.3462,104.7975
81.3305,104.8007
81.3147,104.8044
81.2987,104.8086
81.2825,104.8133
81.2717,104.8167
81.2553,104.8222
81.2387,104.8282
81.2275,104.8324
81.2163,104.8369
81.2049,104.8417
81.1934,104.8466
81.1819,104.8518
81.1702,104.8571
81.1584,104.8628
81.1466,104.8686
81.1346,104.8747
81.1226,104.8809
81.1105,104.8875
81.0982,104.8942
81.0859,104.9011
81.0859,104.7323
81.0984,104.7277
81.1108,104.7233
81.1231,104.7190
81.1353,104.7149
81.1474,104.7109
81.1594,104.7070
81.1713,104.7033
81.1831,104.6997
81.1948,104.6963
81.2064,104.6930
81.2179,104.6899
81.2293,104.6869
81.2461,104.6827
81.2628,104.6788
81.2737,104.6763
81.2900,104.6729
81.3061,104.6699
81.3218,104.6671
81.3373,104.6647
81.3526,104.6627
81.3675,104.6609
81.3822,104.6595
81.3966,104.6585
81.4108,104.6578
81.4247,104.6574
81.4338,104.6573
81.4457,104.6574
81.4574,104.6577
81.4804,104.6588
81.5028,104.6607
81.5246,104.6633
81.5458,104.6667
81.5664,104.6709
81.5864,104.6758
81.6057,104.6815
81.6245,104.6879
81.6427,104.6951
81.6602,104.7030
81.6772,104.7117
81.6935,104.7211
81.7092,104.7313
81.7244,104.7423
81.7389,104.7540
81.7527,104.7664
81.7655,104.7792
81.7775,104.7926
81.7886,104.8064
81.7989,104.8208
81.8082,104.8357
81.8166,104.8511
81.8242,104.8670
81.8308,104.8834
81.8366,104.9003
81.8415,104.9178
81.8455,104.9357
81.8486,104.9541
81.8508,104.9731
81.8522,104.9925
81.8526,105.0125
81.8524,105.0268
81.8516,105.0409
81.8504,105.0549
81.8486,105.0688
81.8464,105.0826
81.8436,105.0962
81.8404,105.1096
81.8366,105.1230
81.8324,105.1362
81.8276,105.1493
81.8242,105.1579
81.8184,105.1710
81.8119,105.1846
81.8045,105.1986
81.7963,105.2130
81.7873,105.2278
81.7808,105.2379
81.7740,105.2483
81.7668,105.2588
81.7592,105.2695
81.7513,105.2804
81.7430,105.2914
81.7344,105.3027
81.7254,105.3142
81.7207,105.3200
81.7121,105.3298
81.7020,105.3409
81.6926,105.3510
81.6816,105.3628
81.6734,105.3715
81.6645,105.3810
81.6549,105.3912
81.6446,105.4020
81.6336,105.4136
81.6218,105.4259
81.6094,105.4389
81.5962,105.4526
81.5894,105.4598
81.5752,105.4746
81.5604,105.4901
81.5448,105.5063
81.5285,105.5233
81.5201,105.5320
81.5115,105.5409
81.5027,105.5500
81.4938,105.5593
81.4847,105.5688
81.4754,105.5784
81.4659,105.5883
81.4563,105.5983
81.4464,105.6084
81.4364,105.6188
81.4263,105.6293
81.4159,105.6401
81.4054,105.6510
81.3947,105.6621
81.3838,105.6733
81.3727,105.6848
81.3615,105.6964
81.3501,105.7082
81.3385,105.7202
81.3267,105.7323
81.3148,105.7447
81.3026,105.7572
81.2903,105.7699
Z" /> 
</g></g>
<g style="fill:#0D115E; fill-opacity:1.0000; 
stroke:#0D115E; stroke-width:0.1500; stroke-opacity:1; 
stroke-linecap:round; stroke-linejoin:round;">
</g>
<g style="fill:#0D115E; fill-opacity:0.0; 
stroke:#0D115E; stroke-width:0.1500; stroke-opacity:1; 
stroke-linecap:round; stroke-linejoin:round;">
<g transform="rotate(-90.000000 146.1079 120.3491)">
<text x="146.1079" y="120.9491"
textLength="2.0036" font-size="1.6000" lengthAdjust="spacingAndGlyphs"
text-anchor="middle" opacity="0">L2</text>
</g>
<g class="stroked-text"><desc>L2</desc>
</g>
<g style="fill:#0D115E; fill-opacity:1.0000; 
stroke:#0D115E; stroke-width:0.0000; stroke-opacity:1; 
stroke-linecap:round; stroke-linejoin:round;">
<path style="fill:#0D115E; fill-opacity:1.0000; 
stroke:#0D115E; stroke-width:0.0000; stroke-opacity:1; 
stroke-linecap:round; stroke-linejoin:round;fill-rule:evenodd;"
d="M 145.3679,121.1853
145.3679,121.0188
146.4746,121.0188
146.4746,120.4194
146.6059,120.4194
146.6059,121.1853
Z" /> 
<path style="fill:#0D115E; fill-opacity:1.0000; 
stroke:#0D115E; stroke-width:0.0000; stroke-opacity:1; 
stroke-linecap:round; stroke-linejoin:round;fill-rule:evenodd;"
d="M 146.4746,120.0914
146.4746,119.5102
146.6059,119.5102
146.6059,120.2916
146.4746,120.2916
146.4618,120.2795
146.4484,120.2669
146.4346,120.2537
146.4202,120.2400
146.4052,120.2257
146.3898,120.2109
146.3737,120.1956
146.3572,120.1797
146.3487,120.1716
146.3401,120.1633
146.3314,120.1549
146.3225,120.1464
146.3135,120.1377
146.3043,120.1289
146.2951,120.1199
146.2856,120.1109
146.2761,120.1017
146.2664,120.0923
146.2566,120.0828
146.2466,120.0732
146.2366,120.0635
146.2264,120.0536
146.2160,120.0436
146.2055,120.0334
146.1951,120.0233
146.1848,120.0134
146.1749,120.0038
146.1651,119.9943
146.1556,119.9852
146.1463,119.9762
146.1373,119.9675
146.1285,119.9591
146.1199,119.9509
146.1034,119.9351
146.0879,119.9204
146.0734,119.9065
146.0597,119.8937
146.0471,119.8817
146.0353,119.8707
146.0245,119.8607
146.0146,119.8516
146.0057,119.8435
145.9940,119.8331
145.9875,119.8274
145.9761,119.8176
145.9650,119.8082
145.9540,119.7992
145.9433,119.7905
145.9329,119.7822
145.9226,119.7743
145.9126,119.7668
145.9028,119.7597
145.8932,119.7529
145.8792,119.7434
145.8657,119.7348
145.8527,119.7270
145.8402,119.7201
145.8321,119.7160
145.8202,119.7103
145.8083,119.7051
145.7965,119.7005
145.7847,119.6965
145.7729,119.6931
145.7612,119.6902
145.7495,119.6878
145.7379,119.6860
145.7224,119.6845
145.7070,119.6840
145.6946,119.6843
145.6825,119.6851
145.6707,119.6865
145.6535,119.6895
145.6370,119.6937
145.6212,119.6992
145.6060,119.7058
145.5914,119.7137
145.5776,119.7228
145.5643,119.7331
145.5517,119.7446
145.5437,119.7529
145.5324,119.7662
145.5222,119.7802
145.5131,119.7949
145.5051,119.8104
145.4983,119.8266
145.4943,119.8378
145.4909,119.8494
145.4879,119.8612
145.4854,119.8734
145.4834,119.8859
145.4820,119.8988
145.4810,119.9119
145.4805,119.9254
145.4804,119.9323
145.4807,119.9470
145.4814,119.9619
145.4826,119.9770
145.4844,119.9922
145.4866,120.0076
145.4893,120.0231
145.4925,120.0388
145.4962,120.0546
145.5004,120.0706
145.5051,120.0867
145.5085,120.0976
145.5140,120.1140
145.5200,120.1306
145.5243,120.1417
145.5288,120.1530
145.5335,120.1644
145.5384,120.1759
145.5436,120.1874
145.5490,120.1991
145.5546,120.2108
145.5604,120.2227
145.5665,120.2346
145.5728,120.2467
145.5793,120.2588
145.5860,120.2711
145.5930,120.2834
145.4241,120.2834
145.4196,120.2709
145.4151,120.2585
145.4108,120.2462
145.4067,120.2340
145.4027,120.2219
145.3988,120.2099
145.3951,120.1980
145.3915,120.1862
145.3881,120.1745
145.3848,120.1629
145.3817,120.1514
145.3787,120.1400
145.3745,120.1232
145.3706,120.1065
145.3682,120.0955
145.3647,120.0792
145.3617,120.0632
145.3589,120.0474
145.3565,120.0320
145.3545,120.0167
145.3527,120.0018
145.3514,119.9871
145.3503,119.9727
145.3496,119.9585
145.3492,119.9446
145.3491,119.9355
145.3492,119.9236
145.3495,119.9119
145.3506,119.8889
145.3525,119.8665
145.3551,119.8447
145.3585,119.8235
145.3627,119.8029
145.3676,119.7829
145.3733,119.7635
145.3797,119.7448
145.3869,119.7266
145.3948,119.7091
145.4035,119.6921
145.4130,119.6758
145.4232,119.6600
145.4341,119.6449
145.4458,119.6304
145.4582,119.6166
145.4710,119.6037
145.4844,119.5918
145.4982,119.5806
145.5126,119.5704
145.5275,119.5611
145.5429,119.5527
145.5588,119.5451
145.5752,119.5384
145.5921,119.5327
145.6096,119.5278
145.6275,119.5238
145.6459,119.5207
145.6649,119.5185
145.6844,119.5171
145.7043,119.5167
145.7186,119.5169
145.7327,119.5177
145.7468,119.5189
145.7606,119.5207
145.7744,119.5229
145.7880,119.5257
145.8015,119.5289
145.8148,119.5327
145.8280,119.5369
145.8411,119.5417
145.8497,119.5451
145.8628,119.5509
145.8764,119.5574
145.8904,119.5648
145.9048,119.5730
145.9196,119.5820
145.9298,119.5885
145.9401,119.5953
145.9506,119.6025
145.9613,119.6101
145.9722,119.6180
145.9833,119.6263
145.9945,119.6349
146.0060,119.6439
146.0118,119.6486
146.0216,119.6572
146.0327,119.6673
146.0428,119.6767
146.0546,119.6876
146.0634,119.6958
146.0728,119.7048
146.0830,119.7144
146.0938,119.7247
146.1054,119.7357
146.1177,119.7475
146.1307,119.7599
146.1445,119.7730
146.1516,119.7799
146.1664,119.7940
146.1819,119.8089
146.1981,119.8245
146.2151,119.8408
146.2238,119.8492
146.2327,119.8578
146.2419,119.8665
146.2511,119.8755
146.2606,119.8846
146.2702,119.8939
146.2801,119.9034
146.2901,119.9130
146.3003,119.9228
146.3106,119.9328
146.3212,119.9430
146.3319,119.9534
146.3428,119.9639
146.3539,119.9746
146.3651,119.9855
146.3766,119.9966
146.3882,120.0078
146.4000,120.0192
146.4120,120.0308
146.4241,120.0426
146.4365,120.0545
146.4490,120.0667
146.4617,120.0790
Z" /> 
</g></g>
<g style="fill:#0D115E; fill-opacity:1.0000; 
stroke:#0D115E; stroke-width:0.2000; stroke-opacity:1; 
stroke-linecap:round; stroke-linejoin:round;">
</g>
<g style="fill:#0D115E; fill-opacity:0.0; 
stroke:#0D115E; stroke-width:0.2000; stroke-opacity:1; 
stroke-linecap:round; stroke-linejoin:round;">
<path d="M95.8047 42.6578
L82.8047 42.6578
" />
<path d="M82.8047 42.6578
L82.8047 106.5178
" />
<path d="M89.3047 44.1078
L89.3047 50.5878
" />
<path d="M89.3047 45.5478
L89.3047 50.4678
" />
<path d="M95.6747 50.4678
L82.9347 50.4678
" />
<path d="M82.9347 50.4678
L82.9347 98.7078
" />
<path d="M95.5547 50.5878
L83.0547 50.5878
" />
<path d="M83.0547 50.5878
L83.0547 98.5878
" />
<path d="M95.5547 98.5878
L95.5547 50.5878
" />
<path d="M83.0547 98.5878
L95.5547 98.5878
" />
<path d="M95.6747 98.7078
L95.6747 50.4678
" />
<path d="M82.9347 98.7078
L95.6747 98.7078
" />
<path d="M89.3047 103.6278
L89.3047 98.7078
" />
<path d="M89.3047 105.0678
L89.3047 98.5878
" />
<path d="M95.8047 106.5178
L95.8047 42.6578
" />
<path d="M82.8047 106.5178
L95.8047 106.5178
" />
</g>
<g style="fill:#0D115E; fill-opacity:0.0; 
stroke:#0D115E; stroke-width:0.1200; stroke-opacity:1; 
stroke-linecap:round; stroke-linejoin:round;">
<path d="M98.6151 46.8400
L100.7151 46.8400
" />
<path d="M99.5751 49.8400
L101.0651 49.8400
" />
<path d="M99.6651 45.7900
L99.6651 47.8900
" />
<path d="M101.0651 39.7200
L101.0651 59.9600
" />
<path d="M101.0651 39.7200
L103.1651 39.7200
" />
<path d="M101.0651 59.9600
L103.1651 59.9600
" />
<path d="M103.1651 39.7200
L104.2151 40.7700
" />
<path d="M103.1651 59.9600
L104.2151 58.9100
" />
<path d="M104.2151 40.7700
L105.2651 39.7200
" />
<path d="M104.2151 58.9100
L105.2651 59.9600
" />
<path d="M105.2651 39.7200
L127.8051 39.7200
" />
<path d="M105.2651 59.9600
L127.8051 59.9600
" />
<path d="M127.8051 39.7200
L127.8051 59.9600
" />
<path d="M129.2951 49.8400
L127.8051 49.8400
" />
</g>
<g style="fill:#0D115E; fill-opacity:0.0; 
stroke:#0D115E; stroke-width:0.2000; stroke-opacity:1; 
stroke-linecap:round; stroke-linejoin:round;">
<circle cx="64.2574" cy="59.5915" r="3.7500" /> 
<circle cx="64.2574" cy="59.5915" r="4.0000" /> 
<circle cx="141.5650" cy="115.4834" r="3.7500" /> 
<circle cx="141.5650" cy="115.4834" r="4.0000" /> 
</g>
<g style="fill:#0D115E; fill-opacity:0.0; 
stroke:#0D115E; stroke-width:0.1200; stroke-opacity:1; 
stroke-linecap:round; stroke-linejoin:round;">
<path d="M53.4200 146.8600
L55.5200 146.8600
" />
<path d="M54.3800 149.8600
L55.8700 149.8600
" />
<path d="M54.4700 145.8100
L54.4700 147.9100
" />
<path d="M55.8700 139.7400
L55.8700 159.9800
" />
<path d="M55.8700 139.7400
L57.9700 139.7400
" />
<path d="M55.8700 159.9800
L57.9700 159.9800
" />
<path d="M57.9700 139.7400
L59.0200 140.7900
" />
<path d="M57.9700 159.9800
L59.0200 158.9300
" />
<path d="M59.0200 140.7900
L60.0700 139.7400
" />
<path d="M59.0200 158.9300
L60.0700 159.9800
" />
<path d="M60.0700 139.7400
L98.6100 139.7400
" />
<path d="M60.0700 159.9800
L98.6100 159.9800
" />
<path d="M98.6100 139.7400
L98.6100 159.9800
" />
<path d="M100.1000 149.8600
L98.6100 149.8600
" />
</g>
<g style="fill:#0D115E; fill-opacity:0.0; 
stroke:#0D115E; stroke-width:0.2000; stroke-opacity:1; 
stroke-linecap:round; stroke-linejoin:round;">
<path d="M53.7800 114.5500
L53.7800 139.4500
" />
<path d="M53.7800 139.4500
L83.3800 139.4500
" />
<path d="M83.3800 114.5500
L53.7800 114.5500
" />
<path d="M83.3800 139.4500
L83.3800 114.5500
" />
<path d="M80.5634 124.1400 A12.3200 12.3200 0.0 0 0 56.5966 124.1400" />
<path d="M56.5966 129.8600 A12.3200 12.3200 0.0 0 0 80.5634 129.8600" />
<circle cx="68.5800" cy="127.0000" r="2.6300" /> 
<circle cx="68.5800" cy="127.0000" r="2.7500" /> 
<circle cx="68.5800" cy="127.0000" r="12.2000" /> 
</g>
<g style="fill:#0D115E; fill-opacity:0.0; 
stroke:#0D115E; stroke-width:0.1200; stroke-opacity:1; 
stroke-linecap:round; stroke-linejoin:round;">
<path d="M55.4200 111.0800
L55.4200 108.9800
" />
<path d="M58.4200 110.1200
L58.4200 108.6300
" />
<path d="M54.3700 110.0300
L56.4700 110.0300
" />
<path d="M48.3000 108.6300
L68.5400 108.6300
" />
<path d="M48.3000 108.6300
L48.3000 106.5300
" />
<path d="M68.5400 108.6300
L68.5400 106.5300
" />
<path d="M48.3000 106.5300
L49.3500 105.4800
" />
<path d="M68.5400 106.5300
L67.4900 105.4800
" />
<path d="M49.3500 105.4800
L48.3000 104.4300
" />
<path d="M67.4900 105.4800
L68.5400 104.4300
" />
<path d="M48.3000 104.4300
L48.3000 65.8900
" />
<path d="M68.5400 104.4300
L68.5400 65.8900
" />
<path d="M48.3000 65.8900
L68.5400 65.8900
" />
<path d="M58.4200 64.4000
L58.4200 65.8900
" />
</g>
<g style="fill:#0D115E; fill-opacity:0.0; 
stroke:#0D115E; stroke-width:0.2000; stroke-opacity:1; 
stroke-linecap:round; stroke-linejoin:round;">
<circle cx="137.1600" cy="55.8800" r="3.7500" /> 
<circle cx="137.1600" cy="55.8800" r="4.0000" /> 
</g>
<g style="fill:#0D115E; fill-opacity:0.0; 
stroke:#0D115E; stroke-width:0.1200; stroke-opacity:1; 
stroke-linecap:round; stroke-linejoin:round;">
<circle cx="121.9200" cy="86.3600" r="2.9300" /> 
<circle cx="121.9200" cy="86.3600" r="25.5200" /> 
</g>
<g style="fill:#0D115E; fill-opacity:0.0; 
stroke:#0D115E; stroke-width:0.2000; stroke-opacity:1; 
stroke-linecap:round; stroke-linejoin:round;">
<path d="M88.9694 133.8590
L88.9694 136.9590
" />
<path d="M88.9694 136.9590
L92.5694 136.9590
" />
<path d="M92.5694 133.8590
L88.9694 133.8590
" />
<path d="M92.5694 136.9590
L92.5694 133.8590
" />
<path d="M93.5694 133.8590
L93.5694 136.9590
" />
<path d="M93.5694 136.9590
L97.1694 136.9590
" />
<path d="M97.1694 133.8590
L93.5694 133.8590
" />
<path d="M97.1694 136.9590
L97.1694 133.8590
" />
<circle cx="90.7694" cy="135.4090" r="1.0500" /> 
<circle cx="95.3694" cy="135.4090" r="1.0500" /> 
<path d="M69.0347 106.1661
L82.0347 106.1661
" />
<path d="M82.0347 106.1661
L82.0347 42.3061
" />
<path d="M75.5347 104.7161
L75.5347 98.2361
" />
<path d="M75.5347 103.2761
L75.5347 98.3561
" />
<path d="M69.1647 98.3561
L81.9047 98.3561
" />
<path d="M81.9047 98.3561
L81.9047 50.1161
" />
<path d="M69.2847 98.2361
L81.7847 98.2361
" />
<path d="M81.7847 98.2361
L81.7847 50.2361
" />
<path d="M69.2847 50.2361
L69.2847 98.2361
" />
<path d="M81.7847 50.2361
L69.2847 50.2361
" />
<path d="M69.1647 50.1161
L69.1647 98.3561
" />
<path d="M81.9047 50.1161
L69.1647 50.1161
" />
<path d="M75.5347 45.1961
L75.5347 50.1161
" />
<path d="M75.5347 43.7561
L75.5347 50.2361
" />
<path d="M69.0347 42.3061
L69.0347 106.1661
" />
<path d="M82.0347 42.3061
L69.0347 42.3061
" />
<path d="M103.1500 113.2200
L100.0500 113.2200
" />
<path d="M100.0500 113.2200
L100.0500 116.8200
" />
<path d="M103.1500 116.8200
L103.1500 113.2200
" />
<path d="M100.0500 116.8200
L103.1500 116.8200
" />
<path d="M103.1500 117.8200
L100.0500 117.8200
" />
<path d="M100.0500 117.8200
L100.0500 121.4200
" />
<path d="M103.1500 121.4200
L103.1500 117.8200
" />
<path d="M100.0500 121.4200
L103.1500 121.4200
" />
<path d="M103.1500 122.4200
L100.0500 122.4200
" />
<path d="M100.0500 122.4200
L100.0500 126.0200
" />
<path d="M103.1500 126.0200
L103.1500 122.4200
" />
<path d="M100.0500 126.0200
L103.1500 126.0200
" />
<path d="M103.1500 127.0200
L100.0500 127.0200
" />
<path d="M100.0500 127.0200
L100.0500 130.6200
" />
<path d="M103.1500 130.6200
L103.1500 127.0200
" />
<path d="M100.0500 130.6200
L103.1500 130.6200
" />
<circle cx="101.6000" cy="115.0200" r="1.0500" /> 
<circle cx="101.6000" cy="119.6200" r="1.0500" /> 
<circle cx="101.6000" cy="124.2200" r="1.0500" /> 
<circle cx="101.6000" cy="128.8200" r="1.0500" /> 
<path d="M147.1479 160.3591
L147.1479 119.2191
" />
<path d="M147.1479 119.2191
L106.0079 119.2191
" />
<path d="M106.0079 160.3591
L147.1479 160.3591
" />
<path d="M106.0079 119.2191
L106.0079 160.3591
" />
<circle cx="126.5779" cy="139.7891" r="2.1050" /> 
<circle cx="126.5779" cy="139.7891" r="2.2250" /> 
<circle cx="126.5779" cy="139.7891" r="20.3200" /> 
<circle cx="126.5779" cy="139.7891" r="20.4400" /> 
<g >
</g>
<g >
</g>
<g >
</g>
<g >
</g>
<g >
</g>
<g >
</g>
<g >
</g>
<g >
</g>
<g >
</g>
<g >
</g>
<g >
</g>
<g >
</g>
<g >
</g>
<g >
</g>
<g >
</g>
<g >
</g>
<g >
</g>
</g>
<g style="fill:#FFFFFF; fill-opacity:0.0; 
stroke:#FFFFFF; stroke-width:0.2000; stroke-opacity:1; 
stroke-linecap:round; stroke-linejoin:round;">
</g>
<g style="fill:#2F2D31; fill-opacity:0.0; 
stroke:#2F2D31; stroke-width:0.2000; stroke-opacity:1; 
stroke-linecap:round; stroke-linejoin:round;">
</g>
<g style="fill:#2F2D31; fill-opacity:0.0; 
stroke:#2F2D31; stroke-width:0.1000; stroke-opacity:1; 
stroke-linecap:round; stroke-linejoin:round;">
<path d="M52.3969 39.6078 A4.5000 4.5000 0.0 0 0 47.8969 44.1078" />
<path d="M144.2149 160.3679
L52.3969 160.4659
" />
<path d="M144.2149 160.3679 A4.5001 4.5001 0.0 0 0 148.7149 155.8679" />
<path d="M47.8969 155.9659
L47.8969 44.1078
" />
<path d="M47.8969 155.9659 A4.5000 4.5000 0.0 0 0 52.3969 160.4659" />
<path d="M148.7149 44.1078
L148.7149 155.8679
" />
<path d="M52.3969 39.6078
L144.2149 39.6078
" />
<path d="M148.7149 44.1078 A4.5000 4.5000 0.0 0 0 144.2149 39.6078" />
<g >
</g>
<g >
</g>
<g >
</g>
<g >
</g>
<g >
</g>
<g >
</g>
<g >
</g>
<g >
</g>
<g >
</g>
<g >
</g>
<g >
</g>
<g >
</g>
<g >
</g>
<g >
</g>
<g >
</g>
<g >
</g>
<g >
</g>
</g> 
</svg>
